<svg width="237" height="76" viewBox="0 0 237 76" fill="none" xmlns="http://www.w3.org/2000/svg">
<g clip-path="url(#clip0_2531_10243)">
<path d="M6.51367 2.86816C6.8669 20.8331 32.7245 33.3753 41.8146 32.4003C43.9367 32.173 45.9037 31.4382 47.4811 30.1373C47.7738 29.8962 48.0175 29.6402 48.2184 29.3798C48.4835 29.0341 48.671 28.678 48.7865 28.327C49.6401 25.778 46.875 23.4885 43.9955 27.5638C42.9756 29.008 42.216 30.65 41.8142 32.4028C41.075 35.6217 41.5348 39.2079 43.777 42.5945C45.6211 45.3819 48.1028 47.1508 50.7227 48.2879C53.8236 49.6302 57.1153 50.0851 59.7722 50.2821C63.5572 50.5609 66.9984 50.0921 70.1478 49.0696C73.8389 47.8709 77.1217 45.9105 80.0758 43.5071C85.0958 39.4224 88.7221 32.514 82.2485 28.247C78.5029 25.7763 74.6468 28.466 72.3595 31.4388C72.9353 32.9328 73.0477 34.4048 72.497 35.36C71.3202 37.4019 70.0616 35.3047 71.141 33.3076C71.4668 32.7022 71.8806 32.0659 72.362 31.439C71.3549 28.8208 68.9262 26.1258 66.1547 25.9893C62.3174 25.802 57.332 29.1474 58.9776 35.591C60.3808 41.0884 64.7509 46.1212 70.15 49.0723C71.6058 49.868 73.1392 50.5126 74.7084 50.9745C79.0034 52.2389 82.7157 52.7315 85.8857 53.1816C89.0281 53.6289 91.6415 54.0301 93.766 55.0971M93.766 55.0971C95.1408 55.7878 96.3126 56.7559 97.2902 58.1937C99.8598 61.9736 94.0281 63.5666 93.485 58.499C93.3581 57.3237 93.4496 56.1531 93.766 55.0971ZM93.766 55.0971C94.8511 51.4587 98.6059 49.1686 105.406 52.7235C145.635 86.4181 185.479 59.1694 198.862 32.1573" stroke="#EBEBEB" stroke-width="2" stroke-linecap="round" stroke-linejoin="round" stroke-dasharray="4 4"/>
<path d="M234.861 15.5354C234.861 15.5354 234.879 15.4968 234.884 15.4809C234.906 15.407 234.899 15.3268 234.867 15.2537C234.834 15.1761 234.779 15.1192 234.713 15.0896C234.697 15.0796 234.678 15.0753 234.659 15.0711C234.635 15.0635 234.607 15.0616 234.579 15.0597L192.613 14.4399C192.5 14.4381 192.394 14.5017 192.341 14.6133C192.286 14.7203 192.291 14.8492 192.353 14.9524L199.379 26.2036L197.213 39.563L197.215 39.5721C197.217 39.5811 197.219 39.5856 197.212 39.597C197.212 39.6309 197.216 39.6637 197.219 39.6964C197.22 39.7009 197.221 39.7054 197.223 39.7099C197.223 39.7099 197.224 39.7144 197.225 39.719C197.231 39.7415 197.239 39.7583 197.253 39.7785C197.256 39.7875 197.258 39.7965 197.264 39.8044C197.28 39.8291 197.299 39.8525 197.321 39.8703C197.344 39.8881 197.367 39.9059 197.392 39.918C197.392 39.918 197.393 39.9225 197.397 39.9213C197.397 39.9213 197.406 39.919 197.412 39.9268C197.437 39.9344 197.461 39.942 197.485 39.945C197.493 39.9427 197.498 39.946 197.508 39.9481C197.54 39.9488 197.566 39.9462 197.596 39.9379L206.637 37.1045L211.2 45.7719C211.219 45.8101 211.245 45.8414 211.274 45.8671C211.32 45.9072 211.381 45.9335 211.441 45.9406C211.543 45.9505 211.641 45.9085 211.705 45.8228L234.822 15.5948C234.822 15.5948 234.852 15.5525 234.86 15.5309L234.861 15.5354ZM233.177 15.6917L232.225 16.1434L199.833 25.7474L193.19 15.1028L233.18 15.686L233.177 15.6917ZM199.971 26.389L228.398 17.9607L203.243 29.9176C203.243 29.9176 203.231 29.9257 203.224 29.9326C203.204 29.943 203.185 29.958 203.172 29.9763C203.157 29.99 203.142 30.0038 203.133 30.0209C203.13 30.0266 203.122 30.029 203.115 30.0404L198.07 38.1388L199.972 26.3935L199.971 26.389ZM198.243 39.0458L203.349 30.8481L206.33 36.5104L198.243 39.0458ZM211.523 45.0245L203.809 30.3759L232.439 16.7637L233.333 16.4971L211.523 45.0245Z" stroke="#E8E8E8"/>
</g>
<defs>
<clipPath id="clip0_2531_10243">
<rect width="235.731" height="72.454" fill="white" transform="translate(0 3.3584) rotate(-0.816231)"/>
</clipPath>
</defs>
</svg>
