<svg width="343" height="153" viewBox="0 0 343 153" fill="none" xmlns="http://www.w3.org/2000/svg">
<g clip-path="url(#clip0_19_73)">
<path opacity="0.14" d="M576.94 365.102L524.321 320.33C505.474 301.367 495.108 276.23 495.108 249.498C495.108 222.765 505.474 197.609 524.321 178.665L576.94 133.893C577.094 133.758 577.229 133.624 577.383 133.489C596.461 114.391 606.981 89.024 606.981 62.022C606.981 35.02 596.461 9.65268 577.383 -9.4449C537.995 -48.8517 473.876 -48.8517 434.489 -9.4449C434.354 -9.31028 434.219 -9.15642 434.085 -9.02179L389.312 43.5975C350.194 82.5043 286.767 82.5043 247.649 43.5975L202.877 -9.02179C202.742 -9.17565 202.608 -9.31028 202.473 -9.4449C163.086 -48.8325 98.9854 -48.8325 59.5981 -9.42567C40.5007 9.65268 30 35.0392 30 62.022C30 89.0048 40.5007 114.391 59.5981 133.489C59.7328 133.624 59.8866 133.758 60.0405 133.893L112.659 178.665C131.507 197.628 141.873 222.765 141.873 249.498C141.873 276.23 131.507 301.386 112.659 320.33L60.0405 365.102C59.8866 365.237 59.752 365.372 59.5981 365.506C40.5199 384.585 30 409.971 30 436.973C30 463.975 40.5007 489.342 59.5981 508.44C98.9854 547.847 163.105 547.847 202.492 508.44C202.627 508.305 202.762 508.152 202.896 508.017L247.668 455.398C286.786 416.491 350.214 416.491 389.332 455.398L434.104 508.017C434.239 508.171 434.373 508.305 434.508 508.44C454.201 528.153 480.068 538 505.955 538C531.822 538 557.708 528.153 577.402 508.44C596.48 489.362 607 463.975 607 436.973C607 409.971 596.48 384.604 577.402 365.506C577.267 365.372 577.113 365.237 576.96 365.102H576.94ZM141.18 334.215C134.699 344.716 131.238 356.813 131.238 369.468C131.238 387.45 138.238 404.355 150.95 417.068C163.663 429.78 180.568 436.781 198.53 436.781C211.166 436.781 223.282 433.3 233.764 426.838L216.166 447.512C203.415 460.167 186.51 467.129 168.528 467.129C150.546 467.129 133.468 460.09 120.698 447.301C94.3889 420.991 94.312 378.219 120.487 351.813L141.161 334.215H141.18ZM120.506 147.144C94.3312 120.738 94.4081 77.9655 120.718 51.6558C133.488 38.8664 150.489 31.8274 168.548 31.8274C186.607 31.8274 203.435 38.7895 216.185 51.4443L233.783 72.1189C223.282 65.6376 211.185 62.1758 198.55 62.1758C180.568 62.1758 163.663 69.1764 150.97 81.8889C128.507 104.352 125.295 138.855 141.257 164.78L120.525 147.124L120.506 147.144ZM495.762 164.799C511.724 138.855 508.513 104.371 486.05 81.9081C473.337 69.1956 456.432 62.1951 438.45 62.1951C425.815 62.1951 413.699 65.6761 403.217 72.1381L420.815 51.4635C433.565 38.8087 450.47 31.8467 468.452 31.8467C486.434 31.8467 503.512 38.8856 516.282 51.6751C542.592 77.9847 542.669 120.757 516.475 147.163L495.743 164.818L495.762 164.799ZM372.85 373.315C372.715 373.161 372.581 373.026 372.446 372.891C342.694 343.139 294.287 343.139 264.535 372.891C264.4 373.026 264.266 373.18 264.131 373.315L235.552 406.913C225.628 416.741 212.493 422.145 198.511 422.145C184.53 422.145 171.221 416.664 161.278 406.721C151.335 396.778 145.854 383.546 145.854 369.487C145.854 355.429 151.258 342.37 161.066 332.446L194.646 303.867C194.799 303.732 194.934 303.598 195.088 303.463C209.493 289.058 217.436 269.884 217.436 249.498C217.436 229.111 209.493 209.956 195.088 195.532C194.953 195.397 194.799 195.263 194.646 195.128L161.066 166.549C140.738 145.99 140.796 112.737 161.259 92.2743C171.202 82.3312 184.433 76.85 198.492 76.85C212.551 76.85 225.609 82.2543 235.533 92.0819L264.112 125.681C264.246 125.834 264.381 125.969 264.516 126.104C294.268 155.856 342.675 155.856 372.427 126.104C372.561 125.969 372.696 125.815 372.831 125.681L401.409 92.0819C411.333 82.2543 424.469 76.85 438.45 76.85C452.432 76.85 465.741 82.3312 475.684 92.2743C496.146 112.737 496.204 146.009 475.876 166.549L442.297 195.128C442.143 195.263 442.008 195.397 441.874 195.532C412.122 225.284 412.122 273.692 441.874 303.463C442.008 303.598 442.162 303.732 442.297 303.867L475.876 332.446C485.703 342.37 491.088 355.506 491.088 369.487C491.088 383.469 485.607 396.778 475.664 406.721C465.721 416.664 452.49 422.145 438.431 422.145C424.372 422.145 411.314 416.741 401.39 406.913L372.811 373.315H372.85ZM452.028 292.885C428.257 268.884 428.257 230.073 452.028 206.09L462.721 196.994C452.259 212.36 446.624 230.496 446.624 249.498C446.624 268.499 452.259 286.635 462.721 302.002L452.028 292.905V292.885ZM361.888 115.93C337.905 139.701 299.095 139.701 275.093 115.93L265.939 105.179C281.728 115.911 300.095 121.315 318.481 121.315C336.867 121.315 355.233 115.93 371.023 105.179L361.868 115.949L361.888 115.93ZM184.953 206.09C196.473 217.707 202.819 233.112 202.819 249.498C202.819 265.883 196.473 281.269 184.953 292.905L174.202 302.059C195.665 270.461 195.665 228.554 174.202 196.955L184.953 206.11V206.09ZM275.093 383.046C299.076 359.275 337.886 359.275 361.888 383.046L371.042 393.797C339.444 372.314 297.537 372.314 265.939 393.797L275.093 383.027V383.046ZM438.45 436.781C456.432 436.781 473.337 429.78 486.05 417.068C498.762 404.355 505.763 387.45 505.763 369.468C505.763 356.833 502.281 344.716 495.82 334.215L516.494 351.813C542.669 378.219 542.592 420.991 516.282 447.301C503.512 460.09 486.511 467.129 468.452 467.129C450.393 467.129 433.565 460.167 420.815 447.512L403.217 426.838C413.718 433.319 425.815 436.781 438.45 436.781ZM512.898 329.523L484.165 305.079C469.395 290.193 461.26 270.461 461.26 249.478C461.26 228.496 469.395 208.764 484.165 193.878L512.898 169.434C491.992 191.012 480.472 219.361 480.472 249.478C480.472 279.596 491.992 307.944 512.898 329.523ZM445.028 0.709702C478.722 -32.7736 533.38 -32.7159 566.997 0.921261C583.325 17.2494 592.307 38.9433 592.307 62.022C592.307 85.1006 583.402 106.621 567.209 122.93L527.899 156.394C558.689 124.2 558.285 72.9843 526.629 41.3281C511.09 25.7885 490.415 17.2109 468.433 17.2109C446.451 17.2109 426.969 25.3077 411.602 40.0396L445.047 0.728935L445.028 0.709702ZM398.525 55.0407L374.061 83.7929C343.348 114.295 293.595 114.295 262.881 83.7929L238.418 55.0407C282.959 98.1785 353.983 98.1785 398.505 55.0407H398.525ZM44.6356 62.022C44.6356 38.9433 53.617 17.2494 69.945 0.921261C103.563 -32.6966 158.22 -32.7736 191.934 0.709702L225.378 40.0203C209.993 25.3077 189.895 17.1917 168.548 17.1917C147.2 17.1917 125.891 25.75 110.352 41.3089C78.6956 72.9651 78.2917 124.18 109.082 156.375L69.7527 122.911C53.5593 106.621 44.6548 85.0045 44.6548 62.022H44.6356ZM124.064 169.434L152.797 193.897C183.299 224.611 183.299 274.365 152.797 305.098L124.064 329.561C144.969 307.983 156.489 279.634 156.489 249.517C156.489 219.399 144.969 191.051 124.064 169.472V169.434ZM191.915 498.266C158.22 531.749 103.543 531.692 69.9257 498.055C53.5977 481.726 44.6164 460.033 44.6164 436.954C44.6164 413.875 53.5208 392.354 69.7142 376.065L109.044 342.601C78.2532 374.795 78.6571 426.011 110.313 457.667C125.853 473.207 146.527 481.784 168.509 481.784C190.491 481.784 209.974 473.687 225.34 458.956L191.895 498.266H191.915ZM238.418 443.935L262.881 415.183C293.595 384.681 343.348 384.681 374.061 415.183L398.525 443.935C354.002 400.797 282.978 400.778 238.437 443.935H238.418ZM566.997 498.055C533.38 531.673 478.722 531.749 445.028 498.266L411.583 458.956C426.969 473.668 447.066 481.765 468.414 481.765C489.761 481.765 511.071 473.207 526.61 457.648C558.266 425.992 558.67 374.776 527.879 342.581L567.19 376.046C583.383 392.335 592.287 413.952 592.287 436.954C592.287 459.956 583.306 481.726 566.978 498.055H566.997Z" fill="white"/>
<path d="M299.333 78.5556V87.8889C299.333 88.714 299.006 89.5053 298.422 90.0888C297.839 90.6722 297.047 91 296.222 91H279.111C278.286 91 277.495 90.6722 276.911 90.0888C276.328 89.5053 276 88.714 276 87.8889V70.7778C276 69.9527 276.328 69.1613 276.911 68.5779C277.495 67.9944 278.286 67.6667 279.111 67.6667H288.444M294.667 63H304M304 63V72.3333M304 63L286.889 80.1111" stroke="white" stroke-width="1.5" stroke-linecap="round" stroke-linejoin="round"/>
</g>
<defs>
<clipPath id="clip0_19_73">
<rect width="343" height="153" fill="white"/>
</clipPath>
</defs>
</svg>
