<svg width="320" height="124" viewBox="0 0 320 124" fill="none" xmlns="http://www.w3.org/2000/svg">
<path opacity="0.14" d="M582.013 25.0154L526.02 -22.6282C505.964 -42.8072 494.933 -69.5556 494.933 -98.0026C494.933 -126.45 505.964 -153.218 526.02 -173.377L582.013 -221.021C582.177 -221.164 582.32 -221.307 582.483 -221.45C602.785 -241.773 613.98 -268.766 613.98 -297.5C613.98 -326.234 602.785 -353.227 582.483 -373.55C540.57 -415.483 472.339 -415.483 430.426 -373.55C430.283 -373.406 430.14 -373.243 429.996 -373.099L382.353 -317.106C340.727 -275.704 273.232 -275.704 231.606 -317.106L183.963 -373.099C183.819 -373.263 183.676 -373.406 183.533 -373.55C141.62 -415.463 73.409 -415.463 31.4961 -373.529C11.1741 -353.227 0 -326.213 0 -297.5C0 -268.787 11.1741 -241.773 31.4961 -221.45C31.6394 -221.307 31.8031 -221.164 31.9668 -221.021L87.9599 -173.377C108.016 -153.198 119.047 -126.45 119.047 -98.0026C119.047 -69.5556 108.016 -42.7867 87.9599 -22.6282L31.9668 25.0154C31.8031 25.1586 31.6598 25.3019 31.4961 25.4452C11.1945 45.7469 0 72.7613 0 101.495C0 130.228 11.1741 157.222 31.4961 177.545C73.409 219.478 141.64 219.478 183.553 177.545C183.697 177.401 183.84 177.238 183.983 177.094L231.626 121.101C273.253 79.6991 340.747 79.6991 382.374 121.101L430.017 177.094C430.16 177.258 430.303 177.401 430.447 177.545C451.403 198.522 478.929 209 506.475 209C534.001 209 561.547 198.522 582.504 177.545C602.805 157.243 614 130.228 614 101.495C614 72.7613 602.805 45.7674 582.504 25.4452C582.361 25.3019 582.197 25.1586 582.033 25.0154H582.013ZM118.31 -7.85214C111.413 3.32199 107.729 16.1948 107.729 29.661C107.729 48.7963 115.179 66.7854 128.706 80.3131C142.234 93.8408 160.223 101.29 179.337 101.29C192.783 101.29 205.676 97.5859 216.83 90.7095L198.104 112.71C184.536 126.176 166.547 133.585 147.412 133.585C128.277 133.585 110.103 126.094 96.5144 112.485C68.5178 84.488 68.436 38.9728 96.2893 10.8737L118.289 -7.85214H118.31ZM96.3097 -206.92C68.4564 -235.019 68.5383 -280.534 96.5348 -308.531C110.124 -322.14 128.215 -329.631 147.432 -329.631C166.649 -329.631 184.556 -322.222 198.125 -308.756L216.85 -286.756C205.676 -293.652 192.804 -297.336 179.358 -297.336C160.223 -297.336 142.234 -289.887 128.727 -276.359C104.823 -252.456 101.406 -215.74 118.392 -188.153L96.3302 -206.94L96.3097 -206.92ZM495.629 -188.133C512.615 -215.74 509.197 -252.435 485.294 -276.339C471.766 -289.866 453.777 -297.316 434.642 -297.316C421.196 -297.316 408.303 -293.612 397.15 -286.735L415.875 -308.736C429.444 -322.202 447.433 -329.61 466.568 -329.61C485.703 -329.61 503.876 -322.12 517.465 -308.51C545.462 -280.514 545.544 -234.998 517.67 -206.899L495.608 -188.112L495.629 -188.133ZM364.835 33.7542C364.692 33.5904 364.548 33.4471 364.405 33.3039C332.745 1.6438 281.234 1.6438 249.574 33.3039C249.431 33.4471 249.288 33.6109 249.145 33.7542L218.733 69.5073C208.173 79.9651 194.195 85.716 179.317 85.716C164.439 85.716 150.277 79.8833 139.696 69.3027C129.116 58.722 123.283 44.6418 123.283 29.6815C123.283 14.7212 129.034 0.825165 139.471 -9.73502L175.203 -40.1467C175.367 -40.2899 175.51 -40.4332 175.674 -40.5765C191.003 -55.9051 199.455 -76.3092 199.455 -98.0026C199.455 -119.696 191.003 -140.08 175.674 -155.429C175.531 -155.572 175.367 -155.715 175.203 -155.858L139.471 -186.27C117.839 -208.148 117.901 -243.533 139.676 -265.308C150.256 -275.888 164.336 -281.721 179.297 -281.721C194.257 -281.721 208.153 -275.97 218.713 -265.512L249.124 -229.759C249.267 -229.596 249.411 -229.452 249.554 -229.309C281.214 -197.649 332.725 -197.649 364.385 -229.309C364.528 -229.452 364.671 -229.616 364.814 -229.759L395.226 -265.512C405.786 -275.97 419.764 -281.721 434.642 -281.721C449.52 -281.721 463.682 -275.888 474.263 -265.308C496.038 -243.533 496.099 -208.127 474.468 -186.27L438.735 -155.858C438.571 -155.715 438.428 -155.572 438.285 -155.429C406.625 -123.769 406.625 -72.257 438.285 -40.5765C438.428 -40.4332 438.592 -40.2899 438.735 -40.1467L474.468 -9.73502C484.925 0.825165 490.656 14.8031 490.656 29.6815C490.656 44.5599 484.823 58.722 474.242 69.3027C463.662 79.8833 449.582 85.716 434.622 85.716C419.661 85.716 405.766 79.9651 395.205 69.5073L364.794 33.7542H364.835ZM449.091 -51.8325C423.796 -77.3734 423.796 -118.673 449.091 -144.193L460.469 -153.873C449.336 -137.521 443.34 -118.222 443.34 -98.0026C443.34 -77.7827 449.336 -58.4837 460.469 -42.1318L449.091 -51.812V-51.8325ZM353.17 -240.135C327.65 -214.84 286.351 -214.84 260.81 -240.135L251.068 -251.575C267.87 -240.156 287.415 -234.405 306.98 -234.405C326.544 -234.405 346.089 -240.135 362.891 -251.575L353.149 -240.115L353.17 -240.135ZM164.889 -144.193C177.148 -131.832 183.901 -115.439 183.901 -98.0026C183.901 -80.566 177.148 -64.1936 164.889 -51.812L153.449 -42.0705C176.288 -75.6952 176.288 -120.289 153.449 -153.914L164.889 -144.173V-144.193ZM260.81 44.1096C286.33 18.8143 327.629 18.8143 353.17 44.1096L362.911 55.5498C329.287 32.6899 284.693 32.6899 251.068 55.5498L260.81 44.0892V44.1096ZM434.642 101.29C453.777 101.29 471.766 93.8408 485.294 80.3131C498.821 66.7854 506.271 48.7963 506.271 29.661C506.271 16.2152 502.566 3.32199 495.69 -7.85214L517.69 10.8737C545.544 38.9728 545.462 84.488 517.465 112.485C503.876 126.094 485.785 133.585 466.568 133.585C447.351 133.585 429.444 126.176 415.875 112.71L397.15 90.7095C408.324 97.6064 421.196 101.29 434.642 101.29ZM513.863 -12.8458L483.288 -38.8574C467.571 -54.6977 458.914 -75.6952 458.914 -98.023C458.914 -120.351 467.571 -141.348 483.288 -157.189L513.863 -183.2C491.617 -160.238 479.359 -130.072 479.359 -98.023C479.359 -65.9741 491.617 -35.808 513.863 -12.8458ZM441.641 -362.744C477.496 -398.374 535.659 -398.313 571.432 -362.519C588.807 -345.144 598.365 -322.059 598.365 -297.5C598.365 -272.941 588.889 -250.041 571.657 -232.686L529.826 -197.076C562.591 -231.335 562.161 -285.835 528.476 -319.521C511.94 -336.057 489.939 -345.185 466.548 -345.185C443.156 -345.185 422.424 -336.569 406.073 -320.892L441.662 -362.723L441.641 -362.744ZM392.156 -304.929L366.124 -274.333C333.441 -241.875 280.497 -241.875 247.814 -274.333L221.783 -304.929C269.18 -259.025 344.759 -259.025 392.136 -304.929H392.156ZM15.5741 -297.5C15.5741 -322.059 25.1314 -345.144 42.5064 -362.519C78.2798 -398.292 136.442 -398.374 172.318 -362.744L207.907 -320.912C191.535 -336.569 170.149 -345.205 147.432 -345.205C124.716 -345.205 102.04 -336.098 85.504 -319.541C51.8181 -285.855 51.3884 -231.356 84.1533 -197.096L42.3018 -232.706C25.07 -250.041 15.5946 -273.044 15.5946 -297.5H15.5741ZM100.096 -183.2L130.671 -157.168C163.129 -124.485 163.129 -71.5407 130.671 -38.8369L100.096 -12.8048C122.342 -35.7671 134.6 -65.9332 134.6 -97.9821C134.6 -130.031 122.342 -160.197 100.096 -183.159V-183.2ZM172.297 166.718C136.442 202.349 78.2593 202.287 42.486 166.493C25.1109 149.118 15.5536 126.033 15.5536 101.474C15.5536 76.9158 25.0291 54.0149 42.2609 36.6807L84.1124 1.07077C51.3474 35.33 51.7772 89.8295 85.4631 123.516C101.999 140.052 123.999 149.179 147.391 149.179C170.783 149.179 191.514 140.563 207.866 124.887L172.277 166.718H172.297ZM221.783 108.903L247.814 78.3075C280.497 45.8492 333.441 45.8492 366.124 78.3075L392.156 108.903C344.779 62.9993 269.201 62.9788 221.803 108.903H221.783ZM571.432 166.493C535.659 202.267 477.496 202.349 441.641 166.718L406.052 124.887C422.424 140.543 443.811 149.159 466.527 149.159C489.244 149.159 511.919 140.052 528.455 123.495C562.141 89.8091 562.571 35.3095 529.806 1.05029L571.637 36.6602C588.869 53.9945 598.344 76.9977 598.344 101.474C598.344 125.951 588.787 149.118 571.412 166.493H571.432Z" fill="white"/>
<path d="M245 63.7332H279.394L271.16 55.5" stroke="#FCFAFF" stroke-linecap="round" stroke-linejoin="round"/>
</svg>
