<svg width="24" height="24" viewBox="0 0 24 24" fill="none" xmlns="http://www.w3.org/2000/svg">
<mask id="path-1-inside-1_2227_8149" fill="white">
<path d="M5.57523 8.76504L5.28721 9.0801L5 8.76504L5.28721 8.44998L5.57523 8.76504ZM9.64334 19C9.53545 19 9.43198 18.9531 9.35568 18.8697C9.27939 18.7862 9.23653 18.673 9.23653 18.555C9.23653 18.437 9.27939 18.3238 9.35568 18.2403C9.43198 18.1569 9.53545 18.11 9.64334 18.11V19ZM9.35532 13.5301L5.28721 9.0801L5.86325 8.44998L9.93137 12.9L9.35532 13.5301ZM5.28721 8.44998L9.35532 4L9.93137 4.63012L5.86325 9.0801L5.28721 8.44998ZM5.57523 8.32004H14.1183V9.21004H5.57523V8.32004ZM14.1183 19H9.64334V18.11H14.1183V19ZM19 13.66C19 15.0763 18.4857 16.4345 17.5702 17.436C16.6547 18.4374 15.413 19 14.1183 19V18.11C15.1972 18.11 16.2319 17.6412 16.9949 16.8066C17.7578 15.9721 18.1864 14.8402 18.1864 13.66H19ZM14.1183 8.32004C15.413 8.32004 16.6547 8.88265 17.5702 9.88409C18.4857 10.8855 19 12.2438 19 13.66H18.1864C18.1864 12.4798 17.7578 11.3479 16.9949 10.5134C16.2319 9.67887 15.1972 9.21004 14.1183 9.21004V8.32004Z"/>
</mask>
<path d="M5.57523 8.76504L5.28721 9.0801L5 8.76504L5.28721 8.44998L5.57523 8.76504ZM9.64334 19C9.53545 19 9.43198 18.9531 9.35568 18.8697C9.27939 18.7862 9.23653 18.673 9.23653 18.555C9.23653 18.437 9.27939 18.3238 9.35568 18.2403C9.43198 18.1569 9.53545 18.11 9.64334 18.11V19ZM9.35532 13.5301L5.28721 9.0801L5.86325 8.44998L9.93137 12.9L9.35532 13.5301ZM5.28721 8.44998L9.35532 4L9.93137 4.63012L5.86325 9.0801L5.28721 8.44998ZM5.57523 8.32004H14.1183V9.21004H5.57523V8.32004ZM14.1183 19H9.64334V18.11H14.1183V19ZM19 13.66C19 15.0763 18.4857 16.4345 17.5702 17.436C16.6547 18.4374 15.413 19 14.1183 19V18.11C15.1972 18.11 16.2319 17.6412 16.9949 16.8066C17.7578 15.9721 18.1864 14.8402 18.1864 13.66H19ZM14.1183 8.32004C15.413 8.32004 16.6547 8.88265 17.5702 9.88409C18.4857 10.8855 19 12.2438 19 13.66H18.1864C18.1864 12.4798 17.7578 11.3479 16.9949 10.5134C16.2319 9.67887 15.1972 9.21004 14.1183 9.21004V8.32004Z" fill="#776CBF"/>
<path d="M9.14334 18.11V19H10.1433V18.11H9.14334ZM13.6183 8.32004V9.21004H14.6183V8.32004H13.6183ZM13.6183 18.11V19H14.6183V18.11H13.6183ZM18.1864 14.16H19V13.16H18.1864V14.16ZM5.57523 8.76504L6.3133 9.43977L6.93012 8.76504L6.3133 8.09031L5.57523 8.76504ZM5.28721 9.0801L4.54819 9.75379L4.54914 9.75483L5.28721 9.0801ZM5 8.76504L4.26098 8.09135L3.64685 8.76504L4.26098 9.43873L5 8.76504ZM5.28721 8.44998L4.54914 7.77525L4.54819 7.77629L5.28721 8.44998ZM9.35532 13.5301L8.61725 14.2048L9.35532 15.0122L10.0934 14.2048L9.35532 13.5301ZM5.86325 8.44998L6.60132 7.77525L5.86325 6.96791L5.12519 7.77525L5.86325 8.44998ZM9.93137 12.9L10.6694 13.5747L11.2863 12.9L10.6694 12.2252L9.93137 12.9ZM9.35532 4L10.0934 3.32527L9.35532 2.51792L8.61725 3.32527L9.35532 4ZM9.93137 4.63012L10.6694 5.30485L11.2863 4.63012L10.6694 3.95539L9.93137 4.63012ZM5.86325 9.0801L5.12519 9.75483L5.86325 10.5622L6.60132 9.75483L5.86325 9.0801ZM5.57523 8.32004V7.32004H4.57523V8.32004H5.57523ZM14.1183 9.21004V8.21004V9.21004ZM5.57523 9.21004H4.57523V10.21H5.57523V9.21004ZM18.1864 13.66H17.1864H18.1864ZM4.83717 8.09031L4.54914 8.40537L6.02527 9.75483L6.3133 9.43977L4.83717 8.09031ZM6.02622 8.40641L5.73902 8.09135L4.26098 9.43873L4.54819 9.75379L6.02622 8.40641ZM5.73902 9.43873L6.02622 9.12367L4.54819 7.77629L4.26098 8.09135L5.73902 9.43873ZM4.54914 9.12471L4.83717 9.43977L6.3133 8.09031L6.02527 7.77525L4.54914 9.12471ZM9.64334 18C9.83109 18 9.99086 18.0824 10.0937 18.1949L8.61762 19.5444C8.87309 19.8238 9.23981 20 9.64334 20V18ZM10.0937 18.1949C10.1939 18.3045 10.2365 18.4353 10.2365 18.555H8.23653C8.23653 18.9107 8.36489 19.2679 8.61762 19.5444L10.0937 18.1949ZM10.2365 18.555C10.2365 18.6747 10.1939 18.8055 10.0937 18.9151L8.61762 17.5656C8.36489 17.8421 8.23653 18.1993 8.23653 18.555H10.2365ZM10.0937 18.9151C9.99086 19.0276 9.83109 19.11 9.64334 19.11V17.11C9.23981 17.11 8.87309 17.2862 8.61762 17.5656L10.0937 18.9151ZM10.0934 12.8554L6.02527 8.40537L4.54914 9.75483L8.61725 14.2048L10.0934 12.8554ZM6.02527 9.75483L6.60132 9.12471L5.12519 7.77525L4.54914 8.40537L6.02527 9.75483ZM5.12519 9.12471L9.1933 13.5747L10.6694 12.2252L6.60132 7.77525L5.12519 9.12471ZM9.1933 12.2252L8.61725 12.8554L10.0934 14.2048L10.6694 13.5747L9.1933 12.2252ZM6.02527 9.12471L10.0934 4.67473L8.61725 3.32527L4.54914 7.77525L6.02527 9.12471ZM8.61725 4.67473L9.1933 5.30485L10.6694 3.95539L10.0934 3.32527L8.61725 4.67473ZM9.1933 3.95539L5.12519 8.40537L6.60132 9.75483L10.6694 5.30485L9.1933 3.95539ZM6.60132 8.40537L6.02527 7.77525L4.54914 9.12471L5.12519 9.75483L6.60132 8.40537ZM5.57523 9.32004H14.1183V7.32004H5.57523V9.32004ZM14.1183 8.21004H5.57523V10.21H14.1183V8.21004ZM6.57523 9.21004V8.32004H4.57523V9.21004H6.57523ZM14.1183 18H9.64334V20H14.1183V18ZM9.64334 19.11H14.1183V17.11H9.64334V19.11ZM18 13.66C18 14.8386 17.5712 15.9528 16.8321 16.7612L18.3082 18.1107C19.4002 16.9162 20 15.314 20 13.66H18ZM16.8321 16.7612C16.0958 17.5667 15.1173 18 14.1183 18V20C15.7086 20 17.2136 19.3081 18.3082 18.1107L16.8321 16.7612ZM14.1183 19.11C15.4928 19.11 16.7908 18.5119 17.7329 17.4814L16.2568 16.1319C15.673 16.7704 14.9016 17.11 14.1183 17.11V19.11ZM17.7329 17.4814C18.6723 16.4538 19.1864 15.0779 19.1864 13.66H17.1864C17.1864 14.6025 16.8433 15.4904 16.2568 16.1319L17.7329 17.4814ZM14.1183 9.32004C15.1173 9.32004 16.0958 9.75337 16.8321 10.5588L18.3082 9.20936C17.2136 8.01192 15.7086 7.32004 14.1183 7.32004V9.32004ZM16.8321 10.5588C17.5712 11.3673 18 12.4815 18 13.66H20C20 12.0061 19.4002 10.4038 18.3082 9.20936L16.8321 10.5588ZM19.1864 13.66C19.1864 12.2421 18.6723 10.8662 17.7329 9.83868L16.2568 11.1881C16.8433 11.8297 17.1864 12.7175 17.1864 13.66H19.1864ZM17.7329 9.83868C16.7908 8.80815 15.4928 8.21004 14.1183 8.21004V10.21C14.9016 10.21 15.673 10.5496 16.2568 11.1881L17.7329 9.83868Z" fill="#776CBF" mask="url(#path-1-inside-1_2227_8149)"/>
</svg>
