<svg width="19" height="17" viewBox="0 0 19 17" fill="none" xmlns="http://www.w3.org/2000/svg">
<path d="M10.3454 1.1064L12.0813 4.61897C12.1603 4.77833 12.2767 4.91615 12.4207 5.02057C12.5646 5.12499 12.7318 5.19292 12.9078 5.21849L16.787 5.78013C16.9897 5.80933 17.1802 5.89469 17.3369 6.02653C17.4936 6.15838 17.6103 6.33147 17.6737 6.52619C17.7372 6.7209 17.7448 6.92947 17.6959 7.12832C17.6469 7.32718 17.5433 7.50837 17.3967 7.65138L14.5884 10.3855C14.4613 10.5097 14.3662 10.6629 14.3112 10.8319C14.2562 11.0009 14.243 11.1807 14.2727 11.356L14.9347 15.2163C14.9696 15.4183 14.9471 15.626 14.87 15.8159C14.7928 16.0058 14.664 16.1703 14.4981 16.2907C14.3323 16.4111 14.136 16.4827 13.9316 16.4972C13.7271 16.5118 13.5227 16.4688 13.3414 16.3731L9.8725 14.5499C9.71544 14.4673 9.54065 14.4242 9.36321 14.4242C9.18577 14.4242 9.011 14.4673 8.85394 14.5499L5.38503 16.3731C5.20377 16.4688 4.99933 16.5118 4.79488 16.4972C4.59043 16.4827 4.39415 16.4111 4.22829 16.2907C4.06243 16.1703 3.93362 16.0058 3.85646 15.8159C3.77929 15.626 3.75687 15.4183 3.79171 15.2163L4.45522 11.356C4.48511 11.1806 4.47186 11.0006 4.41659 10.8315C4.36132 10.6624 4.26572 10.5093 4.13803 10.3855L1.33118 7.65138C1.18462 7.50846 1.08096 7.32738 1.03193 7.12864C0.982904 6.92989 0.990458 6.7214 1.05374 6.52672C1.11701 6.33204 1.23348 6.15896 1.39 6.02702C1.54651 5.89509 1.73683 5.80956 1.9394 5.78013L5.82009 5.21849C5.99601 5.19269 6.16307 5.12466 6.307 5.02026C6.45092 4.91586 6.56744 4.77818 6.64659 4.61897L8.38105 1.1064C8.47237 0.924144 8.61261 0.770912 8.78607 0.663812C8.95953 0.556712 9.15935 0.5 9.36321 0.5C9.56707 0.5 9.76691 0.556712 9.94037 0.663812C10.1138 0.770912 10.2541 0.924144 10.3454 1.1064Z" fill="#9E4EFF" stroke="#9E4EFF" stroke-miterlimit="10"/>
</svg>
