<svg width="36" height="36" viewBox="0 0 36 36" fill="none" xmlns="http://www.w3.org/2000/svg">
<rect width="36" height="36" rx="18" fill="#9E4EFF"/>
<path d="M19.3454 10.6064L21.0813 14.119C21.1603 14.2783 21.2767 14.4161 21.4207 14.5206C21.5646 14.625 21.7318 14.6929 21.9078 14.7185L25.787 15.2801C25.9897 15.3093 26.1802 15.3947 26.3369 15.5265C26.4936 15.6584 26.6103 15.8315 26.6737 16.0262C26.7372 16.2209 26.7448 16.4295 26.6959 16.6283C26.6469 16.8272 26.5433 17.0084 26.3967 17.1514L23.5884 19.8855C23.4613 20.0097 23.3662 20.1629 23.3112 20.3319C23.2562 20.5009 23.243 20.6807 23.2727 20.856L23.9347 24.7163C23.9696 24.9183 23.9471 25.126 23.87 25.3159C23.7928 25.5058 23.664 25.6703 23.4981 25.7907C23.3323 25.9111 23.136 25.9827 22.9316 25.9972C22.7271 26.0118 22.5227 25.9688 22.3414 25.8731L18.8725 24.0499C18.7154 23.9673 18.5407 23.9242 18.3632 23.9242C18.1858 23.9242 18.011 23.9673 17.8539 24.0499L14.385 25.8731C14.2038 25.9688 13.9993 26.0118 13.7949 25.9972C13.5904 25.9827 13.3941 25.9111 13.2283 25.7907C13.0624 25.6703 12.9336 25.5058 12.8565 25.3159C12.7793 25.126 12.7569 24.9183 12.7917 24.7163L13.4552 20.856C13.4851 20.6806 13.4719 20.5006 13.4166 20.3315C13.3613 20.1624 13.2657 20.0093 13.138 19.8855L10.3312 17.1514C10.1846 17.0085 10.081 16.8274 10.0319 16.6286C9.9829 16.4299 9.99046 16.2214 10.0537 16.0267C10.117 15.832 10.2335 15.659 10.39 15.527C10.5465 15.3951 10.7368 15.3096 10.9394 15.2801L14.8201 14.7185C14.996 14.6927 15.1631 14.6247 15.307 14.5203C15.4509 14.4159 15.5674 14.2782 15.6466 14.119L17.381 10.6064C17.4724 10.4241 17.6126 10.2709 17.7861 10.1638C17.9595 10.0567 18.1594 10 18.3632 10C18.5671 10 18.7669 10.0567 18.9404 10.1638C19.1138 10.2709 19.2541 10.4241 19.3454 10.6064Z" fill="white"/>
</svg>
