<svg width="16" height="16" viewBox="0 0 16 16" fill="none" xmlns="http://www.w3.org/2000/svg">
<path d="M13.8336 10H9.68164V10.3739C9.68164 10.724 8.92884 11.006 7.99936 11.006C7.9904 11.006 7.98272 11.006 7.97503 11.006C7.05836 11.0009 6.31836 10.7202 6.31836 10.3739V10H2.16644C2.07554 10 2 10.063 2 10.1372V13.8628C2 13.9383 2.07426 14 2.16644 14H13.8336C13.9245 14 14 13.937 14 13.8628V10.1372C14 10.0617 13.9245 10 13.8336 10Z" fill="#A5ADB7"/>
<path d="M13.8336 3.75787H10.2078C10.1246 2.75553 9.52929 2 8.78545 2H7.04684C6.30172 2 5.70767 2.75553 5.62445 3.75787H2.16644C2.07554 3.75787 2 3.8309 2 3.92157V8.8363C2 8.92571 2.07426 9 2.16644 9H6.31836V8.47742C6.31836 8.13114 7.05836 7.85033 7.97503 7.8453C7.984 7.8453 7.99168 7.8453 7.99936 7.8453C8.92756 7.8453 9.68164 8.12862 9.68164 8.47742V9H13.8336C13.9245 9 14 8.92697 14 8.8363V3.92031C14 3.8309 13.9245 3.75661 13.8336 3.75661V3.75787ZM7.97503 3.75787H6.29148C6.36317 3.09678 6.72165 2.65353 7.04684 2.65353H8.78545C9.11064 2.65353 9.46911 3.09678 9.54081 3.75787H7.97503Z" fill="#A5ADB7"/>
</svg>
