<svg width="65" height="28" viewBox="0 0 65 28" fill="none" xmlns="http://www.w3.org/2000/svg">
<rect width="65" height="28" rx="2" fill="#776CBF"/>
<path d="M10.9395 19V9.80859H14.2148C16.3477 9.80859 17.4014 11.0908 17.4014 12.792C17.4014 14.4805 16.3477 15.7754 14.2148 15.7754H12.3359V19H10.9395ZM12.3359 14.582H14.0752C15.4336 14.582 15.9922 13.8203 15.9922 12.792C15.9922 11.751 15.4336 11.002 14.0752 11.002H12.3359V14.582ZM18.874 19V9.80859H20.2705V17.7939H24.4219V19H18.874ZM27.1006 19H25.6152L28.916 9.80859H30.5283L33.8418 19H32.3564L31.5186 16.5752H27.9385L27.1006 19ZM28.3447 15.4072H31.1123L29.7539 11.4844H29.6904L28.3447 15.4072ZM33.3594 9.80859H34.9463L37.333 13.9727H37.4346L39.834 9.80859H41.4209L38.082 15.3945V19H36.6855V15.3945L33.3594 9.80859Z" fill="white"/>
<path d="M46.709 9.125L54.2923 14L46.709 18.875V9.125Z" fill="white"/>
</svg>
