<svg width="20" height="20" viewBox="0 0 20 20" fill="none" xmlns="http://www.w3.org/2000/svg">
<path fill-rule="evenodd" clip-rule="evenodd" d="M10 20C15.5228 20 20 15.5228 20 10C20 4.47715 15.5228 0 10 0C4.47715 0 0 4.47715 0 10C0 15.5228 4.47715 20 10 20ZM10 5C10.6628 5 11.2 5.44772 11.2 6V11C11.2 11.5523 10.6628 12 10 12C9.33731 12 8.80005 11.5523 8.80005 11V6C8.80005 5.44772 9.33731 5 10 5ZM10 15.4C10.6628 15.4 11.2 14.8627 11.2 14.2C11.2 13.5373 10.6628 13 10 13C9.33731 13 8.80005 13.5373 8.80005 14.2C8.80005 14.8627 9.33731 15.4 10 15.4Z" fill="#E22A21"/>
</svg>
