<svg width="40" height="40" viewBox="0 0 40 40" fill="none" xmlns="http://www.w3.org/2000/svg">
<g clip-path="url(#clip0_1780_7901)">
<rect width="40" height="40" rx="20" fill="#BA9FDC"/>
<g clip-path="url(#clip1_1780_7901)">
<path d="M28.3431 16.6806V13.4335C28.3431 13.4335 28.6063 9.6694 25.2403 9.36331H16.1567C16.1567 9.36331 11.772 9.5329 11.564 6.41406C11.564 6.41406 8.6819 12.7634 12.0861 15.51" fill="#4A4A4A"/>
<path d="M28.343 17.0938C28.1096 17.0938 27.9186 16.9077 27.9186 16.6802V13.4331C27.9271 13.2676 28.1096 10.0413 25.202 9.77653H16.1567C14.8154 9.8303 12.4384 9.42907 11.513 7.75797C10.8975 9.65243 10.0868 13.3586 12.3577 15.1911C12.5402 15.3358 12.5614 15.5964 12.4129 15.7743C12.2643 15.9522 11.9969 15.9728 11.8144 15.8281C8.20644 12.916 11.0546 6.51705 11.1777 6.24819C11.2583 6.07446 11.4494 5.97518 11.6404 6.00828C11.8314 6.04137 11.9757 6.19855 11.9884 6.38882C12.1667 9.0692 15.9784 8.95752 16.1397 8.95338H25.2402C28.2666 9.22639 28.8694 12.0226 28.7675 13.462V16.6802C28.7675 16.9077 28.5765 17.0938 28.343 17.0938Z" fill="#4A4A4A"/>
<path d="M30.4443 35.9351C30.4443 32.5929 27.664 29.8877 24.2386 29.8877H15.6305C12.2008 29.8877 9.4248 32.597 9.4248 35.9351V42.5823H30.4443V35.9351Z" fill="#D8F1FF"/>
<path d="M22 28.086V29.7826C22 31.006 21.105 32 20 32C18.895 32 18 31.006 18 29.7826V28" fill="white"/>
<path d="M30.5758 21.6069C30.5758 22.8147 29.5698 23.7951 28.3304 23.7951C27.0909 23.7951 26.085 22.8147 26.085 21.6069V21.1891C26.085 19.9813 27.0909 19.001 28.3304 19.001C29.5698 19.001 30.5758 19.9813 30.5758 21.1891V21.6069Z" fill="white"/>
<path d="M9.79395 21.6069C9.79395 22.8147 10.7999 23.7951 12.0394 23.7951C13.2788 23.7951 14.2848 22.8147 14.2848 21.6069V21.1891C14.2848 19.9813 13.2788 19.001 12.0394 19.001C10.7999 19.001 9.79395 19.9813 9.79395 21.1891V21.6069Z" fill="white"/>
<path d="M24.0431 13.3008C24.51 14.7444 25.3547 16.5272 28.0416 17.1187C28.0416 17.16 28.0458 17.2055 28.0458 17.2469V21.2716C28.0458 25.5404 24.4931 29.0025 20.1126 29.0025C15.7321 29.0025 12.1836 25.5445 12.1836 21.2757V15.7495C12.1836 15.7495 19.2722 15.6792 24.0474 13.3008H24.0431Z" fill="#FDFDFD"/>
<path d="M24.8542 20.465C24.8542 20.8414 24.5401 21.1475 24.1496 21.1475C23.7591 21.1475 23.4492 20.8414 23.4492 20.465C23.4492 20.0885 23.7633 19.7783 24.1496 19.7783C24.5358 19.7783 24.8542 20.0844 24.8542 20.465Z" fill="#4A4A4A"/>
<path d="M17.1413 20.465C17.1413 20.8414 16.823 21.1475 16.4409 21.1475C16.0589 21.1475 15.7363 20.8414 15.7363 20.465C15.7363 20.0885 16.0504 19.7783 16.4409 19.7783C16.8314 19.7783 17.1413 20.0844 17.1413 20.465Z" fill="#4A4A4A"/>
<path d="M20.427 25.8585C19.4719 25.8585 18.6188 25.4035 18.3131 24.721C18.241 24.5638 18.3131 24.3818 18.4744 24.3115C18.6357 24.2411 18.8225 24.3115 18.8947 24.4686C19.0984 24.9195 19.7266 25.2339 20.427 25.2339C21.1273 25.2339 21.7258 24.9361 21.9466 24.4935C22.023 24.3404 22.214 24.2742 22.371 24.3487C22.5281 24.4231 22.596 24.6093 22.5196 24.7623C22.197 25.4159 21.3566 25.8585 20.427 25.8585Z" fill="#4A4A4A"/>
<path d="M21.0762 23.149H20.0957C19.9217 23.149 19.7773 23.0083 19.7773 22.8388V20.4479C19.7773 20.2783 19.9217 20.1377 20.0957 20.1377C20.2697 20.1377 20.414 20.2783 20.414 20.4479V22.5285H21.0762C21.2502 22.5285 21.3946 22.6692 21.3946 22.8388C21.3946 23.0083 21.2502 23.149 21.0762 23.149Z" fill="#4A4A4A"/>
<path d="M18.8474 32.0879H21.1183L21.7592 33.2709L20.9018 34.8469H19.0893L18.2871 33.1592L18.8474 32.0879Z" fill="#9E4EFF"/>
<path d="M22.9899 28.8662L20.1035 31.9313L22.3277 34.8019L25.04 30.1444L22.9899 28.8662Z" fill="white"/>
<path d="M17.0352 28.8662L19.9258 31.9313L17.6973 34.8019L14.9893 30.1444L17.0352 28.8662Z" fill="white"/>
<path d="M19.1408 35.0039H20.9575L21.6536 41.0346L20.0491 44.9995L18.2324 40.9957L19.1408 35.0039Z" fill="#9E4EFF"/>
</g>
</g>
<defs>
<clipPath id="clip0_1780_7901">
<rect width="40" height="40" rx="20" fill="white"/>
</clipPath>
<clipPath id="clip1_1780_7901">
<rect width="22" height="37" fill="white" transform="translate(9 6)"/>
</clipPath>
</defs>
</svg>
