<svg width="40" height="40" viewBox="0 0 40 40" fill="none" xmlns="http://www.w3.org/2000/svg">
<g clip-path="url(#clip0_1780_7904)">
<rect width="40" height="40" rx="20" fill="#E097DD"/>
<g clip-path="url(#clip1_1780_7904)">
<path d="M30.2222 23.1948V16.2179C30.2222 10.8056 25.8987 6.41309 20.5626 6.41309C15.2264 6.41309 10.907 10.8015 10.907 16.2179V23.0998C9.98786 23.7191 9.40625 24.6355 9.40625 25.6594C9.40625 27.5212 11.33 29.0322 13.7053 29.0322C16.0805 29.0322 18.0043 27.5212 18.0043 25.6594C18.0043 25.5231 17.9921 25.391 17.9718 25.2631H23.0232C23.0029 25.3952 22.9907 25.5273 22.9907 25.6594C22.9907 27.5212 24.9145 29.0322 27.2897 29.0322C29.665 29.0322 31.5887 27.5212 31.5887 25.6594C31.5887 24.6851 31.06 23.8099 30.2181 23.1948H30.2222Z" fill="#4A4A4A"/>
<path d="M30.1051 34.2087C30.1051 31.0051 27.5469 28.4043 24.3867 28.4043H16.4597C13.2995 28.4043 10.7412 31.001 10.7412 34.2087V40.587H30.1011V34.2087H30.1051Z" fill="white"/>
<path d="M23 26.0952V28.0037C23 29.3862 21.8799 30.5 20.5 30.5C19.1201 30.5 18 29.3862 18 28.0037V26" fill="white"/>
<path d="M22.9794 16.2799C19.3881 15.5203 17.8791 13.5676 17.2447 12.0566C16.8176 13.4396 15.7601 15.5864 13.2873 16.1561C13.2873 16.1974 13.2832 16.2386 13.2832 16.2799V20.144C13.2832 24.2393 16.5532 27.5627 20.592 27.5627C24.6307 27.5627 27.9007 24.2435 27.9007 20.144V16.2799H22.9835H22.9794Z" fill="white"/>
<path d="M24.9516 19.3673C24.9516 19.7306 24.6628 20.0237 24.3049 20.0237C23.947 20.0237 23.6582 19.7306 23.6582 19.3673C23.6582 19.004 23.951 18.7109 24.3049 18.7109C24.6587 18.7109 24.9516 19.004 24.9516 19.3673Z" fill="#4A4A4A"/>
<path d="M17.85 19.3673C17.85 19.7306 17.5612 20.0237 17.2033 20.0237C16.8454 20.0237 16.5566 19.7306 16.5566 19.3673C16.5566 19.004 16.8454 18.7109 17.2033 18.7109C17.5612 18.7109 17.85 19.004 17.85 19.3673Z" fill="#4A4A4A"/>
<path d="M20.8767 24.5528C19.99 24.5528 19.2051 24.1111 18.9204 23.4547C18.8512 23.2978 18.9204 23.1161 19.0749 23.046C19.2295 22.9799 19.4084 23.046 19.4776 23.2028C19.6647 23.6322 20.2381 23.9336 20.8767 23.9336C21.5152 23.9336 22.0684 23.6446 22.2677 23.2276C22.3409 23.0749 22.5239 23.0088 22.6744 23.0831C22.8249 23.1574 22.89 23.3432 22.8168 23.496C22.5198 24.1276 21.7389 24.5528 20.8767 24.5528Z" fill="#4A4A4A"/>
<path d="M21.4746 21.9517H20.5716C20.4049 21.9517 20.2666 21.8113 20.2666 21.6421V19.3467C20.2666 19.1775 20.4049 19.0371 20.5716 19.0371C20.7384 19.0371 20.8767 19.1775 20.8767 19.3467V21.3325H21.4746C21.6413 21.3325 21.7796 21.4728 21.7796 21.6421C21.7796 21.8113 21.6413 21.9517 21.4746 21.9517Z" fill="#4A4A4A"/>
<path d="M23.239 27.4258L20.5791 30.3652L22.629 33.1188L25.1222 28.6519L23.239 27.4258Z" fill="#FF19F5"/>
<path d="M17.7523 27.4258L20.4122 30.3652L18.3623 33.1188L15.8691 28.6519L17.7523 27.4258Z" fill="#FF19F5"/>
<path d="M21.3239 33.9985C21.3239 34.4031 20.9985 34.7334 20.5999 34.7334C20.2014 34.7334 19.876 34.4031 19.876 33.9985C19.876 33.5939 20.2014 33.2637 20.5999 33.2637C20.9985 33.2637 21.3239 33.5939 21.3239 33.9985Z" fill="#FF19F5"/>
<path d="M21.3239 37.9741C21.3239 38.3787 20.9985 38.7089 20.5999 38.7089C20.2014 38.7089 19.876 38.3787 19.876 37.9741C19.876 37.5695 20.2014 37.2393 20.5999 37.2393C20.9985 37.2393 21.3239 37.5654 21.3239 37.9741Z" fill="#FF19F5"/>
</g>
</g>
<defs>
<clipPath id="clip0_1780_7904">
<rect width="40" height="40" rx="20" fill="white"/>
</clipPath>
<clipPath id="clip1_1780_7904">
<rect width="23" height="35" fill="white" transform="translate(9 6)"/>
</clipPath>
</defs>
</svg>
