<svg width="90" height="90" viewBox="0 0 90 90" fill="none" xmlns="http://www.w3.org/2000/svg">
<rect width="90" height="90" rx="30" fill="#36D27E"/>
<g clip-path="url(#clip0_36_2301)">
<mask id="mask0_36_2301" style="mask-type:luminance" maskUnits="userSpaceOnUse" x="25" y="25" width="40" height="40">
<path d="M25 25H65V65H25V25Z" fill="white"/>
</mask>
<g mask="url(#mask0_36_2301)">
<path fill-rule="evenodd" clip-rule="evenodd" d="M38.7873 33.7499H40.3398L41.4398 32.6499L44.1148 29.9749C44.2309 29.8585 44.3689 29.7661 44.5207 29.7031C44.6726 29.6401 44.8354 29.6077 44.9998 29.6077C45.1642 29.6077 45.3271 29.6401 45.4789 29.7031C45.6308 29.7661 45.7687 29.8585 45.8848 29.9749L48.5598 32.6499L49.6598 33.7499H54.9998C55.3314 33.7499 55.6493 33.8816 55.8837 34.116C56.1181 34.3504 56.2498 34.6684 56.2498 34.9999V40.3399L57.3498 41.4399L60.0248 44.1149C60.1412 44.231 60.2336 44.3689 60.2966 44.5208C60.3596 44.6727 60.3921 44.8355 60.3921 44.9999C60.3921 45.1643 60.3596 45.3271 60.2966 45.479C60.2336 45.6308 60.1412 45.7688 60.0248 45.8849L57.3498 48.5599L56.2498 49.6599V54.9999C56.2498 55.3314 56.1181 55.6494 55.8837 55.8838C55.6493 56.1182 55.3314 56.2499 54.9998 56.2499H49.6623L48.5623 57.3499L45.8848 60.0249C45.6504 60.2592 45.3325 60.3909 45.0011 60.3909C44.6696 60.3909 44.3517 60.2592 44.1173 60.0249L41.4373 57.3499L40.3398 56.2499H34.9998C34.6683 56.2499 34.3504 56.1182 34.1159 55.8838C33.8815 55.6494 33.7498 55.3314 33.7498 54.9999V49.6599L32.6498 48.5599L29.9748 45.8849C29.8584 45.7688 29.7661 45.6308 29.7031 45.479C29.64 45.3271 29.6076 45.1643 29.6076 44.9999C29.6076 44.8355 29.64 44.6727 29.7031 44.5208C29.7661 44.3689 29.8584 44.231 29.9748 44.1149L32.6498 41.4399L33.7498 40.3399V34.9999C33.7498 34.6684 33.8815 34.3504 34.1159 34.116C34.3504 33.8816 34.6683 33.7499 34.9998 33.7499H38.7873ZM48.5373 27.3224C48.073 26.8575 47.5215 26.4887 46.9145 26.2371C46.3075 25.9855 45.6569 25.856 44.9998 25.856C44.3428 25.856 43.6921 25.9855 43.0851 26.2371C42.4781 26.4887 41.9267 26.8575 41.4623 27.3224L38.7898 29.9999H34.9998C33.6737 29.9999 32.402 30.5267 31.4643 31.4644C30.5266 32.402 29.9998 33.6738 29.9998 34.9999V38.7874L27.3248 41.4624C26.8599 41.9268 26.4912 42.4782 26.2395 43.0852C25.9879 43.6922 25.8584 44.3428 25.8584 44.9999C25.8584 45.657 25.9879 46.3076 26.2395 46.9146C26.4912 47.5216 26.8599 48.073 27.3248 48.5374L29.9998 51.2099V54.9999C29.9998 56.326 30.5266 57.5977 31.4643 58.5354C32.402 59.4731 33.6737 59.9999 34.9998 59.9999H38.7873L41.4623 62.6774C41.9267 63.1423 42.4781 63.5111 43.0851 63.7627C43.6921 64.0143 44.3428 64.1438 44.9998 64.1438C45.6569 64.1438 46.3075 64.0143 46.9145 63.7627C47.5215 63.5111 48.073 63.1423 48.5373 62.6774L51.2098 59.9999H54.9998C56.3259 59.9999 57.5977 59.4731 58.5354 58.5354C59.473 57.5977 59.9998 56.326 59.9998 54.9999V51.2124L62.6773 48.5374C63.1422 48.073 63.511 47.5216 63.7626 46.9146C64.0143 46.3076 64.1438 45.657 64.1438 44.9999C64.1438 44.3428 64.0143 43.6922 63.7626 43.0852C63.511 42.4782 63.1422 41.9268 62.6773 41.4624L60.0023 38.7874V34.9999C60.0023 33.6738 59.4755 32.402 58.5379 31.4644C57.6002 30.5267 56.3284 29.9999 55.0023 29.9999H51.2123L48.5373 27.3224ZM52.7498 41.1249C53.0482 40.7271 53.1763 40.227 53.106 39.7347C53.0357 39.2424 52.7727 38.7983 52.3748 38.4999C51.977 38.2015 51.4769 38.0734 50.9847 38.1437C50.4924 38.2141 50.0482 38.4771 49.7498 38.8749L43.5498 47.1449L40.0748 43.6749C39.7194 43.3437 39.2493 43.1634 38.7635 43.172C38.2778 43.1805 37.8143 43.3773 37.4708 43.7208C37.1272 44.0644 36.9305 44.5278 36.9219 45.0136C36.9133 45.4993 37.0936 45.9695 37.4248 46.3249L42.4248 51.3249C42.6147 51.5147 42.8432 51.6616 43.0947 51.7555C43.3463 51.8494 43.6151 51.8882 43.883 51.8693C44.1508 51.8503 44.4115 51.774 44.6473 51.6456C44.8831 51.5172 45.0886 51.3396 45.2498 51.1249L52.7498 41.1249Z" fill="white"/>
</g>
</g>
<defs>
<clipPath id="clip0_36_2301">
<rect width="40" height="40" fill="white" transform="translate(25 25)"/>
</clipPath>
</defs>
</svg>
