<svg width="36" height="36" viewBox="0 0 36 36" fill="none" xmlns="http://www.w3.org/2000/svg">
<rect width="36" height="36" rx="18" fill="#9E4EFF"/>
<path d="M13.25 20.75H12.5C12.1022 20.75 11.7206 20.592 11.4393 20.3107C11.158 20.0294 11 19.6478 11 19.25V12.5C11 12.1022 11.158 11.7206 11.4393 11.4393C11.7206 11.158 12.1022 11 12.5 11H19.25C19.6478 11 20.0294 11.158 20.3107 11.4393C20.592 11.7206 20.75 12.1022 20.75 12.5V13.25M17.75 16.25H24.5C25.3284 16.25 26 16.9216 26 17.75V24.5C26 25.3284 25.3284 26 24.5 26H17.75C16.9216 26 16.25 25.3284 16.25 24.5V17.75C16.25 16.9216 16.9216 16.25 17.75 16.25Z" stroke="white" stroke-width="1.5" stroke-linecap="round" stroke-linejoin="round"/>
</svg>
