<svg width="32" height="32" viewBox="0 0 32 32" fill="none" xmlns="http://www.w3.org/2000/svg">
<path d="M19.1427 10.9999L10.7124 19.8216C10.4088 20.1342 10.2382 20.5581 10.2382 21.0001C10.2382 21.4421 10.4088 21.8661 10.7124 22.1786C11.0161 22.4912 11.4279 22.6668 11.8573 22.6668C12.2867 22.6668 12.6986 22.4912 13.0022 22.1786L23.0516 11.6902C23.3522 11.3807 23.5908 11.0132 23.7535 10.6088C23.9162 10.2044 24 9.77098 24 9.33325C24 8.89552 23.9162 8.46208 23.7535 8.05767C23.5908 7.65326 23.3522 7.28581 23.0515 6.97629C22.7509 6.66677 22.3939 6.42124 22.001 6.25373C21.6081 6.08622 21.187 6 20.7618 6C20.3365 6 19.9155 6.08622 19.5226 6.25373C19.1297 6.42124 18.7727 6.66677 18.472 6.97629L8.42267 17.4647C7.51175 18.4023 7 19.6741 7 21.0001C7 22.3262 7.51175 23.5979 8.42267 24.5356C9.3336 25.4732 10.5691 26 11.8573 26C13.1456 26 14.381 25.4732 15.292 24.5356L23.5952 15.9997" stroke="#666666" stroke-width="1.5" stroke-linecap="round" stroke-linejoin="round"/>
</svg>
