<svg width="20" height="21" viewBox="0 0 20 21" fill="none" xmlns="http://www.w3.org/2000/svg">
<path fill-rule="evenodd" clip-rule="evenodd" d="M5.64645 6.14652C5.84171 5.95126 6.15829 5.95126 6.35355 6.14652L14.3534 14.1464C14.5487 14.3416 14.5487 14.6582 14.3534 14.8535C14.1581 15.0487 13.8416 15.0487 13.6463 14.8535L5.64645 6.85363C5.45118 6.65837 5.45118 6.34178 5.64645 6.14652Z" fill="#121212"/>
<path fill-rule="evenodd" clip-rule="evenodd" d="M14.3535 6.14645C14.5487 6.34171 14.5487 6.65829 14.3535 6.85355L6.35363 14.8534C6.15837 15.0487 5.84179 15.0487 5.64653 14.8534C5.45126 14.6581 5.45126 14.3416 5.64653 14.1463L13.6464 6.14645C13.8416 5.95118 14.1582 5.95118 14.3535 6.14645Z" fill="#121212"/>
</svg>
