<svg width="32" height="32" viewBox="0 0 32 32" fill="none" xmlns="http://www.w3.org/2000/svg">
<path d="M6.66602 19.9993H5.33268C4.62544 19.9993 3.94716 19.7184 3.44706 19.2183C2.94697 18.7182 2.66602 18.0399 2.66602 17.3327V5.33268C2.66602 4.62544 2.94697 3.94716 3.44706 3.44706C3.94716 2.94697 4.62544 2.66602 5.33268 2.66602H17.3327C18.0399 2.66602 18.7182 2.94697 19.2183 3.44706C19.7184 3.94716 19.9993 4.62544 19.9993 5.33268V6.66602M14.666 11.9993H26.666C28.1388 11.9993 29.3327 13.1933 29.3327 14.666V26.666C29.3327 28.1388 28.1388 29.3327 26.666 29.3327H14.666C13.1933 29.3327 11.9993 28.1388 11.9993 26.666V14.666C11.9993 13.1933 13.1933 11.9993 14.666 11.9993Z" stroke="#333333" stroke-width="1.5" stroke-linecap="round" stroke-linejoin="round"/>
</svg>
