<svg width="20" height="20" viewBox="0 0 20 20" fill="none" xmlns="http://www.w3.org/2000/svg">
<path d="M2 4.6H3.8M3.8 4.6H18.2M3.8 4.6V17.2C3.8 17.6774 3.98964 18.1352 4.32721 18.4728C4.66477 18.8104 5.12261 19 5.6 19H14.6C15.0774 19 15.5352 18.8104 15.8728 18.4728C16.2104 18.1352 16.4 17.6774 16.4 17.2V4.6H3.8ZM6.5 4.6V2.8C6.5 2.32261 6.68964 1.86477 7.02721 1.52721C7.36477 1.18964 7.82261 1 8.3 1H11.9C12.3774 1 12.8352 1.18964 13.1728 1.52721C13.5104 1.86477 13.7 2.32261 13.7 2.8V4.6M8.3 9.1V14.5M11.9 9.1V14.5" stroke="#555555" stroke-linecap="round" stroke-linejoin="round"/>
</svg>
