<svg width="850" height="927" viewBox="0 0 850 927" fill="none" xmlns="http://www.w3.org/2000/svg">
<g opacity="0.1">
<path d="M1319.48 974.888L1192.54 866.875C1147.07 821.128 1122.06 760.486 1122.06 695.994C1122.06 631.502 1147.07 570.814 1192.54 525.113L1319.48 417.1C1319.85 416.775 1320.18 416.45 1320.55 416.126C1366.57 370.053 1391.95 308.855 1391.95 243.713C1391.95 178.572 1366.57 117.374 1320.55 71.301C1225.53 -23.767 1070.84 -23.767 975.82 71.301C975.495 71.6258 975.17 71.997 974.845 72.3218L866.833 199.265C772.462 293.126 619.445 293.126 525.074 199.265L417.062 72.3218C416.737 71.9506 416.412 71.6258 416.087 71.301C321.067 -23.7206 166.426 -23.7206 71.4048 71.3474C25.3327 117.374 0 178.618 0 243.713C0 308.809 25.3327 370.053 71.4048 416.126C71.7296 416.45 72.1008 416.775 72.472 417.1L199.414 525.113C244.883 570.861 269.891 631.502 269.891 695.994C269.891 760.486 244.883 821.174 199.414 866.875L72.472 974.888C72.1008 975.213 71.776 975.538 71.4048 975.863C25.3791 1021.89 0 1083.13 0 1148.27C0 1213.42 25.3327 1274.61 71.4048 1320.69C166.426 1415.76 321.113 1415.76 416.134 1320.69C416.459 1320.36 416.783 1319.99 417.108 1319.67L525.12 1192.72C619.492 1098.86 772.508 1098.86 866.88 1192.72L974.892 1319.67C975.217 1320.04 975.541 1320.36 975.866 1320.69C1023.38 1368.24 1085.78 1392 1148.23 1392C1210.63 1392 1273.08 1368.24 1320.6 1320.69C1366.62 1274.66 1392 1213.42 1392 1148.27C1392 1083.13 1366.62 1021.94 1320.6 975.863C1320.27 975.538 1319.9 975.213 1319.53 974.888H1319.48ZM268.221 900.374C252.585 925.707 244.233 954.891 244.233 985.42C244.233 1028.8 261.122 1069.59 291.79 1100.25C322.458 1130.92 363.241 1147.81 406.576 1147.81C437.059 1147.81 466.289 1139.41 491.575 1123.82L449.122 1173.7C418.361 1204.23 377.578 1221.03 334.197 1221.03C290.816 1221.03 249.615 1204.04 218.808 1173.19C155.337 1109.72 155.151 1006.53 218.297 942.828L268.174 900.374H268.221ZM218.344 449.068C155.198 385.364 155.383 282.177 218.854 218.705C249.662 187.851 290.677 170.87 334.243 170.87C377.81 170.87 418.407 187.665 449.168 218.195L491.622 268.072C466.289 252.436 437.105 244.085 406.622 244.085C363.241 244.085 322.459 260.973 291.837 291.642C237.645 345.834 229.897 429.07 268.406 491.614L218.39 449.021L218.344 449.068ZM1123.64 491.66C1162.15 429.071 1154.4 345.88 1100.21 291.688C1069.54 261.02 1028.76 244.131 985.378 244.131C954.895 244.131 925.665 252.529 900.378 268.118L942.832 218.241C973.593 187.712 1014.38 170.916 1057.76 170.916C1101.14 170.916 1142.34 187.897 1173.15 218.752C1236.62 282.223 1236.8 385.411 1173.61 449.114L1123.59 491.707L1123.64 491.66ZM827.118 994.7C826.793 994.329 826.468 994.004 826.143 993.679C754.367 921.903 637.586 921.903 565.81 993.679C565.486 994.004 565.161 994.375 564.836 994.7L495.89 1075.76C471.949 1099.46 440.26 1112.5 406.53 1112.5C372.799 1112.5 340.693 1099.28 316.705 1075.29C292.718 1051.3 279.495 1019.38 279.495 985.467C279.495 951.55 292.533 920.047 316.195 896.106L397.204 827.159C397.575 826.835 397.9 826.51 398.271 826.185C433.022 791.433 452.184 745.175 452.184 695.994C452.184 646.813 433.022 600.601 398.271 565.803C397.946 565.479 397.575 565.154 397.204 564.829L316.195 495.883C267.153 446.284 267.293 366.063 316.659 316.696C340.646 292.709 372.567 279.486 406.483 279.486C440.399 279.486 471.903 292.523 495.844 316.232L564.79 397.288C565.114 397.66 565.439 397.984 565.764 398.309C637.54 470.086 754.321 470.086 826.097 398.309C826.422 397.984 826.747 397.613 827.071 397.288L896.017 316.232C919.958 292.523 951.647 279.486 985.378 279.486C1019.11 279.486 1051.21 292.709 1075.2 316.696C1124.57 366.063 1124.71 446.33 1075.67 495.883L994.657 564.829C994.286 565.154 993.961 565.479 993.636 565.803C921.86 637.58 921.86 754.362 993.636 826.185C993.961 826.51 994.332 826.835 994.657 827.159L1075.67 896.106C1099.37 920.047 1112.37 951.736 1112.37 985.467C1112.37 1019.2 1099.14 1051.3 1075.16 1075.29C1051.17 1099.28 1019.25 1112.5 985.331 1112.5C951.415 1112.5 919.911 1099.46 895.971 1075.76L827.025 994.7H827.118ZM1018.13 800.666C960.787 742.763 960.787 649.133 1018.13 591.275L1043.93 569.329C1018.69 606.401 1005.1 650.154 1005.1 695.994C1005.1 741.835 1018.69 785.587 1043.93 822.659L1018.13 800.713V800.666ZM800.671 373.765C742.815 431.112 649.186 431.112 591.282 373.765L569.197 347.829C607.289 373.719 651.598 386.756 695.954 386.756C740.309 386.756 784.618 373.765 822.71 347.829L800.625 373.811L800.671 373.765ZM373.82 591.275C401.612 619.299 416.923 656.464 416.923 695.994C416.923 735.525 401.612 772.643 373.82 800.713L347.884 822.798C399.663 746.567 399.663 645.467 347.884 569.237L373.82 591.322V591.275ZM591.282 1018.18C649.139 960.83 742.768 960.83 800.671 1018.18L822.756 1044.11C746.526 992.287 645.427 992.287 569.197 1044.11L591.282 1018.13V1018.18ZM985.378 1147.81C1028.76 1147.81 1069.54 1130.92 1100.21 1100.25C1130.88 1069.59 1147.77 1028.8 1147.77 985.42C1147.77 954.937 1139.37 925.707 1123.78 900.374L1173.66 942.828C1236.8 1006.53 1236.62 1109.72 1173.15 1173.19C1142.34 1204.04 1101.32 1221.03 1057.76 1221.03C1014.19 1221.03 973.593 1204.23 942.832 1173.7L900.378 1123.82C925.711 1139.46 954.895 1147.81 985.378 1147.81ZM1164.98 889.053L1095.66 830.082C1060.03 794.171 1040.4 746.567 1040.4 695.948C1040.4 645.328 1060.03 597.725 1095.66 561.813L1164.98 502.842C1114.55 554.9 1086.75 623.29 1086.75 695.948C1086.75 768.606 1114.55 836.996 1164.98 889.053ZM1001.25 95.7988C1082.53 15.0211 1214.39 15.1603 1295.49 96.3092C1334.89 135.7 1356.55 188.037 1356.55 243.713C1356.55 299.39 1335.07 351.309 1296 390.654L1201.17 471.385C1275.45 393.716 1274.48 270.16 1198.11 193.79C1160.62 156.301 1110.74 135.608 1057.71 135.608C1004.68 135.608 957.679 155.141 920.607 190.681L1001.29 95.8452L1001.25 95.7988ZM889.058 226.871L830.041 296.235C755.945 369.821 635.916 369.821 561.82 296.235L502.803 226.871C610.259 330.94 781.602 330.94 889.011 226.871H889.058ZM35.308 243.713C35.308 188.037 56.9754 135.7 96.3664 96.3092C177.468 15.2067 309.328 15.0211 390.662 95.7988L471.346 190.635C434.229 155.141 385.744 135.561 334.243 135.561C282.743 135.561 231.335 156.208 193.846 193.743C117.477 270.113 116.503 393.669 190.784 471.338L95.9024 390.607C56.8362 351.309 35.3544 299.158 35.3544 243.713H35.308ZM226.927 502.842L296.244 561.86C369.83 635.956 369.83 755.986 296.244 830.129L226.927 889.146C277.361 837.088 305.152 768.699 305.152 696.041C305.152 623.382 277.361 554.993 226.927 502.935V502.842ZM390.616 1296.14C309.328 1376.92 177.422 1376.78 96.32 1295.63C56.929 1256.24 35.2617 1203.91 35.2617 1148.23C35.2617 1092.55 56.7434 1040.63 95.8096 1001.33L190.691 920.603C116.41 998.273 117.384 1121.83 193.753 1198.2C231.242 1235.69 281.119 1256.38 334.151 1256.38C387.182 1256.38 434.182 1236.85 471.253 1201.31L390.569 1296.14H390.616ZM502.803 1165.07L561.82 1095.71C635.916 1022.12 755.945 1022.12 830.041 1095.71L889.058 1165.07C781.649 1061 610.305 1060.96 502.85 1165.07H502.803ZM1295.49 1295.63C1214.39 1376.74 1082.53 1376.92 1001.25 1296.14L920.561 1201.31C957.679 1236.8 1006.16 1256.33 1057.66 1256.33C1109.16 1256.33 1160.57 1235.69 1198.06 1198.15C1274.43 1121.78 1275.4 998.226 1201.12 920.557L1295.96 1001.29C1335.02 1040.59 1356.51 1092.74 1356.51 1148.23C1356.51 1203.72 1334.84 1256.24 1295.45 1295.63H1295.49Z" fill="#BBBBBB"/>
</g>
<g opacity="0.1">
<path d="M301.3 229.959L286.071 217C280.616 211.512 277.615 204.237 277.615 196.499C277.615 188.762 280.616 181.481 286.071 175.998L301.3 163.04C301.344 163.001 301.383 162.962 301.428 162.923C306.95 157.396 309.994 150.054 309.994 142.239C309.994 134.423 306.95 127.081 301.428 121.554C290.028 110.149 271.47 110.149 260.07 121.554C260.031 121.593 259.992 121.638 259.953 121.677L246.995 136.906C235.673 148.167 217.316 148.167 205.994 136.906L193.035 121.677C192.996 121.632 192.958 121.593 192.919 121.554C181.519 110.154 162.966 110.154 151.567 121.56C146.039 127.081 143 134.429 143 142.239C143 150.048 146.039 157.396 151.567 162.923C151.605 162.962 151.65 163.001 151.695 163.04L166.924 175.998C172.379 181.487 175.379 188.762 175.379 196.499C175.379 204.237 172.379 211.517 166.924 217L151.695 229.959C151.65 229.998 151.611 230.037 151.567 230.075C146.045 235.597 143 242.945 143 250.76C143 258.575 146.039 265.917 151.567 271.445C162.966 282.85 181.524 282.85 192.924 271.445C192.963 271.406 193.002 271.361 193.041 271.322L205.999 256.093C217.321 244.832 235.679 244.832 247.001 256.093L259.959 271.322C259.998 271.367 260.037 271.406 260.076 271.445C265.776 277.15 273.262 280 280.755 280C288.241 280 295.734 277.15 301.433 271.445C306.955 265.923 310 258.575 310 250.76C310 242.945 306.955 235.603 301.433 230.075C301.395 230.037 301.35 229.998 301.305 229.959H301.3ZM175.179 221.019C173.303 224.058 172.301 227.559 172.301 231.222C172.301 236.427 174.327 241.319 178.006 244.999C181.686 248.678 186.579 250.704 191.777 250.704C195.435 250.704 198.941 249.697 201.975 247.827L196.882 253.81C193.191 257.473 188.299 259.488 183.094 259.488C177.89 259.488 172.947 257.451 169.251 253.749C161.636 246.134 161.614 233.755 169.189 226.112L175.173 221.019H175.179ZM169.195 166.875C161.619 159.233 161.642 146.853 169.256 139.238C172.952 135.537 177.873 133.499 183.1 133.499C188.326 133.499 193.197 135.514 196.887 139.177L201.98 145.161C198.941 143.285 195.44 142.283 191.783 142.283C186.579 142.283 181.686 144.309 178.012 147.989C171.511 154.49 170.581 164.476 175.201 171.98L169.201 166.87L169.195 166.875ZM277.805 171.985C282.425 164.476 281.495 154.496 274.994 147.994C271.314 144.315 266.421 142.289 261.217 142.289C257.56 142.289 254.053 143.296 251.02 145.166L256.113 139.183C259.803 135.52 264.696 133.505 269.9 133.505C275.105 133.505 280.048 135.542 283.744 139.244C291.358 146.859 291.381 159.238 283.799 166.881L277.799 171.991L277.805 171.985ZM242.23 232.335C242.191 232.291 242.152 232.252 242.113 232.213C233.502 223.602 219.492 223.602 210.881 232.213C210.842 232.252 210.803 232.296 210.764 232.335L202.493 242.06C199.62 244.904 195.819 246.468 191.772 246.468C187.725 246.468 183.873 244.882 180.996 242.004C178.118 239.126 176.531 235.297 176.531 231.228C176.531 227.159 178.095 223.379 180.934 220.507L190.653 212.235C190.698 212.196 190.737 212.157 190.781 212.118C194.95 207.949 197.249 202.4 197.249 196.499C197.249 190.599 194.95 185.055 190.781 180.88C190.742 180.841 190.698 180.802 190.653 180.763L180.934 172.492C175.051 166.541 175.067 156.917 180.99 150.994C183.868 148.117 187.697 146.53 191.766 146.53C195.835 146.53 199.615 148.094 202.487 150.939L210.759 160.663C210.797 160.708 210.836 160.747 210.875 160.786C219.486 169.397 233.497 169.397 242.108 160.786C242.147 160.747 242.186 160.702 242.225 160.663L250.496 150.939C253.369 148.094 257.17 146.53 261.217 146.53C265.264 146.53 269.116 148.117 271.993 150.994C277.916 156.917 277.933 166.547 272.049 172.492L262.33 180.763C262.286 180.802 262.247 180.841 262.208 180.88C253.597 189.491 253.597 203.502 262.208 212.118C262.247 212.157 262.291 212.196 262.33 212.235L272.049 220.507C274.893 223.379 276.452 227.181 276.452 231.228C276.452 235.274 274.866 239.126 271.988 242.004C269.11 244.882 265.28 246.468 261.211 246.468C257.142 246.468 253.363 244.904 250.491 242.06L242.219 232.335H242.23ZM265.147 209.057C258.267 202.11 258.267 190.877 265.147 183.936L268.242 181.303C265.214 185.751 263.583 191 263.583 196.499C263.583 201.999 265.214 207.248 268.242 211.695L265.147 209.063V209.057ZM239.058 157.841C232.116 164.721 220.884 164.721 213.937 157.841L211.287 154.729C215.857 157.835 221.173 159.4 226.494 159.4C231.816 159.4 237.132 157.841 241.702 154.729L239.052 157.847L239.058 157.841ZM187.848 183.936C191.182 187.298 193.019 191.757 193.019 196.499C193.019 201.242 191.182 205.695 187.848 209.063L184.736 211.712C190.948 202.567 190.948 190.438 184.736 181.292L187.848 183.942V183.936ZM213.937 235.152C220.878 228.272 232.111 228.272 239.058 235.152L241.707 238.264C232.562 232.046 220.433 232.046 211.287 238.264L213.937 235.146V235.152ZM261.217 250.704C266.421 250.704 271.314 248.678 274.994 244.999C278.673 241.319 280.699 236.427 280.699 231.222C280.699 227.565 279.692 224.058 277.821 221.019L283.805 226.112C291.381 233.755 291.358 246.134 283.744 253.749C280.048 257.451 275.127 259.488 269.9 259.488C264.674 259.488 259.803 257.473 256.113 253.81L251.02 247.827C254.059 249.702 257.56 250.704 261.217 250.704ZM282.764 219.661L274.448 212.586C270.173 208.278 267.819 202.567 267.819 196.494C267.819 190.421 270.173 184.71 274.448 180.401L282.764 173.327C276.714 179.572 273.379 187.777 273.379 196.494C273.379 205.211 276.714 213.415 282.764 219.661ZM263.121 124.493C272.873 114.802 288.692 114.819 298.422 124.554C303.148 129.28 305.747 135.559 305.747 142.239C305.747 148.918 303.17 155.147 298.483 159.867L287.106 169.553C296.017 160.235 295.901 145.411 286.738 136.249C282.241 131.752 276.257 129.269 269.895 129.269C263.533 129.269 257.894 131.612 253.446 135.876L263.126 124.499L263.121 124.493ZM249.661 140.218L242.581 148.54C233.692 157.368 219.292 157.368 210.402 148.54L203.322 140.218C216.213 152.703 236.77 152.703 249.656 140.218H249.661ZM147.236 142.239C147.236 135.559 149.835 129.28 154.561 124.554C164.291 114.824 180.11 114.802 189.868 124.493L199.548 135.871C195.095 131.612 189.278 129.263 183.1 129.263C176.921 129.263 170.754 131.74 166.256 136.244C157.094 145.406 156.977 160.229 165.889 169.547L154.506 159.862C149.819 155.147 147.242 148.89 147.242 142.239H147.236ZM170.225 173.327L178.541 180.407C187.369 189.296 187.369 203.697 178.541 212.592L170.225 219.672C176.275 213.427 179.61 205.222 179.61 196.505C179.61 187.788 176.275 179.583 170.225 173.338V173.327ZM189.863 268.5C180.11 278.191 164.286 278.174 154.556 268.439C149.83 263.713 147.23 257.434 147.23 250.754C147.23 244.075 149.808 237.846 154.494 233.131L165.877 223.446C156.966 232.764 157.083 247.587 166.245 256.749C170.742 261.247 176.726 263.73 183.088 263.73C189.451 263.73 195.089 261.386 199.537 257.122L189.857 268.5H189.863ZM203.322 252.775L210.402 244.453C219.292 235.625 233.692 235.625 242.581 244.453L249.661 252.775C236.775 240.29 216.219 240.284 203.328 252.775H203.322ZM298.422 268.439C288.692 278.169 272.873 278.191 263.121 268.5L253.441 257.122C257.894 261.381 263.711 263.724 269.889 263.724C276.068 263.724 282.235 261.247 286.733 256.744C295.895 247.582 296.012 232.758 287.1 223.44L298.478 233.126C303.165 237.841 305.742 244.097 305.742 250.754C305.742 257.412 303.142 263.713 298.417 268.439H298.422Z" fill="url(#paint0_linear_36_2301)"/>
</g>
<defs>
<linearGradient id="paint0_linear_36_2301" x1="226.494" y1="279.994" x2="226.494" y2="113.004" gradientUnits="userSpaceOnUse">
<stop stop-color="#FF19F5"/>
<stop offset="0.2" stop-color="#FA1BF5"/>
<stop offset="0.4" stop-color="#EE22F6"/>
<stop offset="0.61" stop-color="#D92DF8"/>
<stop offset="0.82" stop-color="#BC3DFB"/>
<stop offset="1" stop-color="#9E4EFF"/>
</linearGradient>
</defs>
</svg>
