<svg width="20" height="20" viewBox="0 0 20 20" fill="none" xmlns="http://www.w3.org/2000/svg">
<path fill-rule="evenodd" clip-rule="evenodd" d="M9.99991 17.619C12.0206 17.619 13.9585 16.8162 15.3874 15.3874C16.8162 13.9585 17.619 12.0206 17.619 9.99991C17.619 7.97921 16.8162 6.04128 15.3874 4.61243C13.9585 3.18358 12.0206 2.38086 9.99991 2.38086C7.97921 2.38086 6.04128 3.18358 4.61243 4.61243C3.18358 6.04128 2.38086 7.97921 2.38086 9.99991C2.38086 12.0206 3.18358 13.9585 4.61243 15.3874C6.04128 16.8162 7.97921 17.619 9.99991 17.619Z" stroke="#9E4EFF" stroke-width="0.952381" stroke-linecap="round" stroke-linejoin="round"/>
<path d="M7.61937 8.57175C8.14536 8.57175 8.57175 8.14536 8.57175 7.61937C8.57175 7.09339 8.14536 6.66699 7.61937 6.66699C7.09339 6.66699 6.66699 7.09339 6.66699 7.61937C6.66699 8.14536 7.09339 8.57175 7.61937 8.57175Z" fill="#9E4EFF"/>
<path d="M12.3811 8.57175C12.9071 8.57175 13.3335 8.14536 13.3335 7.61937C13.3335 7.09339 12.9071 6.66699 12.3811 6.66699C11.8551 6.66699 11.4287 7.09339 11.4287 7.61937C11.4287 8.14536 11.8551 8.57175 12.3811 8.57175Z" fill="#9E4EFF"/>
<path d="M7.2002 12H13.2002" stroke="#9E4EFF" stroke-linecap="round"/>
</svg>
