<svg width="20" height="20" viewBox="0 0 20 20" fill="none" xmlns="http://www.w3.org/2000/svg">
<path fill-rule="evenodd" clip-rule="evenodd" d="M10 17.619C12.0207 17.619 13.9587 16.8162 15.3875 15.3874C16.8164 13.9585 17.6191 12.0206 17.6191 9.99991C17.6191 7.97921 16.8164 6.04128 15.3875 4.61243C13.9587 3.18358 12.0207 2.38086 10 2.38086C7.97933 2.38086 6.0414 3.18358 4.61255 4.61243C3.1837 6.04128 2.38098 7.97921 2.38098 9.99991C2.38098 12.0206 3.1837 13.9585 4.61255 15.3874C6.0414 16.8162 7.97933 17.619 10 17.619Z" fill="#9E4EFF" stroke="#9E4EFF" stroke-width="0.952381" stroke-linecap="round" stroke-linejoin="round"/>
<path d="M8.09526 7.61888C8.09526 7.88188 7.88206 8.09508 7.61907 8.09508C7.35608 8.09508 7.14288 7.88188 7.14288 7.61888C7.14288 7.35589 7.35608 7.14269 7.61907 7.14269C7.88206 7.14269 8.09526 7.35589 8.09526 7.61888Z" fill="#9E4EFF" stroke="white" stroke-width="0.952381"/>
<path d="M12.8572 7.61888C12.8572 7.88188 12.644 8.09508 12.381 8.09508C12.118 8.09508 11.9048 7.88188 11.9048 7.61888C11.9048 7.35589 12.118 7.14269 12.381 7.14269C12.644 7.14269 12.8572 7.35589 12.8572 7.61888Z" fill="#9E4EFF" stroke="white" stroke-width="0.952381"/>
<path d="M7.20001 12H13.2" stroke="white" stroke-linecap="round"/>
</svg>
