<svg width="803" height="898" viewBox="0 0 803 898" fill="none" xmlns="http://www.w3.org/2000/svg">
<g opacity="0.1">
<path d="M1442.71 1065.93L1303.91 947.834C1254.2 897.813 1226.85 831.509 1226.85 760.994C1226.85 690.478 1254.2 624.123 1303.91 574.154L1442.71 456.053C1443.12 455.698 1443.47 455.343 1443.88 454.988C1494.2 404.613 1521.95 337.699 1521.95 266.474C1521.95 195.248 1494.2 128.335 1443.88 77.9599C1339.98 -25.9866 1170.85 -25.9866 1066.95 77.9599C1066.6 78.315 1066.24 78.7208 1065.89 79.076L947.788 217.874C844.603 320.502 677.296 320.502 574.111 217.874L456.012 79.076C455.656 78.6701 455.301 78.315 454.946 77.9599C351.051 -25.9359 181.968 -25.9359 78.0734 78.0106C27.6986 128.335 0 195.299 0 266.474C0 337.649 27.6986 404.613 78.0734 454.988C78.4285 455.343 78.8344 455.698 79.2402 456.053L218.037 574.154C267.753 624.174 295.096 690.478 295.096 760.994C295.096 831.509 267.753 897.864 218.037 947.834L79.2402 1065.93C78.8344 1066.29 78.4792 1066.64 78.0734 1067C27.7493 1117.32 0 1184.29 0 1255.51C0 1326.74 27.6986 1393.65 78.0734 1444.03C181.968 1547.97 351.102 1547.97 454.997 1444.03C455.352 1443.67 455.707 1443.27 456.062 1442.91L574.162 1304.11C677.346 1201.49 844.654 1201.49 947.838 1304.11L1065.94 1442.91C1066.29 1443.32 1066.65 1443.67 1067 1444.03C1118.95 1496.03 1187.18 1522 1255.46 1522C1323.7 1522 1391.98 1496.03 1443.93 1444.03C1494.25 1393.7 1522 1326.74 1522 1255.51C1522 1184.29 1494.25 1117.37 1443.93 1067C1443.57 1066.64 1443.17 1066.29 1442.76 1065.93H1442.71ZM293.27 984.461C276.174 1012.16 267.042 1044.07 267.042 1077.45C267.042 1124.88 285.508 1169.47 319.041 1203.01C352.573 1236.54 397.165 1255.01 444.547 1255.01C477.876 1255.01 509.836 1245.82 537.484 1228.78L491.066 1283.31C457.432 1316.69 412.84 1335.06 365.408 1335.06C317.975 1335.06 272.927 1316.49 239.242 1282.76C169.844 1213.36 169.641 1100.53 238.684 1030.88L293.219 984.461H293.27ZM238.735 491.007C169.692 421.354 169.895 308.529 239.293 239.13C272.978 205.395 317.823 186.827 365.459 186.827C413.094 186.827 457.483 205.192 491.117 238.572L537.535 293.107C509.836 276.011 477.927 266.88 444.597 266.88C397.165 266.88 352.573 285.346 319.091 318.878C259.839 378.131 251.367 469.142 293.473 537.526L238.786 490.956L238.735 491.007ZM1228.58 537.577C1270.68 469.142 1262.21 378.182 1202.96 318.929C1169.43 285.396 1124.84 266.931 1077.4 266.931C1044.07 266.931 1012.11 276.113 984.466 293.158L1030.88 238.623C1064.52 205.242 1109.11 186.878 1156.54 186.878C1203.97 186.878 1249.02 205.445 1282.71 239.181C1352.11 308.58 1352.31 421.405 1283.21 491.057L1228.53 537.628L1228.58 537.577ZM904.363 1087.6C904.008 1087.19 903.653 1086.83 903.298 1086.48C824.818 1008 697.131 1008 618.652 1086.48C618.297 1086.83 617.942 1087.24 617.586 1087.6L542.202 1176.22C516.025 1202.14 481.377 1216.4 444.496 1216.4C407.615 1216.4 372.51 1201.94 346.283 1175.71C320.055 1149.49 305.597 1114.58 305.597 1077.5C305.597 1040.42 319.852 1005.97 345.725 979.794L434.299 904.408C434.705 904.053 435.06 903.698 435.466 903.343C473.463 865.346 494.414 814.768 494.414 760.994C494.414 707.219 473.463 656.692 435.466 618.644C435.111 618.289 434.705 617.934 434.299 617.579L345.725 542.193C292.103 487.963 292.255 400.25 346.232 346.273C372.459 320.045 407.362 305.587 444.445 305.587C481.529 305.587 515.974 319.842 542.151 345.766L617.536 434.391C617.891 434.797 618.246 435.152 618.601 435.508C697.08 513.987 824.768 513.987 903.247 435.508C903.602 435.152 903.957 434.747 904.312 434.391L979.697 345.766C1005.87 319.842 1040.52 305.587 1077.4 305.587C1114.28 305.587 1149.39 320.045 1175.62 346.273C1229.59 400.25 1229.74 488.013 1176.12 542.193L1087.55 617.579C1087.14 617.934 1086.79 618.289 1086.43 618.644C1007.95 697.124 1007.95 824.812 1086.43 903.343C1086.79 903.698 1087.19 904.053 1087.55 904.408L1176.12 979.794C1202.05 1005.97 1216.25 1040.62 1216.25 1077.5C1216.25 1114.38 1201.79 1149.49 1175.57 1175.71C1149.34 1201.94 1114.44 1216.4 1077.35 1216.4C1040.27 1216.4 1005.82 1202.14 979.646 1176.22L904.261 1087.6H904.363ZM1113.22 875.441C1050.52 812.13 1050.52 709.756 1113.22 646.495L1141.42 622.5C1113.83 663.033 1098.96 710.872 1098.96 760.994C1098.96 811.115 1113.83 858.954 1141.42 899.488L1113.22 875.492V875.441ZM875.447 408.671C812.187 471.374 709.814 471.374 646.503 408.671L622.355 380.313C664.004 408.62 712.451 422.876 760.949 422.876C809.447 422.876 857.894 408.671 899.544 380.313L875.396 408.722L875.447 408.671ZM408.731 646.495C439.118 677.136 455.859 717.771 455.859 760.994C455.859 804.216 439.118 844.8 408.731 875.492L380.373 899.64C436.988 816.29 436.988 705.748 380.373 622.398L408.731 646.546V646.495ZM646.503 1113.27C709.763 1050.56 812.136 1050.56 875.447 1113.27L899.594 1141.62C816.245 1084.96 705.704 1084.96 622.355 1141.62L646.503 1113.21V1113.27ZM1077.4 1255.01C1124.84 1255.01 1169.43 1236.54 1202.96 1203.01C1236.49 1169.47 1254.96 1124.88 1254.96 1077.45C1254.96 1044.12 1245.78 1012.16 1228.73 984.461L1283.27 1030.88C1352.31 1100.53 1352.11 1213.36 1282.71 1282.76C1249.02 1316.49 1204.18 1335.06 1156.54 1335.06C1108.91 1335.06 1064.52 1316.69 1030.88 1283.31L984.466 1228.78C1012.16 1245.87 1044.07 1255.01 1077.4 1255.01ZM1273.78 972.083L1197.99 907.604C1159.03 868.339 1137.57 816.29 1137.57 760.943C1137.57 705.596 1159.03 653.547 1197.99 614.281L1273.78 549.803C1218.64 606.723 1188.25 681.499 1188.25 760.943C1188.25 840.387 1218.64 915.163 1273.78 972.083ZM1094.75 104.746C1183.63 16.424 1327.81 16.5761 1416.48 105.304C1459.55 148.374 1483.24 205.597 1483.24 266.474C1483.24 327.35 1459.75 384.118 1417.04 427.137L1313.35 515.408C1394.57 430.485 1393.5 295.39 1310 211.888C1269.01 170.898 1214.48 148.272 1156.49 148.272C1098.51 148.272 1047.12 169.63 1006.58 208.489L1094.8 104.796L1094.75 104.746ZM972.087 248.059L907.559 323.901C826.543 404.359 695.305 404.359 614.289 323.901L549.761 248.059C667.251 361.847 854.597 361.847 972.037 248.059H972.087ZM38.6055 266.474C38.6055 205.597 62.2964 148.374 105.366 105.304C194.042 16.6269 338.217 16.424 427.146 104.746L515.366 208.438C474.782 169.63 421.769 148.221 365.459 148.221C309.148 148.221 252.94 170.796 211.95 211.837C128.448 295.34 127.383 430.435 208.602 515.357L104.859 427.086C62.1442 384.118 38.6562 327.097 38.6562 266.474H38.6055ZM248.12 549.803L323.911 614.332C404.368 695.348 404.368 826.588 323.911 907.655L248.12 972.184C303.264 915.265 333.651 840.488 333.651 761.044C333.651 681.601 303.264 606.824 248.12 549.905V549.803ZM427.095 1417.19C338.217 1505.51 193.991 1505.36 105.315 1416.63C62.2457 1373.56 38.5548 1316.34 38.5548 1255.46C38.5548 1194.59 62.0427 1137.82 104.757 1094.85L208.5 1006.58C127.281 1091.5 128.347 1226.6 211.848 1310.1C252.838 1351.09 307.373 1373.71 365.357 1373.71C423.341 1373.71 474.731 1352.36 515.264 1313.5L427.045 1417.19H427.095ZM549.761 1273.88L614.289 1198.04C695.305 1117.58 826.543 1117.58 907.559 1198.04L972.087 1273.88C854.648 1160.09 667.302 1160.04 549.811 1273.88H549.761ZM1416.48 1416.63C1327.81 1505.31 1183.63 1505.51 1094.75 1417.19L1006.53 1313.5C1047.12 1352.31 1100.13 1373.66 1156.44 1373.66C1212.75 1373.66 1268.96 1351.09 1309.95 1310.05C1393.45 1226.55 1394.52 1091.45 1313.3 1006.53L1416.99 1094.8C1459.7 1137.77 1483.19 1194.79 1483.19 1255.46C1483.19 1316.14 1459.5 1373.56 1416.43 1416.63H1416.48Z" fill="white"/>
</g>
</svg>
