<svg width="90" height="90" viewBox="0 0 90 90" fill="none" xmlns="http://www.w3.org/2000/svg">
<rect width="90" height="90" rx="30" fill="#F9BE28"/>
<path fill-rule="evenodd" clip-rule="evenodd" d="M31.667 29.6665H58.3337C59.3945 29.6665 60.4119 30.0879 61.1621 30.8381C61.9122 31.5882 62.3337 32.6056 62.3337 33.6665V60.3332C62.3337 61.394 61.9122 62.4115 61.1621 63.1616C60.4119 63.9117 59.3945 64.3332 58.3337 64.3332H31.667C30.6061 64.3332 29.5887 63.9117 28.8386 63.1616C28.0884 62.4115 27.667 61.394 27.667 60.3332V33.6665C27.667 32.6056 28.0884 31.5882 28.8386 30.8381C29.5887 30.0879 30.6061 29.6665 31.667 29.6665ZM31.667 32.3332C31.3134 32.3332 30.9742 32.4736 30.7242 32.7237C30.4741 32.9737 30.3337 33.3129 30.3337 33.6665V49.3038L34.819 44.8185C34.9327 44.7045 35.0681 44.6145 35.2173 44.5539C35.3665 44.4934 35.5263 44.4634 35.6873 44.4659C35.8483 44.4684 36.0071 44.5033 36.1544 44.5684C36.3016 44.6336 36.4342 44.7277 36.5443 44.8452L45.9977 54.9732L53.4857 47.4852C53.7107 47.2605 54.0157 47.1342 54.3337 47.1342C54.6517 47.1342 54.9567 47.2605 55.1817 47.4852L59.667 51.9705V33.6665C59.667 33.3129 59.5265 32.9737 59.2765 32.7237C59.0264 32.4736 58.6873 32.3332 58.3337 32.3332H31.667ZM30.3337 60.3332V52.6958L35.6377 47.3945L45.083 57.5118L48.843 61.6665H31.667C31.3134 61.6665 30.9742 61.526 30.7242 61.276C30.4741 61.0259 30.3337 60.6868 30.3337 60.3332ZM58.3337 61.6665H52.0803L47.6217 56.7412L54.3337 50.0292L59.667 55.3625V60.3332C59.667 60.6868 59.5265 61.0259 59.2765 61.276C59.0264 61.526 58.6873 61.6665 58.3337 61.6665ZM42.7337 41.6665C42.7337 41.0653 42.9725 40.4888 43.3976 40.0637C43.8226 39.6386 44.3992 39.3998 45.0003 39.3998C45.6015 39.3998 46.178 39.6386 46.6031 40.0637C47.0282 40.4888 47.267 41.0653 47.267 41.6665C47.267 42.2677 47.0282 42.8442 46.6031 43.2693C46.178 43.6944 45.6015 43.9332 45.0003 43.9332C44.3992 43.9332 43.8226 43.6944 43.3976 43.2693C42.9725 42.8442 42.7337 42.2677 42.7337 41.6665ZM45.0003 36.9998C44.3875 36.9998 43.7807 37.1205 43.2145 37.3551C42.6483 37.5896 42.1338 37.9333 41.7005 38.3667C41.2672 38.8 40.9234 39.3145 40.6889 39.8806C40.4544 40.4468 40.3337 41.0537 40.3337 41.6665C40.3337 42.2793 40.4544 42.8862 40.6889 43.4524C40.9234 44.0185 41.2672 44.533 41.7005 44.9663C42.1338 45.3997 42.6483 45.7434 43.2145 45.9779C43.7807 46.2125 44.3875 46.3332 45.0003 46.3332C46.238 46.3332 47.425 45.8415 48.3002 44.9663C49.1753 44.0912 49.667 42.9042 49.667 41.6665C49.667 40.4288 49.1753 39.2418 48.3002 38.3667C47.425 37.4915 46.238 36.9998 45.0003 36.9998Z" fill="white" stroke="white"/>
</svg>
