<svg width="20" height="20" viewBox="0 0 20 20" fill="none" xmlns="http://www.w3.org/2000/svg">
<circle cx="10" cy="10" r="9.25" fill="white" stroke="#C5C5C5" stroke-width="1.5"/>
<path d="M7.737 13.55C7.70033 13.55 7.66733 13.5353 7.638 13.506C7.616 13.484 7.605 13.451 7.605 13.407V12.549C7.605 12.5123 7.616 12.483 7.638 12.461C7.66733 12.4317 7.70033 12.417 7.737 12.417H9.233V9.029H7.935C7.89833 9.029 7.86533 9.018 7.836 8.996C7.814 8.96667 7.803 8.93 7.803 8.886V8.028C7.803 7.99133 7.814 7.962 7.836 7.94C7.86533 7.91067 7.89833 7.896 7.935 7.896H10.289C10.3257 7.896 10.355 7.91067 10.377 7.94C10.4063 7.962 10.421 7.99133 10.421 8.028V12.417H11.774C11.8107 12.417 11.84 12.4317 11.862 12.461C11.8913 12.483 11.906 12.5123 11.906 12.549V13.407C11.906 13.5023 11.862 13.55 11.774 13.55H7.737ZM9.673 7.027C9.43833 7.027 9.24033 6.94633 9.079 6.785C8.91767 6.62367 8.837 6.42933 8.837 6.202C8.837 5.96 8.91767 5.75833 9.079 5.597C9.24033 5.42833 9.43833 5.344 9.673 5.344C9.915 5.344 10.1167 5.42833 10.278 5.597C10.4467 5.75833 10.531 5.96 10.531 6.202C10.531 6.42933 10.4467 6.62367 10.278 6.785C10.1167 6.94633 9.915 7.027 9.673 7.027Z" fill="#868686"/>
</svg>
