<svg width="40" height="41" viewBox="0 0 40 41" fill="none" xmlns="http://www.w3.org/2000/svg">
<path d="M6.02565 33.833C5.25898 33.833 4.61898 33.5763 4.10565 33.063C3.59232 32.5497 3.3351 31.9091 3.33398 31.1413V11.5247C3.33398 10.758 3.59121 10.118 4.10565 9.60467C4.6201 9.09134 5.2601 8.83412 6.02565 8.83301H33.9757C34.7423 8.83301 35.3823 9.09023 35.8957 9.60467C36.409 10.1191 36.6662 10.7591 36.6673 11.5247V31.1413C36.6673 31.908 36.4107 32.548 35.8973 33.0613C35.384 33.5747 34.7434 33.8319 33.9757 33.833H6.02565ZM6.02565 32.1663H33.9757C34.2312 32.1663 34.4662 32.0597 34.6807 31.8463C34.8951 31.633 35.0018 31.398 35.0007 31.1413V11.5247C35.0007 11.2691 34.894 11.0341 34.6807 10.8197C34.4673 10.6052 34.2323 10.4986 33.9757 10.4997H6.02565C5.7701 10.4997 5.5351 10.6063 5.32065 10.8197C5.10621 11.033 4.99954 11.268 5.00065 11.5247V31.1413C5.00065 31.3969 5.10732 31.6319 5.32065 31.8463C5.53398 32.0608 5.76898 32.1675 6.02565 32.1663ZM13.5257 28.6413H26.4757V27.358H13.5257V28.6413ZM8.71898 23.448H11.2823V20.8847H8.71898V23.448ZM15.3857 23.448H17.949V20.8847H15.3857V23.448ZM22.0523 23.448H24.6157V20.8847H22.0523V23.448ZM28.719 23.448H31.2823V20.8847H28.719V23.448ZM8.71898 16.7813H11.2823V14.218H8.71898V16.7813ZM15.3857 16.7813H17.949V14.218H15.3857V16.7813ZM22.0523 16.7813H24.6157V14.218H22.0523V16.7813ZM28.719 16.7813H31.2823V14.218H28.719V16.7813Z" fill="#AAAAAA"/>
</svg>
