<svg width="16" height="16" viewBox="0 0 16 16" fill="none" xmlns="http://www.w3.org/2000/svg">
<g opacity="0.8">
<path d="M5.03711 7.2V4.925C5.03711 3.30957 6.36304 2 7.99865 2C9.63426 2 10.9602 3.30957 10.9602 4.925V7.2" stroke="#8F99A5" stroke-width="1.2"/>
<path fill-rule="evenodd" clip-rule="evenodd" d="M13.5 7.33398C13.5 6.7817 13.0523 6.33398 12.5 6.33398H3.5C2.94772 6.33398 2.5 6.7817 2.5 7.33398V14.0007C2.5 14.5529 2.94771 15.0007 3.5 15.0007H12.5C13.0523 15.0007 13.5 14.5529 13.5 14.0007V7.33398ZM8.6 10.2344C8.6 9.903 8.33137 9.63438 8 9.63438C7.66863 9.63438 7.4 9.903 7.4 10.2344V11.9677C7.4 12.2991 7.66863 12.5677 8 12.5677C8.33137 12.5677 8.6 12.2991 8.6 11.9677V10.2344Z" fill="#8F99A5"/>
</g>
</svg>
