<svg width="139" height="28" viewBox="0 0 139 28" fill="none" xmlns="http://www.w3.org/2000/svg">
<g clip-path="url(#clip0_3588_7190)">
<path d="M34.1372 7C36.0937 7 37.6798 5.433 37.6798 3.5C37.6798 1.567 36.0937 0 34.1372 0C32.1808 0 30.5947 1.567 30.5947 3.5C30.5947 5.433 32.1808 7 34.1372 7Z" fill="url(#paint0_linear_3588_7190)"/>
<path d="M34.1369 9.33398C35.876 9.33398 37.2855 10.7265 37.2855 12.4448V24.8889C37.2855 26.6072 35.876 27.9997 34.1369 27.9997C32.3977 27.9997 30.9883 26.6072 30.9883 24.8889V12.4448C30.9883 10.7265 32.3977 9.33398 34.1369 9.33398Z" fill="url(#paint1_linear_3588_7190)"/>
<path d="M25.9293 21.1971C24.5152 19.7999 24.5152 17.5347 25.9293 16.1375L27.7044 14.6451C28.9343 13.4299 28.9343 11.4606 27.7044 10.2454C26.4744 9.03018 24.4812 9.03018 23.2512 10.2454L21.7407 11.9991C20.3265 13.3963 18.0338 13.3963 16.6196 11.9991L15.1091 10.2454C13.8791 9.03018 11.8858 9.03018 10.6559 10.2454C9.42591 11.4606 9.42591 13.4299 10.6559 14.6451L12.4309 16.1375C13.8451 17.5347 13.8451 19.7999 12.4309 21.1971L10.6559 22.6895C9.42591 23.9047 9.42591 25.8741 10.6559 27.0893C11.8858 28.3045 13.8791 28.3045 15.1091 27.0893L16.6196 25.3355C18.0338 23.9383 20.3265 23.9383 21.7407 25.3355L23.2512 27.0893C24.4812 28.3045 26.4744 28.3045 27.7044 27.0893C28.9343 25.8741 28.9343 23.9047 27.7044 22.6895L25.9293 21.1971Z" fill="url(#paint2_linear_3588_7190)"/>
<path d="M4.22221 7C6.17869 7 7.76473 5.433 7.76473 3.5C7.76473 1.567 6.17869 0 4.22221 0C2.26573 0 0.679688 1.567 0.679688 3.5C0.679688 5.433 2.26573 7 4.22221 7Z" fill="url(#paint3_linear_3588_7190)"/>
<path d="M4.22184 9.33398C2.48269 9.33398 1.07324 10.7265 1.07324 12.4448V24.8889C1.07324 26.6072 2.48269 27.9997 4.22184 27.9997C5.96098 27.9997 7.37043 26.6072 7.37043 24.8889V12.4448C7.37043 10.7265 5.96098 9.33398 4.22184 9.33398Z" fill="url(#paint4_linear_3588_7190)"/>
</g>
<rect x="42.6797" y="12.5" width="10" height="3" rx="1.5" fill="#333333"/>
<path d="M130.677 10.3613C134.961 10.3613 138.321 13.6093 138.321 17.6973C138.321 21.7853 134.961 25.0333 130.677 25.0333C126.393 25.0333 123.061 21.8133 123.061 17.6973C123.061 13.5813 126.393 10.3613 130.677 10.3613ZM130.705 14.7853C129.109 14.7853 127.989 15.9613 127.989 17.6973C127.989 19.4333 129.081 20.6093 130.705 20.6093C132.273 20.6093 133.393 19.3773 133.393 17.6973C133.393 16.0173 132.245 14.7853 130.705 14.7853Z" fill="#333333"/>
<path d="M119.024 2.96875C120.592 2.96875 121.908 4.17275 121.908 5.74075C121.908 7.28075 120.592 8.48475 119.024 8.48475C117.456 8.48475 116.168 7.28075 116.168 5.74075C116.168 4.17275 117.456 2.96875 119.024 2.96875ZM119.052 25.0328C117.68 25.0328 116.644 23.9967 116.644 22.5968V12.7968C116.644 11.3967 117.652 10.3608 119.052 10.3608C120.424 10.3608 121.46 11.3967 121.46 12.7968V22.5968C121.46 23.9967 120.452 25.0328 119.052 25.0328Z" fill="#333333"/>
<path d="M111.941 3.36133C113.313 3.36133 114.349 4.39733 114.349 5.79733V22.6253C114.349 23.9973 113.369 25.0333 112.025 25.0333C110.961 25.0333 110.121 24.3893 109.813 23.4373C108.917 24.4733 107.629 25.0333 105.949 25.0333C102.029 25.0333 99.2295 22.0093 99.2295 17.7253C99.2295 13.4413 102.029 10.3613 105.949 10.3613C107.461 10.3613 108.665 10.8093 109.533 11.6493V5.79733C109.533 4.39733 110.541 3.36133 111.941 3.36133ZM106.901 20.6653C108.525 20.6653 109.617 19.4613 109.617 17.7253C109.617 15.9613 108.497 14.7293 106.901 14.7293C105.305 14.7293 104.157 15.9613 104.157 17.6973C104.157 19.4613 105.277 20.6653 106.901 20.6653Z" fill="#333333"/>
<path d="M90.9196 25.0333C86.8596 25.0333 84.0596 22.2333 84.0596 18.1733V12.7973C84.0596 11.3973 85.0956 10.3613 86.4676 10.3613C87.8396 10.3613 88.8756 11.3973 88.8756 12.7973V18.5653C88.8756 19.7413 89.7436 20.6093 90.9196 20.6093C92.0956 20.6093 92.9356 19.7413 92.9356 18.5653V12.7973C92.9356 11.3973 93.9436 10.3613 95.3436 10.3613C96.7156 10.3613 97.7516 11.3973 97.7516 12.7973V18.1733C97.7516 22.2333 94.9516 25.0333 90.9196 25.0333Z" fill="#333333"/>
<path d="M80.7427 20.72C82.0307 20.72 82.8707 21.504 82.8707 22.708C82.8707 23.548 82.4507 24.22 81.8067 24.556C81.2187 24.864 80.5747 25.032 79.7067 25.032C75.7027 25.032 73.5467 23.044 73.5467 19.348V14.728H73.1547C72.0067 14.728 71.1387 13.86 71.1387 12.712C71.1387 11.536 72.0067 10.696 73.1547 10.696H73.5467V9.436C73.5467 8.036 74.5547 7 75.9547 7C77.3267 7 78.3627 8.036 78.3627 9.436V10.696H80.3787C81.5547 10.696 82.3947 11.536 82.3947 12.712C82.3947 13.86 81.5547 14.728 80.3787 14.728H78.3627V18.872C78.3627 20.216 79.0067 20.72 80.6307 20.72H80.7427Z" fill="#333333"/>
<path d="M64.4557 25.0332C62.4117 25.0332 59.9757 24.2212 58.6597 22.9892C58.0437 22.4012 57.6797 21.7572 57.6797 21.0292C57.7077 19.7412 58.7437 18.9012 59.8357 18.9012C60.1997 18.9012 60.5917 19.0132 60.9277 19.2372C61.3477 19.5172 62.5237 20.8052 64.4557 20.8052C65.7437 20.8052 66.3597 20.3572 66.3597 19.4612C66.3597 18.5932 65.7717 18.3132 64.4837 17.7532L62.5797 16.9132C59.6397 15.6252 57.9037 13.9452 57.9037 11.3412C57.9037 8.03722 60.7037 5.88122 64.3717 5.88122C67.6197 5.85322 69.1877 7.47722 69.6357 8.00922C70.0557 8.48522 70.1957 8.98922 70.1957 9.43722C70.1957 10.6692 69.1037 11.5932 68.0397 11.5932C67.6477 11.5932 67.2277 11.4812 66.8077 11.1732C66.1917 10.7532 65.6597 10.1092 64.4277 10.1092C63.4757 10.1092 62.7757 10.4452 62.7757 11.2852C62.7757 11.9852 63.2237 12.3212 64.3717 12.7972L66.4997 13.6932C69.5797 14.9812 71.2317 16.5492 71.2317 19.2652C71.2317 22.9052 68.2637 25.0332 64.4557 25.0332Z" fill="#333333"/>
<defs>
<linearGradient id="paint0_linear_3588_7190" x1="34.1372" y1="28.0093" x2="34.1372" y2="9.31" gradientUnits="userSpaceOnUse">
<stop stop-color="#FF19F5"/>
<stop offset="0.2" stop-color="#FA1BF5"/>
<stop offset="0.4" stop-color="#EE22F6"/>
<stop offset="0.61" stop-color="#D92DF8"/>
<stop offset="0.82" stop-color="#BC3DFB"/>
<stop offset="1" stop-color="#9E4EFF"/>
</linearGradient>
<linearGradient id="paint1_linear_3588_7190" x1="34.1369" y1="28.0007" x2="34.1369" y2="9.30038" gradientUnits="userSpaceOnUse">
<stop stop-color="#FF19F5"/>
<stop offset="0.2" stop-color="#FA1BF5"/>
<stop offset="0.4" stop-color="#EE22F6"/>
<stop offset="0.61" stop-color="#D92DF8"/>
<stop offset="0.82" stop-color="#BC3DFB"/>
<stop offset="1" stop-color="#9E4EFF"/>
</linearGradient>
<linearGradient id="paint2_linear_3588_7190" x1="19.1797" y1="28.0002" x2="19.1797" y2="9.29992" gradientUnits="userSpaceOnUse">
<stop stop-color="#FF19F5"/>
<stop offset="0.2" stop-color="#FA1BF5"/>
<stop offset="0.4" stop-color="#EE22F6"/>
<stop offset="0.61" stop-color="#D92DF8"/>
<stop offset="0.82" stop-color="#BC3DFB"/>
<stop offset="1" stop-color="#9E4EFF"/>
</linearGradient>
<linearGradient id="paint3_linear_3588_7190" x1="4.22221" y1="28.0093" x2="4.22221" y2="9.31" gradientUnits="userSpaceOnUse">
<stop stop-color="#FF19F5"/>
<stop offset="0.2" stop-color="#FA1BF5"/>
<stop offset="0.4" stop-color="#EE22F6"/>
<stop offset="0.61" stop-color="#D92DF8"/>
<stop offset="0.82" stop-color="#BC3DFB"/>
<stop offset="1" stop-color="#9E4EFF"/>
</linearGradient>
<linearGradient id="paint4_linear_3588_7190" x1="4.22184" y1="28.0007" x2="4.22184" y2="9.30038" gradientUnits="userSpaceOnUse">
<stop stop-color="#FF19F5"/>
<stop offset="0.2" stop-color="#FA1BF5"/>
<stop offset="0.4" stop-color="#EE22F6"/>
<stop offset="0.61" stop-color="#D92DF8"/>
<stop offset="0.82" stop-color="#BC3DFB"/>
<stop offset="1" stop-color="#9E4EFF"/>
</linearGradient>
<clipPath id="clip0_3588_7190">
<rect width="37" height="28" fill="white" transform="translate(0.679688)"/>
</clipPath>
</defs>
</svg>
