<svg width="104" height="28" viewBox="0 0 104 28" fill="none" xmlns="http://www.w3.org/2000/svg">
<g clip-path="url(#clip0_253_514)">
<path d="M13.9598 0C6.25333 0 0.00195312 6.26953 0.00195312 14.0016C0.00195312 21.7337 6.25333 28 13.9598 28C21.6663 28 27.9209 21.724 27.9209 14.0016C27.9209 6.27928 21.6695 0 13.9598 0Z" fill="#C40452"/>
<path d="M25.685 13.4427V14.005C25.685 20.4922 20.4382 25.7607 13.9568 25.7607C7.47531 25.7607 2.23828 20.4922 2.23828 14.0017C2.23828 7.51116 7.49151 2.24268 13.96 2.24268H14.5207V3.36723H13.96C8.11373 3.36723 3.35309 8.12544 3.35309 14.005C3.35309 19.8845 8.11373 24.6427 13.96 24.6427C19.8063 24.6427 24.2655 20.1802 24.5669 14.5607H17.3174V13.4427H25.6882H25.685ZM13.3929 7.83943V20.1607H17.3142V19.0329H14.5174V7.83943H13.3896H13.3929ZM7.82206 9.51975C7.82206 10.4558 8.57716 11.2001 9.49752 11.2001C10.4179 11.2001 11.1665 10.4558 11.1665 9.51975C11.1665 8.58371 10.4179 7.83943 9.49752 7.83943C8.57716 7.83943 7.82206 8.59021 7.82206 9.51975Z" fill="white"/>
<path d="M39.3548 5.60318H34.8955V22.3999H47.0061V18.7338H39.358V5.60318H39.3548ZM56.3816 15.8834H59.7746C59.7746 15.8834 59.8038 19.6178 56.307 19.6178C55.4094 19.6178 54.6218 19.296 54.0093 18.6883C53.0663 17.736 52.5672 16.1304 52.5672 14.0471C52.5672 10.6084 53.9283 8.55106 56.2131 8.55106C57.639 8.55106 58.7149 9.42535 58.9968 10.7547H63.7056C63.4561 8.81758 62.9278 7.81003 61.6316 6.78623C60.2542 5.70719 58.4589 5.16116 56.3168 5.16116C53.7987 5.16116 51.6793 5.9412 50.208 7.41351C48.6654 8.95083 47.8487 11.2292 47.8487 13.9788C47.8487 16.9267 48.7237 19.3968 50.2793 20.9666C51.5107 22.1919 53.1246 22.842 55.001 22.842C59.1005 22.842 60.0501 20.3783 60.0501 20.3783V22.3967H63.7445V12.9063H56.3783V15.8834H56.3816ZM98.3523 5.60318V0.896973H94.5736V5.60318H89.8875V9.39935H94.5736V14.0958H98.3523V9.39935H103.038V5.60318H98.3523ZM82.2815 15.3179C82.2815 17.6612 81.7922 19.218 79.3746 19.218C77.4593 19.218 76.5681 18.0545 76.5681 15.5519V5.60318H72.1315V15.8834C72.1315 20.3621 74.7274 22.8257 79.4264 22.8257C84.1255 22.8257 86.731 20.4108 86.731 15.8314V5.59993H82.2815V15.3146V15.3179Z" fill="white"/>
</g>
<defs>
<clipPath id="clip0_253_514">
<rect width="103.04" height="28" fill="white"/>
</clipPath>
</defs>
</svg>
