<svg width="24" height="24" viewBox="0 0 24 24" fill="none" xmlns="http://www.w3.org/2000/svg">
<path d="M3 3C3 2.44772 3.44772 2 4 2H12C12.5523 2 13 2.44772 13 3C13 3.55228 12.5523 4 12 4H5V20H12C12.5523 20 13 20.4477 13 21C13 21.5523 12.5523 22 12 22H4C3.44772 22 3 21.5523 3 21V3Z" fill="white"/>
<path d="M20.7071 12.7071L16.7071 16.7071C16.3166 17.0976 15.6834 17.0976 15.2929 16.7071C14.9023 16.3166 14.9023 15.6834 15.2929 15.2929L17.5858 13H9.59998C9.04769 13 8.59998 12.5523 8.59998 12C8.59998 11.4477 9.04769 11 9.59998 11H17.5858L15.2929 8.70711C14.9023 8.31658 14.9023 7.68342 15.2929 7.29289C15.6834 6.90237 16.3166 6.90237 16.7071 7.29289L20.7071 11.2929C21.0976 11.6834 21.0976 12.3166 20.7071 12.7071Z" fill="white"/>
</svg>
