<svg width="635" height="160" viewBox="0 0 635 160" fill="none" xmlns="http://www.w3.org/2000/svg">
<path d="M9.152 49.768C6.656 49.768 4.8 47.848 4.8 45.288V10.472C4.8 7.912 6.592 5.992 9.152 5.992C11.648 5.992 13.44 7.912 13.44 10.472V22.952H32.128V10.408C32.128 7.848 33.92 5.992 36.48 5.992C38.976 5.992 40.768 7.848 40.768 10.408V45.288C40.768 47.848 38.912 49.768 36.48 49.768C33.984 49.768 32.128 47.848 32.128 45.288V30.76H13.44V45.288C13.44 47.848 11.584 49.768 9.152 49.768ZM62.274 16.616C70.914 16.616 77.314 22.888 77.314 31.464V31.656C77.314 34.344 75.394 36.072 72.578 36.072H54.53C55.554 40.04 58.754 42.344 63.426 42.344C65.73 42.344 68.098 41.704 70.018 40.488C70.658 40.104 71.234 39.912 71.874 39.912C73.858 39.912 75.394 41.384 75.394 43.368C75.394 44.776 74.754 45.8 73.218 46.824C70.338 48.744 66.882 49.768 63.17 49.768C53.186 49.768 45.826 42.664 45.826 33.192C45.826 23.784 52.93 16.616 62.274 16.616ZM62.082 23.592C58.306 23.592 55.49 26.088 54.53 29.992H68.93C68.802 26.216 66.114 23.592 62.082 23.592ZM86.4875 49.768C83.9915 49.768 82.1355 47.848 82.1355 45.352V4.648C82.1355 2.152 83.9915 0.231998 86.4875 0.231998C88.9195 0.231998 90.7755 2.152 90.7755 4.648V45.352C90.7755 47.848 88.9195 49.768 86.4875 49.768ZM101.755 49.768C99.259 49.768 97.403 47.848 97.403 45.352V4.648C97.403 2.152 99.259 0.231998 101.755 0.231998C104.187 0.231998 106.043 2.152 106.043 4.648V45.352C106.043 47.848 104.187 49.768 101.755 49.768ZM127.839 16.616C137.311 16.616 144.863 23.912 144.863 33.128C144.863 42.344 137.311 49.704 127.774 49.704C118.302 49.704 110.878 42.408 110.878 33.128C110.878 23.848 118.302 16.616 127.839 16.616ZM127.839 24.488C123.102 24.488 119.647 28.136 119.647 33.192C119.647 38.184 123.102 41.768 127.839 41.768C132.51 41.768 136.031 38.12 136.031 33.192C136.031 28.2 132.51 24.488 127.839 24.488Z" fill="white"/>
<g clip-path="url(#clip0_36_2301)">
<path d="M95.851 99.25C101.456 99.25 106 94.7169 106 89.125C106 83.5331 101.456 79 95.851 79C90.2459 79 85.7021 83.5331 85.7021 89.125C85.7021 94.7169 90.2459 99.25 95.851 99.25Z" fill="white"/>
<path d="M95.8514 106C100.834 106 104.872 110.028 104.872 114.999V150.998C104.872 155.969 100.834 159.997 95.8514 159.997C90.8689 159.997 86.8311 155.969 86.8311 150.998V114.999C86.8311 110.028 90.8689 106 95.8514 106Z" fill="white"/>
<path d="M72.3357 140.32C68.2843 136.278 68.2843 129.725 72.3357 125.683L77.421 121.366C80.9446 117.85 80.9446 112.153 77.421 108.638C73.8973 105.123 68.1869 105.123 64.6632 108.638L60.3357 113.711C56.2843 117.753 49.716 117.753 45.6645 113.711L41.3371 108.638C37.8134 105.123 32.103 105.123 28.5793 108.638C25.0556 112.153 25.0556 117.85 28.5793 121.366L33.6645 125.683C37.716 129.725 37.716 136.278 33.6645 140.32L28.5793 144.637C25.0556 148.153 25.0556 153.85 28.5793 157.365C32.103 160.88 37.8134 160.88 41.3371 157.365L45.6645 152.292C49.716 148.25 56.2843 148.25 60.3357 152.292L64.6632 157.365C68.1869 160.88 73.8973 160.88 77.421 157.365C80.9446 153.85 80.9446 148.153 77.421 144.637L72.3357 140.32Z" fill="white"/>
<path d="M10.1488 99.25C15.7539 99.25 20.2977 94.7169 20.2977 89.125C20.2977 83.5331 15.7539 79 10.1488 79C4.54379 79 0 83.5331 0 89.125C0 94.7169 4.54379 99.25 10.1488 99.25Z" fill="white"/>
<path d="M10.1492 106C5.1668 106 1.12891 110.028 1.12891 114.999V150.998C1.12891 155.969 5.1668 159.997 10.1492 159.997C15.1316 159.997 19.1695 155.969 19.1695 150.998V114.999C19.1695 110.028 15.1316 106 10.1492 106Z" fill="white"/>
</g>
<path d="M153.36 157.152C145.872 157.152 137.616 153.792 132.912 148.608C131.376 147.072 130.512 145.44 130.512 143.616C130.608 140.16 133.392 137.856 136.464 137.856C137.616 137.856 138.864 138.24 139.824 139.104C142.416 141.792 146.928 145.632 153.36 145.632C159.024 145.632 162.384 142.944 162.384 138.624C162.384 134.976 160.176 133.44 154.32 130.752L147.504 127.68C137.424 123.072 132.144 117.6 132.144 109.44C132.144 98.784 141.168 91.488 153.168 91.488C162.672 91.488 168.24 95.904 170.928 98.976C172.272 100.416 172.656 101.856 172.656 103.104C172.656 106.368 169.68 108.864 166.704 108.864C165.552 108.864 164.304 108.48 163.152 107.52C160.56 105.216 157.68 103.008 153.168 103.008C148.56 103.008 145.296 105.216 145.296 109.152C145.296 112.32 147.024 113.856 152.688 116.448L159.888 119.616C170.448 124.32 175.536 129.504 175.536 138.144C175.536 149.856 166.032 157.152 153.36 157.152ZM205.929 107.424C220.137 107.424 231.465 118.368 231.465 132.192C231.465 146.016 220.137 157.056 205.833 157.056C191.625 157.056 180.489 146.112 180.489 132.192C180.489 118.272 191.625 107.424 205.929 107.424ZM205.929 119.232C198.825 119.232 193.641 124.704 193.641 132.288C193.641 139.776 198.825 145.152 205.929 145.152C212.937 145.152 218.217 139.68 218.217 132.288C218.217 124.8 212.937 119.232 205.929 119.232ZM245.231 157.152C241.487 157.152 238.703 154.272 238.703 150.528V89.472C238.703 85.728 241.487 82.848 245.231 82.848C248.879 82.848 251.663 85.728 251.663 89.472V150.528C251.663 154.272 248.879 157.152 245.231 157.152ZM283.109 157.152C270.149 157.152 261.125 148.128 261.125 135.072V113.952C261.125 110.208 263.909 107.424 267.653 107.424C271.301 107.424 274.085 110.208 274.085 113.952V136.128C274.085 141.408 277.829 145.248 283.109 145.248C288.293 145.248 291.941 141.408 291.941 136.128V113.952C291.941 110.208 294.629 107.424 298.469 107.424C302.117 107.424 304.901 110.208 304.901 113.952V135.072C304.901 148.128 295.877 157.152 283.109 157.152ZM340.332 145.44C343.788 145.44 345.996 147.552 345.996 150.72C345.996 153.12 344.748 154.944 342.732 155.904C340.908 156.672 338.796 157.152 336.012 157.152C323.628 157.152 317.004 150.912 317.004 139.296V119.424H314.316C311.148 119.424 308.748 117.12 308.748 113.952C308.748 110.784 311.148 108.48 314.316 108.48H317.004V101.952C317.004 98.208 319.692 95.424 323.532 95.424C327.18 95.424 329.964 98.208 329.964 101.952V108.48H338.7C341.868 108.48 344.172 110.784 344.172 113.952C344.172 117.12 341.868 119.424 338.7 119.424H329.964V138.144C329.964 143.424 332.46 145.536 338.508 145.536C339.276 145.536 339.852 145.44 340.332 145.44ZM357.902 83.328C362.318 83.328 366.062 86.784 366.062 91.2C366.062 95.52 362.318 98.976 357.902 98.976C353.486 98.976 349.838 95.52 349.838 91.2C349.838 86.784 353.486 83.328 357.902 83.328ZM357.902 157.152C354.254 157.152 351.47 154.272 351.47 150.528V113.952C351.47 110.208 354.254 107.424 357.998 107.424C361.646 107.424 364.43 110.208 364.43 113.952V150.528C364.43 154.272 361.646 157.152 357.902 157.152ZM397.123 107.424C411.331 107.424 422.659 118.368 422.659 132.192C422.659 146.016 411.331 157.056 397.027 157.056C382.819 157.056 371.683 146.112 371.683 132.192C371.683 118.272 382.819 107.424 397.123 107.424ZM397.123 119.232C390.019 119.232 384.835 124.704 384.835 132.288C384.835 139.776 390.019 145.152 397.123 145.152C404.131 145.152 409.411 139.68 409.411 132.288C409.411 124.8 404.131 119.232 397.123 119.232ZM455.721 107.424C466.569 107.424 473.577 114.912 473.577 126.528V150.528C473.577 154.368 470.889 157.152 467.145 157.152C463.497 157.152 460.713 154.272 460.713 150.528V128.256C460.713 122.784 457.161 119.04 451.881 119.04C446.601 119.04 442.857 122.88 442.857 128.256V150.528C442.857 154.368 440.073 157.152 436.425 157.152C432.681 157.152 429.897 154.272 429.897 150.528V113.952C429.897 110.208 432.681 107.424 436.329 107.424C439.305 107.424 441.705 109.44 442.377 112.32C445.737 109.248 450.441 107.424 455.721 107.424Z" fill="white"/>
<defs>
<clipPath id="clip0_36_2301">
<rect width="106" height="81" fill="white" transform="translate(0 79)"/>
</clipPath>
</defs>
</svg>
