<svg width="659" height="101" viewBox="0 0 659 101" fill="none" xmlns="http://www.w3.org/2000/svg">
<g clip-path="url(#clip0_50_3136)">
<path d="M117.553 25C124.427 25 130 19.4036 130 12.5C130 5.59644 124.427 0 117.553 0C110.679 0 105.106 5.59644 105.106 12.5C105.106 19.4036 110.679 25 117.553 25Z" fill="url(#paint0_linear_50_3136)"/>
<path d="M117.553 33.3335C123.663 33.3335 128.615 38.3068 128.615 44.4435V88.8868C128.615 95.0235 123.663 99.9968 117.553 99.9968C111.442 99.9968 106.49 95.0235 106.49 88.8868V44.4435C106.49 38.3068 111.442 33.3335 117.553 33.3335Z" fill="url(#paint1_linear_50_3136)"/>
<path d="M88.7133 75.7033C83.7445 70.7133 83.7445 62.6233 88.7133 57.6333L94.9499 52.3033C99.2714 47.9633 99.2714 40.93 94.9499 36.59C90.6284 32.25 83.625 32.25 79.3035 36.59L73.9963 42.8533C69.0275 47.8433 60.972 47.8433 56.0033 42.8533L50.6961 36.59C46.3746 32.25 39.3712 32.25 35.0497 36.59C30.7282 40.93 30.7282 47.9633 35.0497 52.3033L41.2863 57.6333C46.2551 62.6233 46.2551 70.7133 41.2863 75.7033L35.0497 81.0333C30.7282 85.3733 30.7282 92.4066 35.0497 96.7466C39.3712 101.087 46.3746 101.087 50.6961 96.7466L56.0033 90.4833C60.972 85.4933 69.0275 85.4933 73.9963 90.4833L79.3035 96.7466C83.625 101.087 90.6284 101.087 94.9499 96.7466C99.2714 92.4066 99.2714 85.3733 94.9499 81.0333L88.7133 75.7033Z" fill="url(#paint2_linear_50_3136)"/>
<path d="M12.4467 25C19.3208 25 24.8934 19.4036 24.8934 12.5C24.8934 5.59644 19.3208 0 12.4467 0C5.57258 0 0 5.59644 0 12.5C0 19.4036 5.57258 25 12.4467 25Z" fill="url(#paint3_linear_50_3136)"/>
<path d="M12.4464 33.3335C6.33592 33.3335 1.38379 38.3068 1.38379 44.4435V88.8868C1.38379 95.0235 6.33592 99.9968 12.4464 99.9968C18.5569 99.9968 23.5091 95.0235 23.5091 88.8868V44.4435C23.5091 38.3068 18.5569 33.3335 12.4464 33.3335Z" fill="url(#paint4_linear_50_3136)"/>
</g>
<path d="M184.32 100.44C175.56 100.44 165.12 96.96 159.48 91.68C156.84 89.16 155.28 86.4 155.28 83.28C155.4 77.76 159.84 74.16 164.52 74.16C166.08 74.16 167.76 74.64 169.2 75.6C171 76.8 176.04 82.32 184.32 82.32C189.84 82.32 192.48 80.4 192.48 76.56C192.48 72.84 189.96 71.64 184.44 69.24L176.28 65.64C163.68 60.12 156.24 52.92 156.24 41.76C156.24 27.6 168.24 18.36 183.96 18.36C197.88 18.24 204.6 25.2 206.52 27.48C208.32 29.52 208.92 31.68 208.92 33.6C208.92 38.88 204.24 42.84 199.68 42.84C198 42.84 196.2 42.36 194.4 41.04C191.76 39.24 189.48 36.48 184.2 36.48C180.12 36.48 177.12 37.92 177.12 41.52C177.12 44.52 179.04 45.96 183.96 48L193.08 51.84C206.28 57.36 213.36 64.08 213.36 75.72C213.36 91.32 200.64 100.44 184.32 100.44ZM249.908 37.56C268.268 37.56 282.668 51.48 282.668 69C282.668 86.52 268.268 100.44 249.908 100.44C231.548 100.44 217.268 86.64 217.268 69C217.268 51.36 231.548 37.56 249.908 37.56ZM250.028 56.52C243.188 56.52 238.388 61.56 238.388 69C238.388 76.44 243.068 81.48 250.028 81.48C256.748 81.48 261.548 76.2 261.548 69C261.548 61.8 256.628 56.52 250.028 56.52ZM299.879 100.44C293.999 100.44 289.559 96 289.559 90V18C289.559 12 293.879 7.56 299.879 7.56C305.759 7.56 310.199 12 310.199 18V90C310.199 96 305.759 100.44 299.879 100.44ZM348.981 100.44C331.581 100.44 319.581 88.44 319.581 71.04V48C319.581 42 324.021 37.56 329.901 37.56C335.781 37.56 340.221 42 340.221 48V72.72C340.221 77.76 343.941 81.48 348.981 81.48C354.021 81.48 357.621 77.76 357.621 72.72V48C357.621 42 361.941 37.56 367.941 37.56C373.821 37.56 378.261 42 378.261 48V71.04C378.261 88.44 366.261 100.44 348.981 100.44ZM422.033 81.96C427.553 81.96 431.153 85.32 431.153 90.48C431.153 94.08 429.353 96.96 426.593 98.4C424.073 99.72 421.313 100.44 417.593 100.44C400.433 100.44 391.193 91.92 391.193 76.08V56.28H389.513C384.593 56.28 380.873 52.56 380.873 47.64C380.873 42.6 384.593 39 389.513 39H391.193V33.6C391.193 27.6 395.513 23.16 401.513 23.16C407.393 23.16 411.833 27.6 411.833 33.6V39H420.473C425.513 39 429.113 42.6 429.113 47.64C429.113 52.56 425.513 56.28 420.473 56.28H411.833V74.04C411.833 79.8 414.593 81.96 421.553 81.96H422.033ZM446.928 5.88C453.648 5.88 459.288 11.04 459.288 17.76C459.288 24.36 453.648 29.52 446.928 29.52C440.208 29.52 434.688 24.36 434.688 17.76C434.688 11.04 440.208 5.88 446.928 5.88ZM447.048 100.44C441.168 100.44 436.728 96 436.728 90V48C436.728 42 441.048 37.56 447.048 37.56C452.928 37.56 457.368 42 457.368 48V90C457.368 96 453.048 100.44 447.048 100.44ZM496.869 37.56C515.229 37.56 529.629 51.48 529.629 69C529.629 86.52 515.229 100.44 496.869 100.44C478.509 100.44 464.229 86.64 464.229 69C464.229 51.36 478.509 37.56 496.869 37.56ZM496.989 56.52C490.149 56.52 485.349 61.56 485.349 69C485.349 76.44 490.029 81.48 496.989 81.48C503.709 81.48 508.509 76.2 508.509 69C508.509 61.8 503.589 56.52 496.989 56.52ZM572.28 37.56C586.2 37.56 595.2 47.16 595.2 62.04V90C595.2 96 590.76 100.44 584.88 100.44C579 100.44 574.56 96 574.56 90V65.04C574.56 59.76 570.96 56.16 565.8 56.16C560.64 56.16 557.16 59.76 557.16 65.04V90C557.16 96 552.72 100.44 546.84 100.44C540.96 100.44 536.52 96 536.52 90V48C536.52 42 540.84 37.56 546.6 37.56C550.8 37.56 554.16 39.96 555.72 43.56C559.92 39.84 565.8 37.56 572.28 37.56Z" fill="#222222"/>
<defs>
<linearGradient id="paint0_linear_50_3136" x1="117.553" y1="100.033" x2="117.553" y2="33.25" gradientUnits="userSpaceOnUse">
<stop stop-color="#FF19F5"/>
<stop offset="0.2" stop-color="#FA1BF5"/>
<stop offset="0.4" stop-color="#EE22F6"/>
<stop offset="0.61" stop-color="#D92DF8"/>
<stop offset="0.82" stop-color="#BC3DFB"/>
<stop offset="1" stop-color="#9E4EFF"/>
</linearGradient>
<linearGradient id="paint1_linear_50_3136" x1="117.553" y1="100" x2="117.553" y2="33.2135" gradientUnits="userSpaceOnUse">
<stop stop-color="#FF19F5"/>
<stop offset="0.2" stop-color="#FA1BF5"/>
<stop offset="0.4" stop-color="#EE22F6"/>
<stop offset="0.61" stop-color="#D92DF8"/>
<stop offset="0.82" stop-color="#BC3DFB"/>
<stop offset="1" stop-color="#9E4EFF"/>
</linearGradient>
<linearGradient id="paint2_linear_50_3136" x1="64.9981" y1="100" x2="64.9981" y2="33.2133" gradientUnits="userSpaceOnUse">
<stop stop-color="#FF19F5"/>
<stop offset="0.2" stop-color="#FA1BF5"/>
<stop offset="0.4" stop-color="#EE22F6"/>
<stop offset="0.61" stop-color="#D92DF8"/>
<stop offset="0.82" stop-color="#BC3DFB"/>
<stop offset="1" stop-color="#9E4EFF"/>
</linearGradient>
<linearGradient id="paint3_linear_50_3136" x1="12.4467" y1="100.033" x2="12.4467" y2="33.25" gradientUnits="userSpaceOnUse">
<stop stop-color="#FF19F5"/>
<stop offset="0.2" stop-color="#FA1BF5"/>
<stop offset="0.4" stop-color="#EE22F6"/>
<stop offset="0.61" stop-color="#D92DF8"/>
<stop offset="0.82" stop-color="#BC3DFB"/>
<stop offset="1" stop-color="#9E4EFF"/>
</linearGradient>
<linearGradient id="paint4_linear_50_3136" x1="12.4464" y1="100" x2="12.4464" y2="33.2135" gradientUnits="userSpaceOnUse">
<stop stop-color="#FF19F5"/>
<stop offset="0.2" stop-color="#FA1BF5"/>
<stop offset="0.4" stop-color="#EE22F6"/>
<stop offset="0.61" stop-color="#D92DF8"/>
<stop offset="0.82" stop-color="#BC3DFB"/>
<stop offset="1" stop-color="#9E4EFF"/>
</linearGradient>
<clipPath id="clip0_50_3136">
<rect width="130" height="100" fill="white"/>
</clipPath>
</defs>
</svg>
