<svg width="202" height="29" viewBox="0 0 202 29" fill="none" xmlns="http://www.w3.org/2000/svg">
<g clip-path="url(#clip0_3588_16706)">
<path d="M33.4576 7C35.414 7 37.0001 5.433 37.0001 3.5C37.0001 1.567 35.414 0 33.4576 0C31.5011 0 29.915 1.567 29.915 3.5C29.915 5.433 31.5011 7 33.4576 7Z" fill="url(#paint0_linear_3588_16706)"/>
<path d="M33.4572 9.33301C35.1963 9.33301 36.6058 10.7255 36.6058 12.4438V24.8879C36.6058 26.6062 35.1963 27.9987 33.4572 27.9987C31.718 27.9987 30.3086 26.6062 30.3086 24.8879V12.4438C30.3086 10.7255 31.718 9.33301 33.4572 9.33301Z" fill="url(#paint1_linear_3588_16706)"/>
<path d="M25.2497 21.1971C23.8355 19.7999 23.8355 17.5347 25.2497 16.1375L27.0247 14.6451C28.2547 13.4299 28.2547 11.4606 27.0247 10.2454C25.7947 9.03018 23.8015 9.03018 22.5715 10.2454L21.061 11.9991C19.6468 13.3963 17.3541 13.3963 15.9399 11.9991L14.4294 10.2454C13.1994 9.03018 11.2061 9.03018 9.97618 10.2454C8.74622 11.4606 8.74622 13.4299 9.97618 14.6451L11.7512 16.1375C13.1654 17.5347 13.1654 19.7999 11.7512 21.1971L9.97618 22.6895C8.74622 23.9047 8.74622 25.8741 9.97618 27.0893C11.2061 28.3045 13.1994 28.3045 14.4294 27.0893L15.9399 25.3355C17.3541 23.9383 19.6468 23.9383 21.061 25.3355L22.5715 27.0893C23.8015 28.3045 25.7947 28.3045 27.0247 27.0893C28.2547 25.8741 28.2547 23.9047 27.0247 22.6895L25.2497 21.1971Z" fill="url(#paint2_linear_3588_16706)"/>
<path d="M3.54252 7C5.499 7 7.08505 5.433 7.08505 3.5C7.08505 1.567 5.499 0 3.54252 0C1.58604 0 0 1.567 0 3.5C0 5.433 1.58604 7 3.54252 7Z" fill="url(#paint3_linear_3588_16706)"/>
<path d="M3.54215 9.33301C1.80301 9.33301 0.393555 10.7255 0.393555 12.4438V24.8879C0.393555 26.6062 1.80301 27.9987 3.54215 27.9987C5.28129 27.9987 6.69074 26.6062 6.69074 24.8879V12.4438C6.69074 10.7255 5.28129 9.33301 3.54215 9.33301Z" fill="url(#paint4_linear_3588_16706)"/>
</g>
<rect x="42" y="12.5" width="10" height="3" rx="1.5" fill="#333333"/>
<path d="M61.228 23.336C59.856 23.336 58.82 22.3 58.82 20.9V6.956C58.82 5.556 59.856 4.52 61.256 4.52H66.072C70.3 4.52 73.212 7.096 73.212 10.876C73.212 14.6 70.244 17.26 66.072 17.26H63.636V20.9C63.636 22.3 62.6 23.336 61.228 23.336ZM63.636 13.06H66.1C67.444 13.06 68.312 12.192 68.312 10.876C68.312 9.588 67.444 8.72 66.1 8.72H63.636V13.06ZM77.1165 23.336C75.7445 23.336 74.7085 22.3 74.7085 20.9V4.1C74.7085 2.7 75.7165 1.664 77.1165 1.664C78.4885 1.664 79.5245 2.7 79.5245 4.1V20.9C79.5245 22.3 78.4885 23.336 77.1165 23.336ZM87.9015 8.664C92.0455 8.664 94.3415 10.904 94.3415 14.88V20.928C94.3415 22.3 93.3615 23.308 92.0175 23.308C91.0375 23.308 90.2255 22.776 89.8615 21.936C88.8815 22.832 87.5095 23.336 85.9415 23.336C83.0575 23.336 81.0975 21.6 81.0975 19.024C81.0975 16.392 83.1415 14.824 86.5855 14.824H89.5255V14.6C89.5255 13.452 88.7415 12.808 87.3695 12.808C86.5855 12.808 85.8855 13.032 85.1575 13.508C84.5975 13.872 84.2895 13.984 83.8695 13.984C82.7215 13.984 81.8535 13.116 81.8535 12.024C81.8535 11.324 82.2175 10.68 82.8895 10.148C84.0655 9.196 85.8575 8.664 87.9015 8.664ZM87.3975 19.92C88.6575 19.92 89.5255 19.108 89.5255 17.876V17.764H87.2575C86.4455 17.764 85.9695 18.156 85.9695 18.828C85.9695 19.528 86.5015 19.92 87.3975 19.92ZM108.137 8.664C109.397 8.664 110.461 9.728 110.461 10.988C110.461 11.324 110.377 11.688 110.153 12.136L104.329 23.756C102.677 27.032 100.913 28.376 98.2247 28.376C97.4407 28.376 96.7687 28.236 96.2927 27.956C95.6207 27.592 95.2567 26.892 95.2567 26.136C95.2567 24.932 96.2087 24.064 97.4127 24.064H97.4967C98.5887 24.064 99.2887 23.728 99.7927 22.636L100.185 21.768L95.7327 12.136C95.5087 11.688 95.4247 11.324 95.4247 10.988C95.4247 9.728 96.4887 8.664 97.7487 8.664C98.6727 8.664 99.4847 9.168 99.8487 10.008L102.901 16.896L106.037 10.008C106.401 9.196 107.213 8.664 108.137 8.664ZM123.249 8.664C124.593 8.664 125.573 9.7 125.573 11.1V21.292C125.573 25.828 122.857 28.376 118.069 28.376C115.745 28.376 113.701 27.788 112.077 26.64C111.405 26.192 111.041 25.52 111.041 24.848C111.041 23.672 111.993 22.72 113.169 22.72C113.561 22.72 113.981 22.86 114.429 23.14C115.409 23.756 116.445 24.064 117.565 24.064C119.553 24.064 120.757 23.14 120.757 21.6V21.096C119.889 21.936 118.657 22.384 117.089 22.384C113.141 22.384 110.453 19.584 110.453 15.496C110.453 11.436 113.141 8.664 117.089 8.664C118.825 8.664 120.141 9.196 121.037 10.26C121.345 9.308 122.185 8.664 123.249 8.664ZM118.125 18.408C119.721 18.408 120.841 17.176 120.841 15.412C120.841 13.732 119.777 12.64 118.125 12.64C116.473 12.64 115.381 13.76 115.381 15.44C115.381 17.176 116.529 18.408 118.125 18.408ZM135.372 8.776C136.604 8.776 137.472 9.644 137.472 10.932C137.472 12.22 136.632 13.088 135.26 13.284C133.524 13.536 132.684 14.6 132.684 16.616V20.9C132.684 22.3 131.648 23.336 130.276 23.336C128.904 23.336 127.868 22.3 127.868 20.9V11.1C127.868 9.7 128.876 8.664 130.22 8.664C131.284 8.664 132.124 9.308 132.432 10.288C133.216 9.336 134.252 8.776 135.372 8.776ZM145.018 8.664C149.302 8.664 152.662 11.912 152.662 16C152.662 20.088 149.302 23.336 145.018 23.336C140.734 23.336 137.402 20.116 137.402 16C137.402 11.884 140.734 8.664 145.018 8.664ZM145.046 13.088C143.45 13.088 142.33 14.264 142.33 16C142.33 17.736 143.422 18.912 145.046 18.912C146.614 18.912 147.734 17.68 147.734 16C147.734 14.32 146.586 13.088 145.046 13.088ZM161.018 23.336C156.958 23.336 154.158 20.536 154.158 16.476V11.1C154.158 9.7 155.194 8.664 156.566 8.664C157.938 8.664 158.974 9.7 158.974 11.1V16.868C158.974 18.044 159.842 18.912 161.018 18.912C162.194 18.912 163.034 18.044 163.034 16.868V11.1C163.034 9.7 164.042 8.664 165.442 8.664C166.814 8.664 167.85 9.7 167.85 11.1V16.476C167.85 20.536 165.05 23.336 161.018 23.336ZM178.372 8.664C181.62 8.664 183.72 10.904 183.72 14.376V20.9C183.72 22.3 182.684 23.336 181.312 23.336C179.94 23.336 178.904 22.3 178.904 20.9V15.076C178.904 13.844 178.064 13.004 176.86 13.004C175.656 13.004 174.844 13.844 174.844 15.076V20.9C174.844 22.3 173.808 23.336 172.436 23.336C171.064 23.336 170.028 22.3 170.028 20.9V11.1C170.028 9.7 171.036 8.664 172.38 8.664C173.36 8.664 174.144 9.224 174.508 10.064C175.488 9.196 176.86 8.664 178.372 8.664ZM197.907 1.664C199.279 1.664 200.315 2.7 200.315 4.1V20.928C200.315 22.3 199.335 23.336 197.991 23.336C196.927 23.336 196.087 22.692 195.779 21.74C194.883 22.776 193.595 23.336 191.915 23.336C187.995 23.336 185.195 20.312 185.195 16.028C185.195 11.744 187.995 8.664 191.915 8.664C193.427 8.664 194.631 9.112 195.499 9.952V4.1C195.499 2.7 196.507 1.664 197.907 1.664ZM192.867 18.968C194.491 18.968 195.583 17.764 195.583 16.028C195.583 14.264 194.463 13.032 192.867 13.032C191.271 13.032 190.123 14.264 190.123 16C190.123 17.764 191.243 18.968 192.867 18.968Z" fill="#333333"/>
<defs>
<linearGradient id="paint0_linear_3588_16706" x1="33.4576" y1="28.0093" x2="33.4576" y2="9.31" gradientUnits="userSpaceOnUse">
<stop stop-color="#FF19F5"/>
<stop offset="0.2" stop-color="#FA1BF5"/>
<stop offset="0.4" stop-color="#EE22F6"/>
<stop offset="0.61" stop-color="#D92DF8"/>
<stop offset="0.82" stop-color="#BC3DFB"/>
<stop offset="1" stop-color="#9E4EFF"/>
</linearGradient>
<linearGradient id="paint1_linear_3588_16706" x1="33.4572" y1="27.9997" x2="33.4572" y2="9.29941" gradientUnits="userSpaceOnUse">
<stop stop-color="#FF19F5"/>
<stop offset="0.2" stop-color="#FA1BF5"/>
<stop offset="0.4" stop-color="#EE22F6"/>
<stop offset="0.61" stop-color="#D92DF8"/>
<stop offset="0.82" stop-color="#BC3DFB"/>
<stop offset="1" stop-color="#9E4EFF"/>
</linearGradient>
<linearGradient id="paint2_linear_3588_16706" x1="18.5" y1="28.0002" x2="18.5" y2="9.29992" gradientUnits="userSpaceOnUse">
<stop stop-color="#FF19F5"/>
<stop offset="0.2" stop-color="#FA1BF5"/>
<stop offset="0.4" stop-color="#EE22F6"/>
<stop offset="0.61" stop-color="#D92DF8"/>
<stop offset="0.82" stop-color="#BC3DFB"/>
<stop offset="1" stop-color="#9E4EFF"/>
</linearGradient>
<linearGradient id="paint3_linear_3588_16706" x1="3.54252" y1="28.0093" x2="3.54252" y2="9.31" gradientUnits="userSpaceOnUse">
<stop stop-color="#FF19F5"/>
<stop offset="0.2" stop-color="#FA1BF5"/>
<stop offset="0.4" stop-color="#EE22F6"/>
<stop offset="0.61" stop-color="#D92DF8"/>
<stop offset="0.82" stop-color="#BC3DFB"/>
<stop offset="1" stop-color="#9E4EFF"/>
</linearGradient>
<linearGradient id="paint4_linear_3588_16706" x1="3.54215" y1="27.9997" x2="3.54215" y2="9.29941" gradientUnits="userSpaceOnUse">
<stop stop-color="#FF19F5"/>
<stop offset="0.2" stop-color="#FA1BF5"/>
<stop offset="0.4" stop-color="#EE22F6"/>
<stop offset="0.61" stop-color="#D92DF8"/>
<stop offset="0.82" stop-color="#BC3DFB"/>
<stop offset="1" stop-color="#9E4EFF"/>
</linearGradient>
<clipPath id="clip0_3588_16706">
<rect width="37" height="28" fill="white"/>
</clipPath>
</defs>
</svg>
