<svg width="158" height="38" viewBox="0 0 158 38" fill="none" xmlns="http://www.w3.org/2000/svg">
<path d="M152.371 23.1974C155.489 23.1974 157.505 25.3478 157.505 28.681V34.944C157.505 36.288 156.51 37.2826 155.193 37.2826C153.876 37.2826 152.881 36.288 152.881 34.944V29.353C152.881 28.1702 152.075 27.3638 150.919 27.3638C149.763 27.3638 148.984 28.1702 148.984 29.353V34.944C148.984 36.288 147.989 37.2826 146.672 37.2826C145.355 37.2826 144.36 36.288 144.36 34.944V25.536C144.36 24.192 145.328 23.1974 146.618 23.1974C147.559 23.1974 148.312 23.735 148.661 24.5414C149.602 23.7082 150.919 23.1974 152.371 23.1974Z" fill="#333333"/>
<path d="M135.479 23.1974C139.591 23.1974 142.817 26.3155 142.817 30.24C142.817 34.1645 139.591 37.2826 135.479 37.2826C131.366 37.2826 128.167 34.1914 128.167 30.24C128.167 26.2886 131.366 23.1974 135.479 23.1974ZM135.506 27.4445C133.973 27.4445 132.898 28.5734 132.898 30.24C132.898 31.9066 133.947 33.0355 135.506 33.0355C137.011 33.0355 138.086 31.8528 138.086 30.24C138.086 28.6272 136.984 27.4445 135.506 27.4445Z" fill="#333333"/>
<path d="M124.292 16.1011C125.797 16.1011 127.06 17.257 127.06 18.7622C127.06 20.2406 125.797 21.3965 124.292 21.3965C122.787 21.3965 121.55 20.2406 121.55 18.7622C121.55 17.257 122.787 16.1011 124.292 16.1011ZM124.319 37.2826C123.002 37.2826 122.007 36.288 122.007 34.944V25.536C122.007 24.192 122.975 23.1974 124.319 23.1974C125.636 23.1974 126.63 24.192 126.63 25.536V34.944C126.63 36.288 125.663 37.2826 124.319 37.2826Z" fill="#333333"/>
<path d="M118.715 33.143C119.952 33.143 120.758 33.8957 120.758 35.0515C120.758 35.8579 120.355 36.503 119.737 36.8256C119.172 37.1213 118.554 37.2826 117.721 37.2826C113.877 37.2826 111.807 35.3741 111.807 31.8259V27.3907H111.431C110.329 27.3907 109.496 26.5574 109.496 25.4554C109.496 24.3264 110.329 23.52 111.431 23.52H111.807V22.3104C111.807 20.9664 112.775 19.9718 114.119 19.9718C115.436 19.9718 116.431 20.9664 116.431 22.3104V23.52H118.366C119.495 23.52 120.301 24.3264 120.301 25.4554C120.301 26.5574 119.495 27.3907 118.366 27.3907H116.431V31.369C116.431 32.6592 117.049 33.143 118.608 33.143H118.715Z" fill="#333333"/>
<path d="M102.352 37.2826C98.4541 37.2826 95.7661 34.5946 95.7661 30.697V25.536C95.7661 24.192 96.7606 23.1974 98.0777 23.1974C99.3949 23.1974 100.389 24.192 100.389 25.536V31.0733C100.389 32.2022 101.223 33.0355 102.352 33.0355C103.481 33.0355 104.287 32.2022 104.287 31.0733V25.536C104.287 24.192 105.255 23.1974 106.599 23.1974C107.916 23.1974 108.91 24.192 108.91 25.536V30.697C108.91 34.5946 106.222 37.2826 102.352 37.2826Z" fill="#333333"/>
<path d="M91.3529 37.2826C90.0358 37.2826 89.0412 36.288 89.0412 34.944V18.816C89.0412 17.472 90.0089 16.4774 91.3529 16.4774C92.67 16.4774 93.6646 17.472 93.6646 18.816V34.944C93.6646 36.288 92.67 37.2826 91.3529 37.2826Z" fill="#333333"/>
<path d="M80.1595 23.1974C84.2721 23.1974 87.4977 26.3155 87.4977 30.24C87.4977 34.1645 84.2721 37.2826 80.1595 37.2826C76.0468 37.2826 72.8481 34.1914 72.8481 30.24C72.8481 26.2886 76.0468 23.1974 80.1595 23.1974ZM80.1864 27.4445C78.6542 27.4445 77.579 28.5734 77.579 30.24C77.579 31.9066 78.6273 33.0355 80.1864 33.0355C81.6916 33.0355 82.7668 31.8528 82.7668 30.24C82.7668 28.6272 81.6648 27.4445 80.1864 27.4445Z" fill="#333333"/>
<path d="M65.4677 37.2826C63.5054 37.2826 61.1669 36.503 59.9035 35.3203C59.3122 34.7558 58.9627 34.1376 58.9627 33.4387C58.9896 32.2022 59.9842 31.3958 61.0325 31.3958C61.3819 31.3958 61.7582 31.5034 62.0808 31.7184C62.484 31.9872 63.613 33.2237 65.4677 33.2237C66.7042 33.2237 67.2955 32.7936 67.2955 31.9334C67.2955 31.1002 66.731 30.8314 65.4946 30.2938L63.6667 29.4874C60.8443 28.2509 59.1778 26.6381 59.1778 24.1382C59.1778 20.9664 61.8658 18.8966 65.387 18.8966C68.5051 18.8698 70.0104 20.4288 70.4405 20.9395C70.8437 21.3965 70.9781 21.8803 70.9781 22.3104C70.9781 23.4931 69.9298 24.3802 68.9083 24.3802C68.532 24.3802 68.1288 24.2726 67.7256 23.977C67.1342 23.5738 66.6235 22.9555 65.4408 22.9555C64.5269 22.9555 63.8549 23.2781 63.8549 24.0845C63.8549 24.7565 64.285 25.079 65.387 25.536L67.4299 26.3962C70.3867 27.6326 71.9726 29.1379 71.9726 31.7453C71.9726 35.2397 69.1234 37.2826 65.4677 37.2826Z" fill="#333333"/>
<g clip-path="url(#clip0_0_1)">
<path d="M45.0951 9.42556C47.6936 9.42556 49.8 7.31558 49.8 4.71278C49.8 2.10998 47.6936 0 45.0951 0C42.4967 0 40.3903 2.10998 40.3903 4.71278C40.3903 7.31558 42.4967 9.42556 45.0951 9.42556Z" fill="url(#paint0_linear_0_1)"/>
<path d="M45.0951 12.5674C47.4049 12.5674 49.2768 14.4425 49.2768 16.7561V33.5123C49.2768 35.8259 47.4049 37.701 45.0951 37.701C42.7854 37.701 40.9135 35.8259 40.9135 33.5123V16.7561C40.9135 14.4425 42.7854 12.5674 45.0951 12.5674Z" fill="url(#paint1_linear_0_1)"/>
<path d="M34.1937 28.5419C32.3155 26.6605 32.3155 23.6104 34.1937 21.7291L36.5511 19.7195C38.1847 18.0833 38.1847 15.4315 36.5511 13.7952C34.9176 12.159 32.2703 12.159 30.6368 13.7952L28.6307 16.1567C26.7525 18.038 23.7075 18.038 21.8293 16.1567L19.8232 13.7952C18.1897 12.159 15.5424 12.159 13.9089 13.7952C12.2753 15.4315 12.2753 18.0833 13.9089 19.7195L16.2663 21.7291C18.1445 23.6104 18.1445 26.6605 16.2663 28.5419L13.9089 30.5514C12.2753 32.1877 12.2753 34.8394 13.9089 36.4757C15.5424 38.1119 18.1897 38.1119 19.8232 36.4757L21.8293 34.1142C23.7075 32.2329 26.7525 32.2329 28.6307 34.1142L30.6368 36.4757C32.2703 38.1119 34.9176 38.1119 36.5511 36.4757C38.1847 34.8394 38.1847 32.1877 36.5511 30.5514L34.1937 28.5419Z" fill="url(#paint2_linear_0_1)"/>
<path d="M5.36485 9.42556C7.96327 9.42556 10.0697 7.31558 10.0697 4.71278C10.0697 2.10998 7.96327 0 5.36485 0C2.76643 0 0.659996 2.10998 0.659996 4.71278C0.659996 7.31558 2.76643 9.42556 5.36485 9.42556Z" fill="url(#paint3_linear_0_1)"/>
<path d="M5.36485 12.5674C3.05508 12.5674 1.18317 14.4425 1.18317 16.7561V33.5123C1.18317 35.8259 3.05508 37.701 5.36485 37.701C7.67462 37.701 9.54652 35.8259 9.54652 33.5123V16.7561C9.54652 14.4425 7.67462 12.5674 5.36485 12.5674Z" fill="url(#paint4_linear_0_1)"/>
</g>
<defs>
<linearGradient id="paint0_linear_0_1" x1="45.0951" y1="37.7148" x2="45.0951" y2="12.536" gradientUnits="userSpaceOnUse">
<stop stop-color="#FF19F5"/>
<stop offset="0.2" stop-color="#FA1BF5"/>
<stop offset="0.4" stop-color="#EE22F6"/>
<stop offset="0.61" stop-color="#D92DF8"/>
<stop offset="0.82" stop-color="#BC3DFB"/>
<stop offset="1" stop-color="#9E4EFF"/>
</linearGradient>
<linearGradient id="paint1_linear_0_1" x1="45.0951" y1="37.7022" x2="45.0951" y2="12.5222" gradientUnits="userSpaceOnUse">
<stop stop-color="#FF19F5"/>
<stop offset="0.2" stop-color="#FA1BF5"/>
<stop offset="0.4" stop-color="#EE22F6"/>
<stop offset="0.61" stop-color="#D92DF8"/>
<stop offset="0.82" stop-color="#BC3DFB"/>
<stop offset="1" stop-color="#9E4EFF"/>
</linearGradient>
<linearGradient id="paint2_linear_0_1" x1="25.2294" y1="37.7022" x2="25.2294" y2="12.5222" gradientUnits="userSpaceOnUse">
<stop stop-color="#FF19F5"/>
<stop offset="0.2" stop-color="#FA1BF5"/>
<stop offset="0.4" stop-color="#EE22F6"/>
<stop offset="0.61" stop-color="#D92DF8"/>
<stop offset="0.82" stop-color="#BC3DFB"/>
<stop offset="1" stop-color="#9E4EFF"/>
</linearGradient>
<linearGradient id="paint3_linear_0_1" x1="5.36485" y1="37.7148" x2="5.36485" y2="12.536" gradientUnits="userSpaceOnUse">
<stop stop-color="#FF19F5"/>
<stop offset="0.2" stop-color="#FA1BF5"/>
<stop offset="0.4" stop-color="#EE22F6"/>
<stop offset="0.61" stop-color="#D92DF8"/>
<stop offset="0.82" stop-color="#BC3DFB"/>
<stop offset="1" stop-color="#9E4EFF"/>
</linearGradient>
<linearGradient id="paint4_linear_0_1" x1="5.36485" y1="37.7022" x2="5.36485" y2="12.5222" gradientUnits="userSpaceOnUse">
<stop stop-color="#FF19F5"/>
<stop offset="0.2" stop-color="#FA1BF5"/>
<stop offset="0.4" stop-color="#EE22F6"/>
<stop offset="0.61" stop-color="#D92DF8"/>
<stop offset="0.82" stop-color="#BC3DFB"/>
<stop offset="1" stop-color="#9E4EFF"/>
</linearGradient>
<clipPath id="clip0_0_1">
<rect width="49.14" height="37.7022" fill="white" transform="translate(0.659996)"/>
</clipPath>
</defs>
</svg>
