<svg width="131" height="28" viewBox="0 0 131 28" fill="none" xmlns="http://www.w3.org/2000/svg">
<path d="M23.1646 0H0V28H23.1646V16.2259L18.8542 14.0019L23.1646 11.7779V0ZM6.78278 21.3616V15.2727L16.3819 20.2253V21.3654H6.78278V21.3616ZM6.78278 12.7235V6.63463H16.3819V7.77466L6.78278 12.7273V12.7235Z" fill="white"/>
<path d="M121.06 0V15.7325L112.427 0H104.678V28H111.461V12.2675L120.089 28H127.842V0H121.06Z" fill="white"/>
<path d="M41.9455 6.63551V0H29.165V6.63551H32.3931V21.3645H29.165V28H41.9455V21.3645H38.7174V6.63551H41.9455Z" fill="white"/>
<path d="M76.3115 0V28H98.6774V0H76.3115ZM82.8604 21.3654V6.63463H92.1285V21.3654H82.8604Z" fill="white"/>
<path d="M70.3112 0H47.9453V9.91402H54.4953V6.63551H61.4364L47.9453 21.271V28H70.3112V18.086H63.7612V21.3645H56.8201L70.3112 6.72897V0Z" fill="white"/>
</svg>
