<svg width="32" height="32" viewBox="0 0 32 32" fill="none" xmlns="http://www.w3.org/2000/svg">
<path d="M20 8C20 5.79086 18.2091 4 16 4C13.7909 4 12 5.79086 12 8V14.6667C12 16.8758 13.7909 18.6667 16 18.6667C18.2091 18.6667 20 16.8758 20 14.6667V8Z" stroke="#9E4EFF" stroke-width="2" stroke-linecap="round" stroke-linejoin="round"/>
<path d="M25.3327 14.667C25.3327 15.8927 25.0913 17.1063 24.6222 18.2387C24.1532 19.3711 23.4657 20.4 22.599 21.2667C21.7323 22.1333 20.7034 22.8208 19.5711 23.2899C18.4387 23.7589 17.225 24.0003 15.9993 24.0003M15.9993 24.0003C14.7737 24.0003 13.56 23.7589 12.4276 23.2899C11.2953 22.8208 10.2664 22.1333 9.39969 21.2667C8.53301 20.4 7.84552 19.3711 7.37647 18.2387C6.90743 17.1063 6.66602 15.8927 6.66602 14.667M15.9993 24.0003V28.0003" stroke="#9E4EFF" stroke-width="2" stroke-linecap="round" stroke-linejoin="round"/>
</svg>
