<svg width="16" height="16" viewBox="0 0 16 16" fill="none" xmlns="http://www.w3.org/2000/svg">
<path d="M8.82733 11.8964C8.92168 11.9874 9.048 12.0377 9.1791 12.0365C9.3102 12.0353 9.43558 11.9827 9.52824 11.8899C9.6209 11.7972 9.67343 11.6718 9.67451 11.5407C9.67558 11.4096 9.62512 11.2833 9.534 11.189L8.82733 11.8964ZM4.81067 6.46436C4.76452 6.41662 4.70933 6.37856 4.64832 6.35238C4.5873 6.32621 4.52169 6.31245 4.4553 6.3119C4.38891 6.31136 4.32307 6.32404 4.26164 6.34921C4.2002 6.37438 4.14439 6.41153 4.09747 6.4585C4.05054 6.50547 4.01344 6.56131 3.98833 6.62277C3.96322 6.68423 3.9506 6.75007 3.95121 6.81646C3.95182 6.88285 3.96564 6.94846 3.99187 7.00945C4.01811 7.07044 4.05622 7.12559 4.104 7.17169L4.81067 6.46436ZM11.9767 8.03902L8.04 11.9757L8.74667 12.6824L12.6833 8.74636L11.9767 8.03902ZM4.02333 7.95969L7.96 4.02236L7.25333 3.31636L3.31667 7.25169L4.02333 7.95969ZM4.02333 11.9757C3.45667 11.409 3.068 11.0184 2.81533 10.687C2.57067 10.3664 2.5 10.1604 2.5 9.96702L1.5 9.96769C1.5 10.467 1.708 10.8837 2.02 11.2937C2.32333 11.691 2.77 12.1357 3.31667 12.6824L4.02333 11.9757ZM3.31667 7.25169C2.77 7.79836 2.32333 8.24369 2.02 8.64102C1.708 9.05036 1.5 9.46769 1.5 9.96769L2.5 9.96702C2.5 9.77369 2.57067 9.56769 2.81533 9.24769C3.06867 8.91569 3.45667 8.52636 4.02333 7.95969L3.31667 7.25169ZM8.04 11.9757C7.47333 12.5424 7.08333 12.931 6.75133 13.1844C6.43133 13.4284 6.22467 13.499 6.03133 13.499V14.499C6.53133 14.499 6.94867 14.291 7.358 13.979C7.75533 13.6757 8.20067 13.229 8.74733 12.6824L8.04 11.9757ZM3.31667 12.6824C3.86333 13.229 4.308 13.6757 4.706 13.979C5.11533 14.291 5.53267 14.4997 6.032 14.4997V13.499C5.83867 13.499 5.63267 13.4284 5.312 13.1837C4.98067 12.9304 4.59 12.5424 4.02333 11.9757L3.31667 12.6824ZM11.9767 4.02236C12.5433 4.58902 12.932 4.97969 13.1853 5.31102C13.4293 5.63169 13.5 5.83769 13.5 6.03102H14.5C14.5 5.53169 14.292 5.11436 13.98 4.70436C13.6767 4.30702 13.23 3.86236 12.6833 3.31569L11.9767 4.02236ZM12.6833 8.74636C13.23 8.19969 13.6767 7.75436 13.98 7.35702C14.292 6.94769 14.5 6.53036 14.5 6.03036H13.5C13.5 6.22369 13.4293 6.43036 13.1847 6.75036C12.9313 7.08236 12.5433 7.47236 11.9767 8.03902L12.6833 8.74636ZM12.6833 3.31569C12.1367 2.76902 11.692 2.32236 11.294 2.01902C10.8847 1.70702 10.4673 1.49902 9.968 1.49902V2.49902C10.1613 2.49902 10.3673 2.56969 10.688 2.81436C11.0193 3.06769 11.41 3.45569 11.9767 4.02236L12.6833 3.31569ZM7.96 4.02236C8.52667 3.45569 8.91667 3.06702 9.24867 2.81436C9.56867 2.56969 9.77533 2.49902 9.96867 2.49902V1.49902C9.46867 1.49902 9.05133 1.70702 8.642 2.01902C8.24467 2.32236 7.79933 2.76902 7.25267 3.31569L7.96 4.02236ZM9.53467 11.1884L4.81067 6.46502L4.104 7.17169L8.82733 11.8964L9.53467 11.1884Z" fill="#555555"/>
<path d="M6 14H14" stroke="#555555" stroke-width="0.75" stroke-linecap="round"/>
</svg>
