<svg width="20" height="21" viewBox="0 0 20 21" fill="none" xmlns="http://www.w3.org/2000/svg">
<path d="M10.3125 10.4479C10.3125 10.189 10.1026 9.97917 9.84375 9.97917C9.58487 9.97917 9.375 10.189 9.375 10.4479C9.375 10.7068 9.58487 10.9167 9.84375 10.9167C10.1026 10.9167 10.3125 10.7068 10.3125 10.4479Z" fill="#555555"/>
<path d="M10.3125 4.61458C10.3125 4.3557 10.1026 4.14583 9.84375 4.14583C9.58487 4.14583 9.375 4.3557 9.375 4.61458C9.375 4.87347 9.58487 5.08333 9.84375 5.08333C10.1026 5.08333 10.3125 4.87347 10.3125 4.61458Z" fill="#555555"/>
<path d="M10.3125 16.2812C10.3125 16.0224 10.1026 15.8125 9.84375 15.8125C9.58487 15.8125 9.375 16.0224 9.375 16.2812C9.375 16.5401 9.58487 16.75 9.84375 16.75C10.1026 16.75 10.3125 16.5401 10.3125 16.2812Z" fill="#555555"/>
<path d="M10.3125 10.4479C10.3125 10.189 10.1026 9.97917 9.84375 9.97917C9.58487 9.97917 9.375 10.189 9.375 10.4479C9.375 10.7068 9.58487 10.9167 9.84375 10.9167C10.1026 10.9167 10.3125 10.7068 10.3125 10.4479Z" stroke="#555555" stroke-width="1.5" stroke-linecap="round" stroke-linejoin="round"/>
<path d="M10.3125 4.61458C10.3125 4.3557 10.1026 4.14583 9.84375 4.14583C9.58487 4.14583 9.375 4.3557 9.375 4.61458C9.375 4.87347 9.58487 5.08333 9.84375 5.08333C10.1026 5.08333 10.3125 4.87347 10.3125 4.61458Z" stroke="#555555" stroke-width="1.5" stroke-linecap="round" stroke-linejoin="round"/>
<path d="M10.3125 16.2812C10.3125 16.0224 10.1026 15.8125 9.84375 15.8125C9.58487 15.8125 9.375 16.0224 9.375 16.2812C9.375 16.5401 9.58487 16.75 9.84375 16.75C10.1026 16.75 10.3125 16.5401 10.3125 16.2812Z" stroke="#555555" stroke-width="1.5" stroke-linecap="round" stroke-linejoin="round"/>
</svg>
