<svg width="24" height="25" viewBox="0 0 24 25" fill="none" xmlns="http://www.w3.org/2000/svg">
<path d="M8.86328 12.3184C8.86328 14.3926 7.57129 15.5879 5.89258 15.5879C4.19629 15.5879 2.91309 14.3838 2.91309 12.3184C2.91309 10.2441 4.19629 9.04883 5.89258 9.04883C7.57129 9.04883 8.86328 10.2441 8.86328 12.3184ZM7.51855 12.3184C7.51855 10.9561 6.87695 10.2178 5.89258 10.2178C4.9082 10.2178 4.25781 10.9561 4.25781 12.3184C4.25781 13.6807 4.9082 14.4189 5.89258 14.4189C6.87695 14.4189 7.51855 13.6807 7.51855 12.3184ZM13.7964 11.3516C13.6909 10.6484 13.146 10.2178 12.4077 10.2178C11.4146 10.2178 10.7642 10.9824 10.7642 12.3184C10.7642 13.6895 11.4234 14.4189 12.3989 14.4189C13.1284 14.4189 13.6646 14.0146 13.7964 13.3291L15.1323 13.3379C14.9829 14.5156 13.9986 15.5879 12.3814 15.5879C10.6763 15.5879 9.41945 14.3926 9.41945 12.3184C9.41945 10.2441 10.7027 9.04883 12.3814 9.04883C13.8491 9.04883 14.9566 9.89258 15.1323 11.3516H13.7964ZM15.7852 15.5V9.13672H18.2813C19.7315 9.13672 20.5577 9.9541 20.5577 11.2109C20.5577 12.0811 20.1578 12.7139 19.4327 13.0215L20.7862 15.5H19.3272L18.1143 13.2412H17.1036V15.5H15.7852ZM17.1036 12.1689H18.0352C18.8174 12.1689 19.1954 11.8438 19.1954 11.2109C19.1954 10.5693 18.8174 10.2178 18.0352 10.2178H17.1036V12.1689Z" fill="#9E4EFF"/>
<path d="M19.5 3.5H22.5V6.5" stroke="#515151" stroke-width="1.5" stroke-linecap="round" stroke-linejoin="round"/>
<path d="M4.5 3.5H1.5V6.5" stroke="#515151" stroke-width="1.5" stroke-linecap="round" stroke-linejoin="round"/>
<path d="M19.5 21.5H22.5V18.5" stroke="#515151" stroke-width="1.5" stroke-linecap="round" stroke-linejoin="round"/>
<path d="M4.5 21.5H1.5V18.5" stroke="#515151" stroke-width="1.5" stroke-linecap="round" stroke-linejoin="round"/>
</svg>
