<svg width="97" height="97" viewBox="0 0 97 97" fill="none" xmlns="http://www.w3.org/2000/svg">
<g clip-path="url(#clip0_3536_18901)">
<path d="M43.5222 34.5764C45.9903 37.0445 45.9903 41.0415 43.5222 43.5095C41.0542 45.9776 37.0572 45.9776 34.5891 43.5095L24.8012 33.7216C22.3332 31.2536 22.3332 27.2566 24.8012 24.7885C27.2693 22.3205 31.2663 22.3205 33.7343 24.7885L43.5222 34.5764Z" fill="white" stroke="#B7B7B7" stroke-width="3"/>
<path d="M24.8965 64.0125L40.4873 48.4097" stroke="#B7B7B7" stroke-width="3"/>
<path d="M32.9873 72.103L48.5781 56.5122" stroke="#B7B7B7" stroke-width="3"/>
<path d="M39.5607 69.117C41.4268 70.9831 41.4268 73.9929 39.5607 75.8589L21.6343 93.7854C19.7683 95.6514 16.7585 95.6514 14.8924 93.7854L3.20229 82.0953C1.33621 80.2292 1.33621 77.2073 3.20229 75.3533L21.1287 57.4269C22.9948 55.5608 26.0046 55.5608 27.8707 57.4269L39.5607 69.117Z" fill="#CCCFEA" stroke="#787EC1" stroke-width="3" stroke-linecap="round" stroke-linejoin="round"/>
<path d="M14.1582 82.8296L28.6053 68.3945" stroke="#787EC1" stroke-width="3" stroke-linecap="round" stroke-linejoin="round"/>
<path d="M64 24.897L48.4092 40.4878" stroke="#B7B7B7" stroke-width="3"/>
<path d="M72.1025 32.9873L56.5117 48.5781" stroke="#B7B7B7" stroke-width="3"/>
<path d="M69.117 39.5607C70.9831 41.4268 73.9929 41.4268 75.8589 39.5607L93.7854 21.6343C95.6514 19.7683 95.6514 16.7585 93.7854 14.8924L82.0953 3.20229C80.2292 1.33621 77.2194 1.33621 75.3533 3.20229L57.4269 21.1287C55.5608 22.9948 55.5608 26.0046 57.4269 27.8707L69.117 39.5607Z" fill="#CCCFEA" stroke="#787EC1" stroke-width="3" stroke-linecap="round" stroke-linejoin="round"/>
<path d="M82.8296 14.1582L68.3945 28.6053" stroke="#787EC1" stroke-width="3" stroke-linecap="round" stroke-linejoin="round"/>
<path d="M42.4647 27.5777L27.584 42.4585L54.9448 69.8193L69.8256 54.9386L42.4647 27.5777Z" fill="white" stroke="#787EC1" stroke-width="3"/>
<path d="M90.2464 61.3036C82.2524 53.3096 69.2982 53.3096 61.3041 61.3036C53.3101 69.2977 53.3101 82.2519 61.3041 90.2459C61.3643 90.3061 61.4245 90.3543 61.4847 90.4145L90.415 61.4842C90.415 61.4842 90.3066 61.3638 90.2464 61.3036Z" fill="#787EC1" stroke="#787EC1" stroke-width="3" stroke-linecap="round" stroke-linejoin="round"/>
<path d="M85.4059 75.293C85.4059 77.8814 84.4187 80.4698 82.4443 82.4443C80.4698 84.4187 77.8814 85.4059 75.293 85.4059" fill="white"/>
<path d="M85.4059 75.293C85.4059 77.8814 84.4187 80.4698 82.4443 82.4443C80.4698 84.4187 77.8814 85.4059 75.293 85.4059" stroke="#B7B7B7" stroke-width="3"/>
<path d="M75.293 94.556C80.229 94.556 85.1531 92.6779 88.9214 88.9096C92.6776 85.1534 94.5678 80.2173 94.5678 75.2812" fill="white"/>
<path d="M75.293 94.556C80.229 94.556 85.1531 92.6779 88.9214 88.9096C92.6776 85.1534 94.5678 80.2173 94.5678 75.2812" stroke="#B7B7B7" stroke-width="3"/>
</g>
<defs>
<clipPath id="clip0_3536_18901">
<rect width="97" height="97" fill="white"/>
</clipPath>
</defs>
</svg>
