<svg width="97" height="97" viewBox="0 0 97 97" fill="none" xmlns="http://www.w3.org/2000/svg">
<path d="M79.5649 33.2121C79.5649 41.9358 72.4993 49.0014 63.7756 49.0014C55.0519 49.0014 47.9863 41.9358 47.9863 33.2121C47.9863 24.4884 55.0519 17.4229 63.7756 17.4229C72.4993 17.4229 79.5649 24.4884 79.5649 33.2121Z" fill="#787EC1"/>
<path d="M79.2923 56.2773H48.2582C39.683 56.2773 32.7412 63.2192 32.7412 71.7944V95.1318H94.8093V71.7944C94.8093 63.2192 87.8675 56.2773 79.2923 56.2773Z" fill="#CCCFEA" stroke="#787EC1" stroke-width="3"/>
<path d="M46.7734 73.2793V95.1442" stroke="#787EC1" stroke-width="3"/>
<path d="M80.7773 95.1442V73.2793" stroke="#787EC1" stroke-width="3"/>
<path d="M21.4438 6.11279L25.0818 17.5464L37.0722 17.4722L27.3339 24.4635L31.1079 35.8476L21.4438 28.7449L11.7797 35.8476L15.5538 24.4635L5.81543 17.4722L17.8059 17.5464L21.4438 6.11279Z" fill="white" stroke="#787EC1" stroke-width="3"/>
</svg>
