<svg width="97" height="97" viewBox="0 0 97 97" fill="none" xmlns="http://www.w3.org/2000/svg">
<g clip-path="url(#clip0_3536_18928)">
<path d="M39.49 19.6567C39.49 14.5933 43.63 10.475 48.72 10.475C53.81 10.475 57.95 14.5933 57.95 19.6567V41.7107H66.98V19.6567C66.98 9.61946 58.81 1.49219 48.72 1.49219C38.63 1.49219 30.46 9.61946 30.46 19.6567V41.7107H39.49V19.6567Z" fill="#CCCFEA" stroke="#787EC1" stroke-width="3"/>
<path d="M25.86 34.7075H71.59C74.83 34.7075 77.45 37.3238 77.45 40.5369V80.1884C77.45 83.4114 74.82 86.0177 71.59 86.0177H25.86C22.62 86.0177 20 83.4015 20 80.1884V40.5369C20 37.3138 22.63 34.7075 25.86 34.7075Z" fill="white" stroke="#B7B7B7" stroke-width="3"/>
<path d="M70.2402 43.2031V77.5426V43.2031Z" fill="white"/>
<path d="M70.2402 43.2031V77.5426" stroke="#B7B7B7" stroke-width="3"/>
<path d="M55.1203 52.7625C55.1203 49.251 52.2603 46.396 48.7203 46.396C45.1803 46.396 42.3203 49.241 42.3203 52.7625C42.3203 55.4285 43.9703 57.7065 46.3103 58.6615L42.7603 67.8432H54.6803L51.1303 58.6615C53.4703 57.7165 55.1203 55.4385 55.1203 52.7625Z" fill="#CCCFEA" stroke="#787EC1" stroke-width="3"/>
<path d="M82 95.5078H15" stroke="#787EC1" stroke-width="3"/>
</g>
<defs>
<clipPath id="clip0_3536_18928">
<rect width="97" height="97" fill="white"/>
</clipPath>
</defs>
</svg>
