<svg width="16" height="17" viewBox="0 0 16 17" fill="none" xmlns="http://www.w3.org/2000/svg">
<path fill-rule="evenodd" clip-rule="evenodd" d="M8 4C8.27614 4 8.5 4.22386 8.5 4.5L8.5 12.5C8.5 12.7761 8.27614 13 8 13C7.72386 13 7.5 12.7761 7.5 12.5L7.5 4.5C7.5 4.22386 7.72386 4 8 4Z" fill="#333333"/>
<path fill-rule="evenodd" clip-rule="evenodd" d="M3.5 8.5C3.5 8.22386 3.72386 8 4 8L12 8C12.2761 8 12.5 8.22386 12.5 8.5C12.5 8.77614 12.2761 9 12 9L4 9C3.72386 9 3.5 8.77614 3.5 8.5Z" fill="#333333"/>
</svg>
