<svg width="24" height="25" viewBox="0 0 24 25" fill="none" xmlns="http://www.w3.org/2000/svg">
<path d="M21.818 11.6816V14.6816C21.818 15.4344 21.5126 16.1162 21.0216 16.6125C20.5307 17.1089 19.8489 17.4089 19.0907 17.4089H4.90891C4.15619 17.4089 3.47437 17.1035 2.978 16.6125C2.48164 16.1216 2.18164 15.4398 2.18164 14.6816V11.6816" stroke="#515151" stroke-width="1.5" stroke-linecap="round" stroke-linejoin="round"/>
<path d="M2.18164 5.40891C2.18164 4.65619 2.4871 3.97437 2.978 3.478C3.46891 2.98164 4.15073 2.68164 4.90891 2.68164H19.0907C19.8435 2.68164 20.5253 2.9871 21.0216 3.478C21.5126 3.97437 21.818 4.65619 21.818 5.40891" stroke="#515151" stroke-width="1.5" stroke-linecap="round" stroke-linejoin="round"/>
<path d="M17.591 21.1894C17.591 21.8549 17.051 22.4003 16.3801 22.4003H7.62009C6.95463 22.4003 6.40918 21.8603 6.40918 21.1894C6.40918 20.524 6.94918 19.9785 7.62009 19.9785H16.3855C17.051 19.9785 17.5965 20.5185 17.5965 21.1894H17.591Z" stroke="#515151" stroke-width="1.5" stroke-linecap="round" stroke-linejoin="round"/>
<path d="M9.65527 14V6.22266H12.7061C14.4785 6.22266 15.4883 7.30762 15.4883 8.84375C15.4883 10.4014 14.457 11.4648 12.6631 11.4648H11.2666V14H9.65527ZM11.2666 10.165H12.4053C13.3613 10.165 13.8232 9.62793 13.8232 8.84375C13.8232 8.07031 13.3613 7.54395 12.4053 7.54395H11.2666V10.165Z" fill="#9E4EFF"/>
</svg>
