<svg width="24" height="24" viewBox="0 0 24 24" fill="none" xmlns="http://www.w3.org/2000/svg">
<path d="M5.81384 10.6974C5.5067 11.8436 5.54633 13.0551 5.92774 14.1788C6.30915 15.3024 7.0152 16.2877 7.9566 17.0101C8.898 17.7325 10.0325 18.1595 11.2166 18.2371C12.4006 18.3148 13.5812 18.0395 14.6088 17.4462M17.4041 13.8026C17.7113 12.6564 17.6716 11.4449 17.2902 10.3212C16.9088 9.19758 16.2028 8.21225 15.2614 7.48987C14.32 6.76748 13.1855 6.34048 12.0014 6.26285C10.8173 6.18523 9.63681 6.46047 8.60916 7.05378" stroke="#776CBF" stroke-linecap="round"/>
<path d="M3 12.7716L5.60854 10.1631L8.21709 12.7716M14.9993 11.7282L17.6078 14.3368L20.2164 11.7282" stroke="#776CBF" stroke-linecap="round" stroke-linejoin="round"/>
</svg>
