<svg width="24" height="24" viewBox="0 0 24 24" fill="none" xmlns="http://www.w3.org/2000/svg">
<path fill-rule="evenodd" clip-rule="evenodd" d="M6 12C6 8.68629 8.68629 6 12 6C13.7763 6 15.3727 6.77126 16.4724 8.00012H16.0002C15.448 8.00012 15.0002 8.44784 15.0002 9.00012C15.0002 9.55241 15.448 10.0001 16.0002 10.0001L19.0002 10.0001C19.5525 10.0001 20.0002 9.55241 20.0002 9.00012V6.00012C20.0002 5.44784 19.5525 5.00012 19.0002 5.00012C18.448 5.00012 18.0002 5.44784 18.0002 6.00012V6.70873C16.5354 5.04899 14.3903 4 12 4C7.58172 4 4 7.58172 4 12C4 16.4183 7.58172 20 12 20C16.0804 20 19.4459 16.9461 19.9382 12.9987C20.0065 12.4507 19.6176 11.951 19.0696 11.8827C18.5215 11.8143 18.0219 12.2032 17.9535 12.7513C17.5846 15.71 15.059 18 12 18C8.68629 18 6 15.3137 6 12Z" fill="#8553FE"/>
</svg>
