<svg width="32" height="32" viewBox="0 0 32 32" fill="none" xmlns="http://www.w3.org/2000/svg">
<path d="M18.3357 28C19.1604 28 19.7442 27.2903 20.1677 26.1905L27.6678 6.58868C27.874 6.06175 28 5.59202 28 5.20244C28 4.458 27.5305 4 26.786 4C26.3966 4 25.9271 4.11438 25.4005 4.32065L5.70647 11.8697C4.74405 12.2363 4 12.8204 4 13.6567C4 14.7105 4.80169 15.0659 5.90091 15.3983L14.168 17.8266L16.5726 25.9949C16.916 27.1519 17.2712 28 18.3362 28M14.6839 16.086L6.78272 13.6684C6.59952 13.6108 6.54236 13.5648 6.54236 13.4846C6.54236 13.4045 6.58779 13.3478 6.75976 13.2789L22.2401 7.41328C23.1561 7.06965 24.0379 6.61116 24.8851 6.22159C24.1298 6.84041 23.1908 7.57361 22.5611 8.20367L14.6839 16.086ZM18.5194 25.4802C18.428 25.4802 18.3821 25.3996 18.325 25.2163L15.9086 17.3119L23.7863 9.43006C24.4048 8.81124 25.1718 7.8488 25.7791 7.07014C25.3897 7.9402 24.9315 8.82248 24.5768 9.75071L18.7143 25.2393C18.6454 25.4113 18.5995 25.4802 18.5194 25.4802Z" fill="#AAAAAA"/>
</svg>
