<svg width="25" height="24" viewBox="0 0 25 24" fill="none" xmlns="http://www.w3.org/2000/svg">
<path d="M21.2623 14.2879L19.8723 13.1629C19.9381 12.7811 19.9721 12.3914 19.9721 12.0016C19.9721 11.6119 19.9381 11.2221 19.8723 10.8404L21.2623 9.71531C21.3672 9.63034 21.4422 9.51717 21.4774 9.39084C21.5127 9.26452 21.5065 9.13103 21.4597 9.00812L21.4406 8.95588C21.0579 7.94336 20.4849 7.00475 19.7492 6.18538L19.711 6.14319C19.6218 6.04384 19.5028 5.97243 19.3699 5.93836C19.2369 5.90429 19.0961 5.90916 18.9662 5.95233L17.2409 6.53295C16.6042 6.03872 15.8933 5.64896 15.1251 5.37572L14.7919 3.66802C14.7668 3.53952 14.7009 3.42131 14.6031 3.32908C14.5053 3.23686 14.3802 3.17498 14.2444 3.15168L14.1871 3.14164C13.0815 2.95279 11.9185 2.95279 10.8129 3.14164L10.7556 3.15168C10.6198 3.17498 10.4947 3.23686 10.3969 3.32908C10.2991 3.42131 10.2332 3.53952 10.2081 3.66802L9.87279 5.38376C9.11071 5.65705 8.40102 6.0466 7.77187 6.53696L6.03384 5.95233C5.90389 5.90881 5.76303 5.90377 5.62999 5.93786C5.49694 5.97195 5.378 6.04357 5.28897 6.14319L5.25077 6.18538C4.51597 7.00533 3.94306 7.94379 3.55942 8.95588L3.54032 9.00812C3.44483 9.25925 3.52335 9.54052 3.73768 9.71531L5.14466 10.8524C5.07888 11.2301 5.04704 11.6159 5.04704 11.9996C5.04704 12.3854 5.07888 12.7711 5.14466 13.1468L3.73768 14.2839C3.63284 14.3689 3.5578 14.4821 3.52255 14.6084C3.4873 14.7347 3.4935 14.8682 3.54032 14.9911L3.55942 15.0434C3.94353 16.0559 4.51227 16.9901 5.25077 17.8139L5.28897 17.8561C5.37821 17.9554 5.49716 18.0268 5.63013 18.0609C5.7631 18.095 5.90385 18.0901 6.03384 18.0469L7.77187 17.4623C8.40427 17.9545 9.11094 18.3443 9.87279 18.6155L10.2081 20.3312C10.2332 20.4597 10.2991 20.5779 10.3969 20.6702C10.4947 20.7624 10.6198 20.8243 10.7556 20.8476L10.8129 20.8576C11.9287 21.0475 13.0713 21.0475 14.1871 20.8576L14.2444 20.8476C14.3802 20.8243 14.5053 20.7624 14.6031 20.6702C14.7009 20.5779 14.7668 20.4597 14.7919 20.3312L15.1251 18.6235C15.893 18.351 16.6079 17.96 17.2409 17.4663L18.9662 18.0469C19.0961 18.0904 19.237 18.0955 19.37 18.0614C19.5031 18.0273 19.622 17.9557 19.711 17.8561L19.7492 17.8139C20.4877 16.9881 21.0565 16.0559 21.4406 15.0434L21.4597 14.9911C21.5552 14.744 21.4766 14.4627 21.2623 14.2879V14.2879ZM18.3656 11.0775C18.4186 11.3808 18.4462 11.6922 18.4462 12.0036C18.4462 12.315 18.4186 12.6264 18.3656 12.9298L18.2255 13.7355L19.8108 15.0192C19.5705 15.5434 19.2671 16.0396 18.9067 16.4979L16.9374 15.8369L16.271 16.3553C15.7638 16.7491 15.1994 17.0585 14.5882 17.2754L13.7796 17.5627L13.3998 19.5115C12.8004 19.5758 12.1953 19.5758 11.596 19.5115L11.2161 17.5587L10.4139 17.2674C9.80913 17.0504 9.24676 16.741 8.74381 16.3493L8.07746 15.8289L6.09538 16.4959C5.73462 16.0358 5.43327 15.5396 5.19135 15.0172L6.79357 13.7214L6.65563 12.9178C6.60469 12.6184 6.57711 12.309 6.57711 12.0036C6.57711 11.6963 6.60257 11.3889 6.65563 11.0895L6.79357 10.2859L5.19135 8.99004C5.43115 8.46567 5.73462 7.97144 6.09538 7.51136L8.07746 8.17837L8.74381 7.65802C9.24676 7.26626 9.80913 6.95686 10.4139 6.73988L11.2182 6.45258L11.5981 4.49977C12.1944 4.43548 12.8035 4.43548 13.4019 4.49977L13.7818 6.44857L14.5903 6.73586C15.1994 6.95284 15.766 7.26224 16.2732 7.65602L16.9395 8.17435L18.9089 7.51337C19.2696 7.97345 19.571 8.46969 19.8129 8.99205L18.2277 10.2758L18.3656 11.0775ZM12.5021 8.26677C10.4394 8.26677 8.76716 9.84992 8.76716 11.8027C8.76716 13.7555 10.4394 15.3387 12.5021 15.3387C14.5648 15.3387 16.2371 13.7555 16.2371 11.8027C16.2371 9.84992 14.5648 8.26677 12.5021 8.26677ZM14.1829 13.3939C13.9624 13.6032 13.7004 13.7692 13.412 13.8823C13.1235 13.9954 12.8143 14.0533 12.5021 14.0529C11.8676 14.0529 11.2713 13.8178 10.8214 13.3939C10.6003 13.1852 10.425 12.9372 10.3055 12.6641C10.1861 12.391 10.1248 12.0983 10.1253 11.8027C10.1253 11.202 10.3736 10.6375 10.8214 10.2115C11.2713 9.78563 11.8676 9.55258 12.5021 9.55258C13.1366 9.55258 13.733 9.78563 14.1829 10.2115C14.4039 10.4202 14.5792 10.6683 14.6987 10.9413C14.8182 11.2144 14.8794 11.5072 14.8789 11.8027C14.8789 12.4034 14.6306 12.968 14.1829 13.3939Z" fill="white"/>
</svg>
