<svg width="24" height="24" viewBox="0 0 24 24" fill="none" xmlns="http://www.w3.org/2000/svg">
<path d="M20.7623 14.2879L19.3723 13.1629C19.4381 12.7811 19.4721 12.3914 19.4721 12.0016C19.4721 11.6119 19.4381 11.2221 19.3723 10.8404L20.7623 9.71531C20.8672 9.63034 20.9422 9.51717 20.9774 9.39084C21.0127 9.26452 21.0065 9.13103 20.9597 9.00812L20.9406 8.95588C20.5579 7.94336 19.9849 7.00475 19.2492 6.18538L19.211 6.14319C19.1218 6.04384 19.0028 5.97243 18.8699 5.93836C18.7369 5.90429 18.5961 5.90916 18.4662 5.95233L16.7409 6.53295C16.1042 6.03872 15.3933 5.64896 14.6251 5.37572L14.2919 3.66802C14.2668 3.53952 14.2009 3.42131 14.1031 3.32908C14.0053 3.23686 13.8802 3.17498 13.7444 3.15168L13.6871 3.14164C12.5815 2.95279 11.4185 2.95279 10.3129 3.14164L10.2556 3.15168C10.1198 3.17498 9.99465 3.23686 9.89686 3.32908C9.79906 3.42131 9.73322 3.53952 9.70809 3.66802L9.37279 5.38376C8.61071 5.65705 7.90102 6.0466 7.27187 6.53696L5.53384 5.95233C5.40389 5.90881 5.26303 5.90377 5.12999 5.93786C4.99694 5.97195 4.878 6.04357 4.78897 6.14319L4.75077 6.18538C4.01597 7.00533 3.44306 7.94379 3.05942 8.95588L3.04032 9.00812C2.94483 9.25925 3.02335 9.54052 3.23768 9.71531L4.64466 10.8524C4.57888 11.2301 4.54704 11.6159 4.54704 11.9996C4.54704 12.3854 4.57888 12.7711 4.64466 13.1468L3.23768 14.2839C3.13284 14.3689 3.0578 14.4821 3.02255 14.6084C2.9873 14.7347 2.9935 14.8682 3.04032 14.9911L3.05942 15.0434C3.44353 16.0559 4.01227 16.9901 4.75077 17.8139L4.78897 17.8561C4.87821 17.9554 4.99716 18.0268 5.13013 18.0609C5.2631 18.095 5.40385 18.0901 5.53384 18.0469L7.27187 17.4623C7.90427 17.9545 8.61094 18.3443 9.37279 18.6155L9.70809 20.3312C9.73322 20.4597 9.79906 20.5779 9.89686 20.6702C9.99465 20.7624 10.1198 20.8243 10.2556 20.8476L10.3129 20.8576C11.4287 21.0475 12.5713 21.0475 13.6871 20.8576L13.7444 20.8476C13.8802 20.8243 14.0053 20.7624 14.1031 20.6702C14.2009 20.5779 14.2668 20.4597 14.2919 20.3312L14.6251 18.6235C15.393 18.351 16.1079 17.96 16.7409 17.4663L18.4662 18.0469C18.5961 18.0904 18.737 18.0955 18.87 18.0614C19.0031 18.0273 19.122 17.9557 19.211 17.8561L19.2492 17.8139C19.9877 16.9881 20.5565 16.0559 20.9406 15.0434L20.9597 14.9911C21.0552 14.744 20.9767 14.4627 20.7623 14.2879ZM17.8656 11.0775C17.9186 11.3808 17.9462 11.6922 17.9462 12.0036C17.9462 12.315 17.9186 12.6264 17.8656 12.9298L17.7255 13.7355L19.3108 15.0192C19.0705 15.5434 18.7671 16.0396 18.4067 16.4979L16.4374 15.8369L15.771 16.3553C15.2638 16.7491 14.6994 17.0585 14.0882 17.2754L13.2796 17.5627L12.8998 19.5115C12.3004 19.5758 11.6953 19.5758 11.096 19.5115L10.7161 17.5587L9.91394 17.2674C9.30913 17.0504 8.74676 16.741 8.24381 16.3493L7.57746 15.8289L5.59538 16.4959C5.23462 16.0358 4.93327 15.5396 4.69135 15.0172L6.29357 13.7214L6.15563 12.9178C6.10469 12.6184 6.07711 12.309 6.07711 12.0036C6.07711 11.6963 6.10257 11.3889 6.15563 11.0895L6.29357 10.2859L4.69135 8.99004C4.93115 8.46567 5.23462 7.97144 5.59538 7.51136L7.57746 8.17837L8.24381 7.65802C8.74676 7.26626 9.30913 6.95686 9.91394 6.73988L10.7182 6.45258L11.0981 4.49977C11.6944 4.43548 12.3035 4.43548 12.9019 4.49977L13.2818 6.44857L14.0903 6.73586C14.6994 6.95284 15.266 7.26224 15.7732 7.65602L16.4395 8.17435L18.4089 7.51337C18.7696 7.97345 19.071 8.46969 19.3129 8.99205L17.7277 10.2758L17.8656 11.0775ZM12.0021 8.26677C9.9394 8.26677 8.26716 9.84992 8.26716 11.8027C8.26716 13.7555 9.9394 15.3387 12.0021 15.3387C14.0648 15.3387 15.7371 13.7555 15.7371 11.8027C15.7371 9.84992 14.0648 8.26677 12.0021 8.26677ZM13.6829 13.3939C13.4624 13.6032 13.2004 13.7692 12.912 13.8823C12.6235 13.9954 12.3143 14.0533 12.0021 14.0529C11.3676 14.0529 10.7713 13.8178 10.3214 13.3939C10.1003 13.1852 9.925 12.9372 9.80554 12.6641C9.68609 12.391 9.62484 12.0983 9.62532 11.8027C9.62532 11.202 9.87361 10.6375 10.3214 10.2115C10.7713 9.78563 11.3676 9.55258 12.0021 9.55258C12.6366 9.55258 13.233 9.78563 13.6829 10.2115C13.9039 10.4202 14.0792 10.6683 14.1987 10.9413C14.3182 11.2144 14.3794 11.5072 14.3789 11.8027C14.3789 12.4034 14.1306 12.968 13.6829 13.3939Z" fill="#E2D7EF"/>
</svg>
