<svg width="65" height="64" viewBox="0 0 65 64" fill="none" xmlns="http://www.w3.org/2000/svg">
<rect x="0.5" width="64" height="64" rx="24" fill="#6EC0E3"/>
<g clip-path="url(#clip0_2948_18424)">
<path d="M33.294 20C33.6468 20 33.9624 20.2196 34.0812 20.5484L34.9284 22.8968C35.232 22.9724 35.4924 23.048 35.7132 23.1272C35.9544 23.2136 36.2652 23.3444 36.6492 23.5232L38.622 22.4792C38.7831 22.3939 38.9674 22.3631 39.1474 22.3914C39.3274 22.4198 39.4934 22.5057 39.6204 22.6364L41.3556 24.4304C41.586 24.6692 41.6508 25.0184 41.5212 25.3232L40.596 27.4916C40.7496 27.7736 40.872 28.0148 40.9656 28.2164C41.0664 28.436 41.1912 28.7384 41.34 29.1284L43.4964 30.0524C43.8204 30.1904 44.0208 30.5144 43.9992 30.8612L43.8408 33.3512C43.83 33.513 43.7719 33.668 43.6738 33.7971C43.5757 33.9261 43.4418 34.0235 43.2888 34.0772L41.2464 34.8032C41.1876 35.0852 41.1264 35.3264 41.0616 35.5304C40.9571 35.8455 40.8378 36.1554 40.704 36.4592L41.73 38.7272C41.8025 38.8866 41.822 39.0649 41.7857 39.2361C41.7494 39.4074 41.6593 39.5625 41.5284 39.6788L39.5772 41.4212C39.4487 41.5355 39.2884 41.6077 39.1177 41.6283C38.947 41.6489 38.774 41.6168 38.622 41.5364L36.6108 40.4708C36.2962 40.6374 35.9716 40.7845 35.6388 40.9112L34.7604 41.24L33.9804 43.4C33.9226 43.5582 33.8184 43.6952 33.6813 43.7931C33.5443 43.8909 33.3808 43.9451 33.2124 43.9484L30.9324 44C30.7596 44.0045 30.5896 43.9554 30.4458 43.8593C30.3021 43.7633 30.1916 43.625 30.1296 43.4636L29.2104 41.0312C28.8968 40.924 28.5863 40.808 28.2792 40.6832C28.0281 40.5745 27.7808 40.4572 27.5376 40.3316L25.2576 41.306C25.1074 41.3701 24.9418 41.3891 24.7809 41.3608C24.6201 41.3325 24.4709 41.258 24.3516 41.1464L22.6644 39.5636C22.5388 39.4463 22.4533 39.2924 22.4199 39.1238C22.3865 38.9552 22.407 38.7803 22.4784 38.624L23.4588 36.488C23.3285 36.235 23.2076 35.9772 23.0964 35.7152C22.9667 35.3945 22.8467 35.0699 22.7364 34.742L20.5884 34.088C20.4138 34.0352 20.2616 33.9263 20.1552 33.7781C20.0489 33.6299 19.9945 33.4507 20.0004 33.2684L20.0844 30.9632C20.0904 30.8128 20.1374 30.6669 20.2203 30.5413C20.3032 30.4156 20.4189 30.315 20.5548 30.2504L22.8084 29.168C22.9128 28.7852 23.004 28.4876 23.0844 28.2704C23.1977 27.9803 23.3234 27.6952 23.4612 27.416L22.4844 25.352C22.4103 25.1953 22.3878 25.019 22.4201 24.8487C22.4525 24.6784 22.538 24.5227 22.6644 24.404L24.3492 22.8128C24.4673 22.7014 24.6151 22.6265 24.7748 22.5971C24.9345 22.5678 25.0992 22.5851 25.2492 22.6472L27.5268 23.588C27.7788 23.42 28.0068 23.2844 28.2132 23.1752C28.4592 23.0444 28.788 22.9076 29.202 22.76L29.994 20.5508C30.0526 20.3891 30.1596 20.2495 30.3005 20.1509C30.4414 20.0523 30.6093 19.9996 30.7812 20H33.294ZM32.0292 28.4228C30.0288 28.4228 28.4076 30.0248 28.4076 32.0024C28.4076 33.98 30.0288 35.5832 32.0292 35.5832C34.0284 35.5832 35.6496 33.98 35.6496 32.0024C35.6496 30.0248 34.0296 28.4228 32.0292 28.4228Z" fill="white"/>
</g>
<defs>
<clipPath id="clip0_2948_18424">
<rect width="24" height="24" fill="white" transform="translate(20 20)"/>
</clipPath>
</defs>
</svg>
