<svg width="219" height="219" viewBox="0 0 219 219" fill="none" xmlns="http://www.w3.org/2000/svg">
<path d="M207.591 153.377L187.619 136.383C180.466 129.186 176.531 119.645 176.531 109.499C176.531 99.3527 180.466 89.8048 187.619 82.6147L207.591 65.6213C207.649 65.5702 207.7 65.5191 207.759 65.468C215 58.2196 218.993 48.5914 218.993 38.3428C218.993 28.0942 215 18.4661 207.759 11.2176C192.809 -3.73921 168.473 -3.73921 153.523 11.2176C153.472 11.2687 153.421 11.3271 153.37 11.3782L136.377 31.3498C121.53 46.1169 97.4558 46.1169 82.6086 31.3498L65.6153 11.3782C65.5642 11.3198 65.5131 11.2687 65.462 11.2176C50.5126 -3.73191 26.1834 -3.73191 11.234 11.2249C3.98553 18.4661 0 28.1015 0 38.3428C0 48.5841 3.98553 58.2196 11.234 65.468C11.285 65.5191 11.3434 65.5702 11.4018 65.6213L31.3733 82.6147C38.5268 89.8121 42.4613 99.3527 42.4613 109.499C42.4613 119.645 38.5268 129.193 31.3733 136.383L11.4018 153.377C11.3434 153.428 11.2923 153.479 11.234 153.53C3.99283 160.771 0 170.407 0 180.655C0 190.904 3.98553 200.532 11.234 207.781C26.1834 222.737 50.5199 222.737 65.4693 207.781C65.5204 207.729 65.5715 207.671 65.6226 207.62L82.6159 187.648C97.4631 172.881 121.537 172.881 136.384 187.648L153.377 207.62C153.428 207.678 153.48 207.729 153.531 207.781C161.005 215.263 170.823 219 180.648 219C190.466 219 200.291 215.263 207.766 207.781C215.007 200.539 219 190.904 219 180.655C219 170.407 215.007 160.779 207.766 153.53C207.715 153.479 207.657 153.428 207.598 153.377H207.591ZM42.1985 141.654C39.7386 145.639 38.4246 150.231 38.4246 155.034C38.4246 161.859 41.0817 168.275 45.9066 173.1C50.7316 177.925 57.1479 180.582 63.9656 180.582C68.7614 180.582 73.3601 179.261 77.3383 176.808L70.6593 184.655C65.8197 189.459 59.4034 192.101 52.5784 192.101C45.7533 192.101 39.2714 189.429 34.4245 184.575C24.4388 174.589 24.4096 158.355 34.3442 148.333L42.1912 141.654H42.1985ZM34.3515 70.6507C24.4169 60.6284 24.4461 44.3942 34.4318 34.4084C39.2787 29.5541 45.7315 26.8825 52.5857 26.8825C59.4399 26.8825 65.827 29.5249 70.6666 34.3281L77.3456 42.1751C73.3601 39.7152 68.7687 38.4012 63.9729 38.4012C57.1479 38.4012 50.7316 41.0583 45.9139 45.8833C37.3881 54.4092 36.1691 67.5046 42.2277 77.3445L34.3588 70.6434L34.3515 70.6507ZM176.78 77.3518C182.838 67.5046 181.619 54.4165 173.093 45.8906C168.268 41.0656 161.852 38.4085 155.027 38.4085C150.231 38.4085 145.633 39.7298 141.654 42.1824L148.333 34.3354C153.173 29.5322 159.589 26.8898 166.414 26.8898C173.239 26.8898 179.721 29.5614 184.568 34.4157C194.554 44.4015 194.583 60.6357 184.641 70.6581L176.772 77.3591L176.78 77.3518ZM130.128 156.494C130.077 156.435 130.026 156.384 129.975 156.333C118.683 145.041 100.31 145.041 89.0176 156.333C88.9665 156.384 88.9154 156.443 88.8643 156.494L78.0172 169.246C74.2507 172.976 69.2651 175.027 63.9583 175.027C58.6516 175.027 53.6003 172.947 49.8265 169.173C46.0526 165.399 43.9723 160.377 43.9723 155.041C43.9723 149.705 46.0234 144.749 49.7462 140.982L62.4911 130.135C62.5495 130.084 62.6006 130.033 62.659 129.982C68.1264 124.514 71.1411 117.237 71.1411 109.499C71.1411 101.762 68.1264 94.4912 62.659 89.0165C62.6079 88.9654 62.5495 88.9143 62.4911 88.8632L49.7462 78.016C42.0306 70.2128 42.0525 57.5918 49.8192 49.8251C53.593 46.0512 58.6151 43.9708 63.951 43.9708C69.287 43.9708 74.2434 46.022 78.0099 49.7521L88.857 62.5044C88.9081 62.5628 88.9592 62.6139 89.0103 62.665C100.303 73.9575 118.675 73.9575 129.968 62.665C130.019 62.6139 130.07 62.5555 130.121 62.5044L140.968 49.7521C144.735 46.022 149.72 43.9708 155.027 43.9708C160.334 43.9708 165.385 46.0512 169.159 49.8251C176.926 57.5918 176.948 70.2201 169.232 78.016L156.487 88.8632C156.429 88.9143 156.377 88.9654 156.326 89.0165C145.034 100.309 145.034 118.682 156.326 129.982C156.377 130.033 156.436 130.084 156.487 130.135L169.232 140.982C172.962 144.749 175.006 149.734 175.006 155.041C175.006 160.348 172.925 165.399 169.152 169.173C165.378 172.947 160.356 175.027 155.02 175.027C149.684 175.027 144.727 172.976 140.961 169.246L130.114 156.494H130.128ZM160.181 125.967C151.158 116.857 151.158 102.127 160.181 93.0239L164.239 89.5712C160.268 95.4036 158.129 102.287 158.129 109.499C158.129 116.711 160.268 123.595 164.239 129.427L160.181 125.974V125.967ZM125.968 58.8035C116.865 67.8258 102.135 67.8258 93.025 58.8035L89.5504 54.7231C95.5433 58.7962 102.514 60.8474 109.493 60.8474C116.471 60.8474 123.442 58.8035 129.435 54.7231L125.96 58.8108L125.968 58.8035ZM58.8122 93.0239C63.1846 97.4329 65.5934 103.28 65.5934 109.499C65.5934 115.718 63.1846 121.558 58.8122 125.974L54.7318 129.449C62.878 117.456 62.878 101.55 54.7318 89.5566L58.8122 93.0312V93.0239ZM93.025 160.187C102.128 151.165 116.858 151.165 125.968 160.187L129.442 164.268C117.449 156.114 101.544 156.114 89.5504 164.268L93.025 160.18V160.187ZM155.027 180.582C161.852 180.582 168.268 177.925 173.093 173.1C177.918 168.275 180.575 161.859 180.575 155.034C180.575 150.238 179.254 145.639 176.802 141.654L184.648 148.333C194.583 158.355 194.554 174.589 184.568 184.575C179.721 189.429 173.269 192.101 166.414 192.101C159.56 192.101 153.173 189.459 148.333 184.655L141.654 176.808C145.64 179.268 150.231 180.582 155.027 180.582ZM183.283 139.873L172.378 130.595C166.772 124.945 163.684 117.456 163.684 109.492C163.684 101.528 166.772 94.0386 172.378 88.3887L183.283 79.111C175.349 87.3011 170.977 98.0607 170.977 109.492C170.977 120.923 175.349 131.682 183.283 139.873ZM157.524 15.0718C170.312 2.36324 191.057 2.38514 203.817 15.1521C210.014 21.3494 213.423 29.5833 213.423 38.3428C213.423 47.1023 210.044 55.2705 203.897 61.4606L188.977 74.1618C200.664 61.9424 200.51 42.5036 188.495 30.4885C182.597 24.5904 174.75 21.3348 166.407 21.3348C158.064 21.3348 150.669 24.4079 144.837 29.9994L157.531 15.0791L157.524 15.0718ZM139.873 35.6931L130.588 46.606C118.931 58.1831 100.047 58.1831 88.3898 46.606L79.1048 35.6931C96.0105 52.066 122.968 52.066 139.866 35.6931H139.873ZM5.55493 38.3428C5.55493 29.5833 8.9638 21.3494 15.1611 15.1521C27.9206 2.39244 48.6659 2.36324 61.4619 15.0718L74.1558 29.9921C68.3161 24.4079 60.6882 21.3275 52.5857 21.3275C44.4832 21.3275 36.3954 24.5758 30.4974 30.4812C18.4824 42.4963 18.3291 61.9351 30.0156 74.1545L15.0881 61.4533C8.9419 55.2705 5.56223 47.0658 5.56223 38.3428H5.55493ZM35.7019 79.111L46.6074 88.396C58.1844 100.053 58.1844 118.937 46.6074 130.602L35.7019 139.887C43.6365 131.697 48.0089 120.938 48.0089 109.506C48.0089 98.0752 43.6365 87.3157 35.7019 79.1256V79.111ZM61.4546 203.919C48.6659 216.628 27.9133 216.606 15.1538 203.839C8.9565 197.641 5.54763 189.408 5.54763 180.648C5.54763 171.889 8.92731 163.72 15.0735 157.538L30.001 144.836C18.3145 157.056 18.4678 176.495 30.4828 188.51C36.3808 194.408 44.2278 197.663 52.5711 197.663C60.9144 197.663 68.3089 194.59 74.1412 188.999L61.4473 203.919H61.4546ZM79.1048 183.298L88.3898 172.385C100.047 160.808 118.931 160.808 130.588 172.385L139.873 183.298C122.975 166.925 96.0178 166.918 79.1121 183.298H79.1048ZM203.817 203.839C191.057 216.598 170.312 216.628 157.524 203.919L144.83 188.999C150.669 194.583 158.297 197.656 166.4 197.656C174.502 197.656 182.59 194.408 188.488 188.502C200.503 176.487 200.656 157.048 188.97 144.829L203.89 157.53C210.036 163.713 213.416 171.918 213.416 180.648C213.416 189.378 210.007 197.641 203.81 203.839H203.817Z" fill="url(#paint0_linear_2219_12698)"/>
<defs>
<linearGradient id="paint0_linear_2219_12698" x1="109.493" y1="218.993" x2="109.493" y2="0.00548212" gradientUnits="userSpaceOnUse">
<stop stop-color="#FF19F5"/>
<stop offset="0.2" stop-color="#FA1BF5"/>
<stop offset="0.4" stop-color="#EE22F6"/>
<stop offset="0.61" stop-color="#D92DF8"/>
<stop offset="0.82" stop-color="#BC3DFB"/>
<stop offset="1" stop-color="#9E4EFF"/>
</linearGradient>
</defs>
</svg>
