<svg width="138" height="105" viewBox="0 0 138 105" fill="none" xmlns="http://www.w3.org/2000/svg">
<g clip-path="url(#clip0_36_2301)">
<path d="M33.4576 43C35.414 43 37.0001 41.433 37.0001 39.5C37.0001 37.567 35.414 36 33.4576 36C31.5011 36 29.915 37.567 29.915 39.5C29.915 41.433 31.5011 43 33.4576 43Z" fill="url(#paint0_linear_36_2301)"/>
<path d="M33.4572 45.3335C35.1963 45.3335 36.6058 46.726 36.6058 48.4443V60.8884C36.6058 62.6067 35.1963 63.9992 33.4572 63.9992C31.718 63.9992 30.3086 62.6067 30.3086 60.8884V48.4443C30.3086 46.726 31.718 45.3335 33.4572 45.3335Z" fill="url(#paint1_linear_36_2301)"/>
<path d="M25.2497 57.1971C23.8355 55.7999 23.8355 53.5347 25.2497 52.1375L27.0247 50.6451C28.2547 49.4299 28.2547 47.4606 27.0247 46.2454C25.7947 45.0302 23.8015 45.0302 22.5715 46.2454L21.061 47.9991C19.6468 49.3963 17.3541 49.3963 15.9399 47.9991L14.4294 46.2454C13.1994 45.0302 11.2061 45.0302 9.97618 46.2454C8.74622 47.4606 8.74622 49.4299 9.97618 50.6451L11.7512 52.1375C13.1654 53.5347 13.1654 55.7999 11.7512 57.1971L9.97618 58.6895C8.74622 59.9047 8.74622 61.8741 9.97618 63.0893C11.2061 64.3045 13.1994 64.3045 14.4294 63.0893L15.9399 61.3355C17.3541 59.9383 19.6468 59.9383 21.061 61.3355L22.5715 63.0893C23.8015 64.3045 25.7947 64.3045 27.0247 63.0893C28.2547 61.8741 28.2547 59.9047 27.0247 58.6895L25.2497 57.1971Z" fill="url(#paint2_linear_36_2301)"/>
<path d="M3.54252 43C5.499 43 7.08505 41.433 7.08505 39.5C7.08505 37.567 5.499 36 3.54252 36C1.58604 36 0 37.567 0 39.5C0 41.433 1.58604 43 3.54252 43Z" fill="url(#paint3_linear_36_2301)"/>
<path d="M3.54215 45.3335C1.80301 45.3335 0.393555 46.726 0.393555 48.4443V60.8884C0.393555 62.6067 1.80301 63.9992 3.54215 63.9992C5.28129 63.9992 6.69074 62.6067 6.69074 60.8884V48.4443C6.69074 46.726 5.28129 45.3335 3.54215 45.3335Z" fill="url(#paint4_linear_36_2301)"/>
</g>
<rect x="42" y="48.5" width="10" height="3" rx="1.5" fill="#333333"/>
<path d="M129.997 46.3599C134.281 46.3599 137.641 49.6079 137.641 53.6959C137.641 57.7839 134.281 61.0319 129.997 61.0319C125.713 61.0319 122.381 57.8119 122.381 53.6959C122.381 49.5799 125.713 46.3599 129.997 46.3599ZM130.025 50.7839C128.429 50.7839 127.309 51.9599 127.309 53.6959C127.309 55.4319 128.401 56.6079 130.025 56.6079C131.593 56.6079 132.713 55.3759 132.713 53.6959C132.713 52.0159 131.565 50.7839 130.025 50.7839Z" fill="#333333"/>
<path d="M118.344 38.9678C119.912 38.9678 121.228 40.1718 121.228 41.7398C121.228 43.2798 119.912 44.4838 118.344 44.4838C116.776 44.4838 115.488 43.2798 115.488 41.7398C115.488 40.1718 116.776 38.9678 118.344 38.9678ZM118.372 61.0318C117 61.0318 115.964 59.9958 115.964 58.5958V48.7958C115.964 47.3958 116.972 46.3598 118.372 46.3598C119.744 46.3598 120.78 47.3958 120.78 48.7958V58.5958C120.78 59.9958 119.772 61.0318 118.372 61.0318Z" fill="#333333"/>
<path d="M111.262 39.3599C112.634 39.3599 113.67 40.3959 113.67 41.7959V58.6239C113.67 59.9959 112.69 61.0319 111.346 61.0319C110.282 61.0319 109.442 60.3879 109.134 59.4359C108.238 60.4719 106.95 61.0319 105.27 61.0319C101.35 61.0319 98.5498 58.0079 98.5498 53.7239C98.5498 49.4399 101.35 46.3599 105.27 46.3599C106.782 46.3599 107.986 46.8079 108.854 47.6479V41.7959C108.854 40.3959 109.862 39.3599 111.262 39.3599ZM106.222 56.6639C107.846 56.6639 108.938 55.4599 108.938 53.7239C108.938 51.9599 107.818 50.7279 106.222 50.7279C104.626 50.7279 103.478 51.9599 103.478 53.6959C103.478 55.4599 104.598 56.6639 106.222 56.6639Z" fill="#333333"/>
<path d="M90.2399 61.0319C86.1799 61.0319 83.3799 58.2319 83.3799 54.1719V48.7959C83.3799 47.3959 84.4159 46.3599 85.7879 46.3599C87.1599 46.3599 88.1959 47.3959 88.1959 48.7959V54.5639C88.1959 55.7399 89.0639 56.6079 90.2399 56.6079C91.4159 56.6079 92.2559 55.7399 92.2559 54.5639V48.7959C92.2559 47.3959 93.2639 46.3599 94.6639 46.3599C96.0359 46.3599 97.0719 47.3959 97.0719 48.7959V54.1719C97.0719 58.2319 94.2719 61.0319 90.2399 61.0319Z" fill="#333333"/>
<path d="M80.063 56.72C81.351 56.72 82.191 57.504 82.191 58.708C82.191 59.548 81.771 60.22 81.127 60.556C80.539 60.864 79.895 61.032 79.027 61.032C75.023 61.032 72.867 59.044 72.867 55.348V50.728H72.475C71.327 50.728 70.459 49.86 70.459 48.712C70.459 47.536 71.327 46.696 72.475 46.696H72.867V45.436C72.867 44.036 73.875 43 75.275 43C76.647 43 77.683 44.036 77.683 45.436V46.696H79.699C80.875 46.696 81.715 47.536 81.715 48.712C81.715 49.86 80.875 50.728 79.699 50.728H77.683V54.872C77.683 56.216 78.327 56.72 79.951 56.72H80.063Z" fill="#333333"/>
<path d="M63.776 61.0318C61.732 61.0318 59.296 60.2198 57.98 58.9878C57.364 58.3998 57 57.7558 57 57.0278C57.028 55.7398 58.064 54.8998 59.156 54.8998C59.52 54.8998 59.912 55.0118 60.248 55.2358C60.668 55.5158 61.844 56.8038 63.776 56.8038C65.064 56.8038 65.68 56.3558 65.68 55.4598C65.68 54.5918 65.092 54.3118 63.804 53.7518L61.9 52.9118C58.96 51.6238 57.224 49.9438 57.224 47.3398C57.224 44.0358 60.024 41.8798 63.692 41.8798C66.94 41.8518 68.508 43.4758 68.956 44.0078C69.376 44.4838 69.516 44.9878 69.516 45.4358C69.516 46.6678 68.424 47.5918 67.36 47.5918C66.968 47.5918 66.548 47.4798 66.128 47.1718C65.512 46.7518 64.98 46.1078 63.748 46.1078C62.796 46.1078 62.096 46.4438 62.096 47.2838C62.096 47.9838 62.544 48.3198 63.692 48.7958L65.82 49.6918C68.9 50.9798 70.552 52.5478 70.552 55.2638C70.552 58.9038 67.584 61.0318 63.776 61.0318Z" fill="#333333"/>
<path opacity="0.1" d="M109.53 73.5368L99.9545 65.3893C96.5247 61.9385 94.6384 57.3643 94.6384 52.4996C94.6384 47.6348 96.5247 43.0571 99.9545 39.6098L109.53 31.4623C109.558 31.4378 109.582 31.4133 109.61 31.3888C113.082 27.9135 114.997 23.2973 114.997 18.3836C114.997 13.4698 113.082 8.85361 109.61 5.37831C102.443 -1.79277 90.7746 -1.79277 83.6071 5.37831C83.5826 5.40281 83.5581 5.43081 83.5336 5.45531L75.3861 15.0307C68.2676 22.1108 56.7254 22.1108 49.6069 15.0307L41.4594 5.45531C41.4349 5.42731 41.4104 5.40281 41.3859 5.37831C34.2184 -1.78927 22.5537 -1.78927 15.3861 5.38181C11.9109 8.85361 10 13.4733 10 18.3836C10 23.2938 11.9109 27.9135 15.3861 31.3888C15.4106 31.4133 15.4386 31.4378 15.4666 31.4623L25.042 39.6098C28.4718 43.0606 30.3581 47.6348 30.3581 52.4996C30.3581 57.3643 28.4718 61.942 25.042 65.3893L15.4666 73.5368C15.4386 73.5613 15.4141 73.5858 15.3861 73.6103C11.9144 77.0821 10 81.7019 10 86.6156C10 91.5293 11.9109 96.1455 15.3861 99.6208C22.5537 106.792 34.2219 106.792 41.3894 99.6208C41.4139 99.5963 41.4384 99.5683 41.4629 99.5438L49.6104 89.9684C56.7289 82.8883 68.2711 82.8883 75.3896 89.9684L83.5371 99.5438C83.5616 99.5718 83.5861 99.5963 83.6106 99.6208C87.1944 103.208 91.9016 105 96.6122 105C101.319 105 106.03 103.208 109.614 99.6208C113.086 96.149 115 91.5293 115 86.6156C115 81.7019 113.086 77.0856 109.614 73.6103C109.589 73.5858 109.561 73.5613 109.533 73.5368H109.53ZM30.2322 67.9162C29.0527 69.827 28.4228 72.0284 28.4228 74.3313C28.4228 77.6036 29.6967 80.6799 32.01 82.9933C34.3234 85.3066 37.3997 86.5806 40.6685 86.5806C42.9678 86.5806 45.1727 85.9471 47.08 84.7712L43.8777 88.5335C41.5574 90.8363 38.4811 92.1032 35.2088 92.1032C31.9365 92.1032 28.8287 90.8223 26.5049 88.495C21.7172 83.7072 21.7032 75.9237 26.4664 71.1185L30.2287 67.9162H30.2322ZM26.4699 33.8736C21.7067 29.0684 21.7207 21.2849 26.5084 16.4972C28.8322 14.1698 31.926 12.8889 35.2123 12.8889C38.4986 12.8889 41.5609 14.1558 43.8812 16.4587L47.0835 20.2209C45.1727 19.0415 42.9713 18.4115 40.672 18.4115C37.3997 18.4115 34.3234 19.6855 32.0135 21.9988C27.9258 26.0866 27.3413 32.3652 30.2462 37.083L26.4734 33.8701L26.4699 33.8736ZM94.7574 37.0865C97.6622 32.3652 97.0777 26.0901 92.99 22.0023C90.6766 19.689 87.6003 18.415 84.3281 18.415C82.0287 18.415 79.8239 19.0485 77.9165 20.2244L81.1188 16.4622C83.4391 14.1593 86.5154 12.8924 89.7877 12.8924C93.06 12.8924 96.1678 14.1733 98.4916 16.5007C103.279 21.2884 103.293 29.0719 98.5266 33.8771L94.7539 37.09L94.7574 37.0865ZM72.3903 75.0312C72.3658 75.0033 72.3414 74.9788 72.3169 74.9543C66.9027 69.5401 58.0938 69.5401 52.6797 74.9543C52.6552 74.9788 52.6307 75.0068 52.6062 75.0312L47.4055 81.1454C45.5996 82.9338 43.2093 83.9172 40.665 83.9172C38.1206 83.9172 35.6988 82.9198 33.8894 81.1104C32.08 79.301 31.0826 76.8931 31.0826 74.3348C31.0826 71.7764 32.066 69.4001 33.8509 67.5942L39.9615 62.3935C39.9895 62.369 40.014 62.3445 40.042 62.32C42.6633 59.6986 44.1087 56.2093 44.1087 52.4996C44.1087 48.7898 42.6633 45.304 40.042 42.6791C40.0175 42.6546 39.9895 42.6301 39.9615 42.6056L33.8509 37.4049C30.1517 33.6637 30.1622 27.6125 33.8859 23.8887C35.6953 22.0793 38.1031 21.0819 40.6615 21.0819C43.2198 21.0819 45.5961 22.0653 47.402 23.8537L52.6027 29.9679C52.6272 29.9959 52.6517 30.0204 52.6762 30.0449C58.0903 35.4591 66.8992 35.4591 72.3134 30.0449C72.3379 30.0204 72.3623 29.9924 72.3868 29.9679L77.5875 23.8537C79.3934 22.0653 81.7837 21.0819 84.3281 21.0819C86.8724 21.0819 89.2942 22.0793 91.1036 23.8887C94.8274 27.6125 94.8379 33.6672 91.1386 37.4049L85.028 42.6056C85 42.6301 84.9755 42.6546 84.951 42.6791C79.5369 48.0933 79.5369 56.9023 84.951 62.32C84.9755 62.3445 85.0035 62.369 85.028 62.3935L91.1386 67.5942C92.927 69.4001 93.9069 71.7904 93.9069 74.3348C93.9069 76.8791 92.9095 79.301 91.1001 81.1104C89.2907 82.9198 86.8829 83.9172 84.3245 83.9172C81.7662 83.9172 79.3899 82.9338 77.584 81.1454L72.3833 75.0312H72.3903ZM86.7989 60.3951C82.4732 56.0274 82.4732 48.9648 86.7989 44.6005L88.7448 42.9451C86.8409 45.7415 85.8155 49.0418 85.8155 52.4996C85.8155 55.9574 86.8409 59.2577 88.7448 62.054L86.7989 60.3986V60.3951ZM70.3955 28.1935C66.0313 32.5192 58.9687 32.5192 54.601 28.1935L52.9351 26.2371C55.8085 28.19 59.1507 29.1734 62.4965 29.1734C65.8423 29.1734 69.1846 28.1935 72.0579 26.2371L70.392 28.197L70.3955 28.1935ZM38.1976 44.6005C40.294 46.7144 41.4489 49.5177 41.4489 52.4996C41.4489 55.4814 40.294 58.2812 38.1976 60.3986L36.2413 62.0645C40.147 56.3143 40.147 48.6883 36.2413 42.9381L38.1976 44.604V44.6005ZM54.601 76.8021C58.9652 72.4764 66.0278 72.4764 70.3955 76.8021L72.0614 78.7585C66.3113 74.8493 58.6853 74.8493 52.9351 78.7585L54.601 76.7986V76.8021ZM84.3281 86.5806C87.6003 86.5806 90.6766 85.3066 92.99 82.9933C95.3033 80.6799 96.5772 77.6036 96.5772 74.3313C96.5772 72.0319 95.9438 69.827 94.7679 67.9162L98.5301 71.1185C103.293 75.9237 103.279 83.7072 98.4916 88.495C96.1678 90.8223 93.074 92.1032 89.7877 92.1032C86.5014 92.1032 83.4391 90.8363 81.1188 88.5335L77.9165 84.7712C79.8274 85.9506 82.0287 86.5806 84.3281 86.5806ZM97.8756 67.0622L92.647 62.614C89.9592 59.9051 88.4788 56.3143 88.4788 52.4961C88.4788 48.6778 89.9592 45.087 92.647 42.3781L97.8756 37.9299C94.0714 41.8567 91.975 47.0154 91.975 52.4961C91.975 57.9767 94.0714 63.1354 97.8756 67.0622ZM85.525 7.2262C91.6566 1.13306 101.603 1.14356 107.72 7.2647C110.692 10.236 112.326 14.1838 112.326 18.3836C112.326 22.5833 110.706 26.4996 107.759 29.4674L100.605 35.557C106.209 29.6984 106.135 20.3784 100.374 14.6178C97.5467 11.7899 93.7844 10.229 89.7842 10.229C85.784 10.229 82.2387 11.7024 79.4424 14.3833L85.5285 7.2297L85.525 7.2262ZM77.0625 17.1131L72.6108 22.3453C67.0217 27.896 57.9678 27.896 52.3787 22.3453L47.927 17.1131C56.0324 24.9632 68.9571 24.9632 77.059 17.1131H77.0625ZM12.6633 18.3836C12.6633 14.1838 14.2977 10.236 17.269 7.2647C23.3866 1.14706 33.3329 1.13306 39.468 7.2262L45.5541 14.3798C42.7543 11.7024 39.0971 10.2255 35.2123 10.2255C31.3276 10.2255 27.4498 11.7829 24.622 14.6143C18.8614 20.3749 18.7879 29.6949 24.391 35.5536L17.234 29.4639C14.2872 26.4996 12.6668 22.5658 12.6668 18.3836H12.6633ZM27.1174 37.9299L32.346 42.3816C37.8966 47.9708 37.8966 57.0248 32.346 62.6175L27.1174 67.0692C30.9216 63.1424 33.018 57.9837 33.018 52.5031C33.018 47.0224 30.9216 41.8637 27.1174 37.9369V37.9299ZM39.4645 97.7694C33.3329 103.863 23.3831 103.852 17.2655 97.7309C14.2942 94.7596 12.6598 90.8118 12.6598 86.6121C12.6598 82.4123 14.2802 78.496 17.227 75.5317L24.384 69.4421C18.7809 75.3007 18.8544 84.6207 24.615 90.3813C27.4428 93.2092 31.2051 94.7701 35.2053 94.7701C39.2056 94.7701 42.7508 93.2967 45.5471 90.6158L39.461 97.7694H39.4645ZM47.927 87.8825L52.3787 82.6503C57.9678 77.0996 67.0217 77.0996 72.6108 82.6503L77.0625 87.8825C68.9606 80.0325 56.0359 80.029 47.9305 87.8825H47.927ZM107.72 97.7309C101.603 103.849 91.6566 103.863 85.525 97.7694L79.4389 90.6158C82.2387 93.2932 85.896 94.7666 89.7807 94.7666C93.6654 94.7666 97.5432 93.2092 100.371 90.3779C106.132 84.6172 106.205 75.2972 100.602 69.4386L107.755 75.5282C110.702 78.4925 112.323 82.4263 112.323 86.6121C112.323 90.7978 110.688 94.7596 107.717 97.7309H107.72Z" fill="url(#paint5_linear_36_2301)"/>
<defs>
<linearGradient id="paint0_linear_36_2301" x1="33.4576" y1="64.0093" x2="33.4576" y2="45.31" gradientUnits="userSpaceOnUse">
<stop stop-color="#FF19F5"/>
<stop offset="0.2" stop-color="#FA1BF5"/>
<stop offset="0.4" stop-color="#EE22F6"/>
<stop offset="0.61" stop-color="#D92DF8"/>
<stop offset="0.82" stop-color="#BC3DFB"/>
<stop offset="1" stop-color="#9E4EFF"/>
</linearGradient>
<linearGradient id="paint1_linear_36_2301" x1="33.4572" y1="64.0002" x2="33.4572" y2="45.2999" gradientUnits="userSpaceOnUse">
<stop stop-color="#FF19F5"/>
<stop offset="0.2" stop-color="#FA1BF5"/>
<stop offset="0.4" stop-color="#EE22F6"/>
<stop offset="0.61" stop-color="#D92DF8"/>
<stop offset="0.82" stop-color="#BC3DFB"/>
<stop offset="1" stop-color="#9E4EFF"/>
</linearGradient>
<linearGradient id="paint2_linear_36_2301" x1="18.5" y1="64.0002" x2="18.5" y2="45.2999" gradientUnits="userSpaceOnUse">
<stop stop-color="#FF19F5"/>
<stop offset="0.2" stop-color="#FA1BF5"/>
<stop offset="0.4" stop-color="#EE22F6"/>
<stop offset="0.61" stop-color="#D92DF8"/>
<stop offset="0.82" stop-color="#BC3DFB"/>
<stop offset="1" stop-color="#9E4EFF"/>
</linearGradient>
<linearGradient id="paint3_linear_36_2301" x1="3.54252" y1="64.0093" x2="3.54252" y2="45.31" gradientUnits="userSpaceOnUse">
<stop stop-color="#FF19F5"/>
<stop offset="0.2" stop-color="#FA1BF5"/>
<stop offset="0.4" stop-color="#EE22F6"/>
<stop offset="0.61" stop-color="#D92DF8"/>
<stop offset="0.82" stop-color="#BC3DFB"/>
<stop offset="1" stop-color="#9E4EFF"/>
</linearGradient>
<linearGradient id="paint4_linear_36_2301" x1="3.54215" y1="64.0002" x2="3.54215" y2="45.2999" gradientUnits="userSpaceOnUse">
<stop stop-color="#FF19F5"/>
<stop offset="0.2" stop-color="#FA1BF5"/>
<stop offset="0.4" stop-color="#EE22F6"/>
<stop offset="0.61" stop-color="#D92DF8"/>
<stop offset="0.82" stop-color="#BC3DFB"/>
<stop offset="1" stop-color="#9E4EFF"/>
</linearGradient>
<linearGradient id="paint5_linear_36_2301" x1="62.4965" y1="104.997" x2="62.4965" y2="0.00262841" gradientUnits="userSpaceOnUse">
<stop stop-color="#FF19F5"/>
<stop offset="0.2" stop-color="#FA1BF5"/>
<stop offset="0.4" stop-color="#EE22F6"/>
<stop offset="0.61" stop-color="#D92DF8"/>
<stop offset="0.82" stop-color="#BC3DFB"/>
<stop offset="1" stop-color="#9E4EFF"/>
</linearGradient>
<clipPath id="clip0_36_2301">
<rect width="37" height="28" fill="white" transform="translate(0 36)"/>
</clipPath>
</defs>
</svg>
