<svg width="129" height="105" viewBox="0 0 129 105" fill="none" xmlns="http://www.w3.org/2000/svg">
<g opacity="0.1">
<path d="M107.53 73.5368L97.9545 65.3893C94.5247 61.9385 92.6384 57.3643 92.6384 52.4996C92.6384 47.6348 94.5247 43.0571 97.9545 39.6098L107.53 31.4623C107.558 31.4378 107.582 31.4133 107.61 31.3888C111.082 27.9135 112.997 23.2973 112.997 18.3836C112.997 13.4698 111.082 8.85361 107.61 5.37831C100.443 -1.79277 88.7746 -1.79277 81.6071 5.37831C81.5826 5.40281 81.5581 5.43081 81.5336 5.45531L73.3861 15.0307C66.2676 22.1108 54.7254 22.1108 47.6069 15.0307L39.4594 5.45531C39.4349 5.42731 39.4104 5.40281 39.3859 5.37831C32.2184 -1.78927 20.5537 -1.78927 13.3861 5.38181C9.91087 8.85361 8 13.4733 8 18.3836C8 23.2938 9.91087 27.9135 13.3861 31.3888C13.4106 31.4133 13.4386 31.4378 13.4666 31.4623L23.042 39.6098C26.4718 43.0606 28.3581 47.6348 28.3581 52.4996C28.3581 57.3643 26.4718 61.942 23.042 65.3893L13.4666 73.5368C13.4386 73.5613 13.4141 73.5858 13.3861 73.6103C9.91437 77.0821 8 81.7019 8 86.6156C8 91.5293 9.91087 96.1455 13.3861 99.6208C20.5537 106.792 32.2219 106.792 39.3894 99.6208C39.4139 99.5963 39.4384 99.5683 39.4629 99.5438L47.6104 89.9684C54.7289 82.8883 66.2711 82.8883 73.3896 89.9684L81.5371 99.5438C81.5616 99.5718 81.5861 99.5963 81.6106 99.6208C85.1944 103.208 89.9016 105 94.6122 105C99.3194 105 104.03 103.208 107.614 99.6208C111.086 96.149 113 91.5293 113 86.6156C113 81.7019 111.086 77.0856 107.614 73.6103C107.589 73.5858 107.561 73.5613 107.533 73.5368H107.53ZM28.2322 67.9162C27.0527 69.827 26.4228 72.0284 26.4228 74.3313C26.4228 77.6036 27.6967 80.6799 30.01 82.9933C32.3234 85.3066 35.3997 86.5806 38.6685 86.5806C40.9678 86.5806 43.1727 85.9471 45.08 84.7712L41.8777 88.5335C39.5574 90.8363 36.4811 92.1032 33.2088 92.1032C29.9365 92.1032 26.8287 90.8223 24.5049 88.495C19.7172 83.7072 19.7032 75.9237 24.4664 71.1185L28.2287 67.9162H28.2322ZM24.4699 33.8736C19.7067 29.0684 19.7207 21.2849 24.5084 16.4972C26.8322 14.1698 29.926 12.8889 33.2123 12.8889C36.4986 12.8889 39.5609 14.1558 41.8812 16.4587L45.0835 20.2209C43.1727 19.0415 40.9713 18.4115 38.672 18.4115C35.3997 18.4115 32.3234 19.6855 30.0135 21.9988C25.9258 26.0866 25.3413 32.3652 28.2462 37.083L24.4734 33.8701L24.4699 33.8736ZM92.7574 37.0865C95.6622 32.3652 95.0777 26.0901 90.99 22.0023C88.6766 19.689 85.6003 18.415 82.3281 18.415C80.0287 18.415 77.8239 19.0485 75.9165 20.2244L79.1188 16.4622C81.4391 14.1593 84.5154 12.8924 87.7877 12.8924C91.06 12.8924 94.1678 14.1733 96.4916 16.5007C101.279 21.2884 101.293 29.0719 96.5266 33.8771L92.7539 37.09L92.7574 37.0865ZM70.3903 75.0312C70.3658 75.0033 70.3414 74.9788 70.3169 74.9543C64.9027 69.5401 56.0938 69.5401 50.6797 74.9543C50.6552 74.9788 50.6307 75.0068 50.6062 75.0312L45.4055 81.1454C43.5996 82.9338 41.2093 83.9172 38.665 83.9172C36.1206 83.9172 33.6988 82.9198 31.8894 81.1104C30.08 79.301 29.0826 76.8931 29.0826 74.3348C29.0826 71.7764 30.066 69.4001 31.8509 67.5942L37.9615 62.3935C37.9895 62.369 38.014 62.3445 38.042 62.32C40.6633 59.6986 42.1087 56.2093 42.1087 52.4996C42.1087 48.7898 40.6633 45.304 38.042 42.6791C38.0175 42.6546 37.9895 42.6301 37.9615 42.6056L31.8509 37.4049C28.1517 33.6637 28.1622 27.6125 31.8859 23.8887C33.6953 22.0793 36.1031 21.0819 38.6615 21.0819C41.2198 21.0819 43.5961 22.0653 45.402 23.8537L50.6027 29.9679C50.6272 29.9959 50.6517 30.0204 50.6762 30.0449C56.0903 35.4591 64.8992 35.4591 70.3134 30.0449C70.3379 30.0204 70.3623 29.9924 70.3868 29.9679L75.5875 23.8537C77.3934 22.0653 79.7837 21.0819 82.3281 21.0819C84.8724 21.0819 87.2942 22.0793 89.1036 23.8887C92.8274 27.6125 92.8379 33.6672 89.1386 37.4049L83.028 42.6056C83 42.6301 82.9755 42.6546 82.951 42.6791C77.5369 48.0933 77.5369 56.9023 82.951 62.32C82.9755 62.3445 83.0035 62.369 83.028 62.3935L89.1386 67.5942C90.927 69.4001 91.9069 71.7904 91.9069 74.3348C91.9069 76.8791 90.9095 79.301 89.1001 81.1104C87.2907 82.9198 84.8829 83.9172 82.3245 83.9172C79.7662 83.9172 77.3899 82.9338 75.584 81.1454L70.3833 75.0312H70.3903ZM84.7989 60.3951C80.4732 56.0274 80.4732 48.9648 84.7989 44.6005L86.7448 42.9451C84.8409 45.7415 83.8155 49.0418 83.8155 52.4996C83.8155 55.9574 84.8409 59.2577 86.7448 62.054L84.7989 60.3986V60.3951ZM68.3955 28.1935C64.0313 32.5192 56.9687 32.5192 52.601 28.1935L50.9351 26.2371C53.8085 28.19 57.1507 29.1734 60.4965 29.1734C63.8423 29.1734 67.1846 28.1935 70.0579 26.2371L68.392 28.197L68.3955 28.1935ZM36.1976 44.6005C38.294 46.7144 39.4489 49.5177 39.4489 52.4996C39.4489 55.4814 38.294 58.2812 36.1976 60.3986L34.2413 62.0645C38.147 56.3143 38.147 48.6883 34.2413 42.9381L36.1976 44.604V44.6005ZM52.601 76.8021C56.9652 72.4764 64.0278 72.4764 68.3955 76.8021L70.0614 78.7585C64.3113 74.8493 56.6853 74.8493 50.9351 78.7585L52.601 76.7986V76.8021ZM82.3281 86.5806C85.6003 86.5806 88.6766 85.3066 90.99 82.9933C93.3033 80.6799 94.5772 77.6036 94.5772 74.3313C94.5772 72.0319 93.9438 69.827 92.7679 67.9162L96.5301 71.1185C101.293 75.9237 101.279 83.7072 96.4916 88.495C94.1678 90.8223 91.074 92.1032 87.7877 92.1032C84.5014 92.1032 81.4391 90.8363 79.1188 88.5335L75.9165 84.7712C77.8274 85.9506 80.0287 86.5806 82.3281 86.5806ZM95.8756 67.0622L90.647 62.614C87.9592 59.9051 86.4788 56.3143 86.4788 52.4961C86.4788 48.6778 87.9592 45.087 90.647 42.3781L95.8756 37.9299C92.0714 41.8567 89.975 47.0154 89.975 52.4961C89.975 57.9767 92.0714 63.1354 95.8756 67.0622ZM83.525 7.2262C89.6566 1.13306 99.6029 1.14356 105.72 7.2647C108.692 10.236 110.326 14.1838 110.326 18.3836C110.326 22.5833 108.706 26.4996 105.759 29.4674L98.6055 35.557C104.209 29.6984 104.135 20.3784 98.3745 14.6178C95.5467 11.7899 91.7844 10.229 87.7842 10.229C83.784 10.229 80.2387 11.7024 77.4424 14.3833L83.5285 7.2297L83.525 7.2262ZM75.0625 17.1131L70.6108 22.3453C65.0217 27.896 55.9678 27.896 50.3787 22.3453L45.927 17.1131C54.0324 24.9632 66.9571 24.9632 75.059 17.1131H75.0625ZM10.6633 18.3836C10.6633 14.1838 12.2977 10.236 15.269 7.2647C21.3866 1.14706 31.3329 1.13306 37.468 7.2262L43.5541 14.3798C40.7543 11.7024 37.0971 10.2255 33.2123 10.2255C29.3276 10.2255 25.4498 11.7829 22.622 14.6143C16.8614 20.3749 16.7879 29.6949 22.391 35.5536L15.234 29.4639C12.2872 26.4996 10.6668 22.5658 10.6668 18.3836H10.6633ZM25.1174 37.9299L30.346 42.3816C35.8966 47.9708 35.8966 57.0248 30.346 62.6175L25.1174 67.0692C28.9216 63.1424 31.018 57.9837 31.018 52.5031C31.018 47.0224 28.9216 41.8637 25.1174 37.9369V37.9299ZM37.4645 97.7694C31.3329 103.863 21.3831 103.852 15.2655 97.7309C12.2942 94.7596 10.6598 90.8118 10.6598 86.6121C10.6598 82.4123 12.2802 78.496 15.227 75.5317L22.384 69.4421C16.7809 75.3007 16.8544 84.6207 22.615 90.3813C25.4428 93.2092 29.2051 94.7701 33.2053 94.7701C37.2056 94.7701 40.7508 93.2967 43.5471 90.6158L37.461 97.7694H37.4645ZM45.927 87.8825L50.3787 82.6503C55.9678 77.0996 65.0217 77.0996 70.6108 82.6503L75.0625 87.8825C66.9606 80.0325 54.0359 80.029 45.9305 87.8825H45.927ZM105.72 97.7309C99.6029 103.849 89.6566 103.863 83.525 97.7694L77.4389 90.6158C80.2387 93.2932 83.896 94.7666 87.7807 94.7666C91.6654 94.7666 95.5432 93.2092 98.371 90.3779C104.132 84.6172 104.205 75.2972 98.602 69.4386L105.755 75.5282C108.702 78.4925 110.323 82.4263 110.323 86.6121C110.323 90.7978 108.688 94.7596 105.717 97.7309H105.72Z" fill="url(#paint0_linear_36_2301)"/>
</g>
<g clip-path="url(#clip0_36_2301)">
<path d="M38.9576 43.5C40.914 43.5 42.5001 41.933 42.5001 40C42.5001 38.067 40.914 36.5 38.9576 36.5C37.0011 36.5 35.415 38.067 35.415 40C35.415 41.933 37.0011 43.5 38.9576 43.5Z" fill="url(#paint1_linear_36_2301)"/>
<path d="M38.9572 45.8335C40.6963 45.8335 42.1058 47.226 42.1058 48.9443V61.3884C42.1058 63.1067 40.6963 64.4992 38.9572 64.4992C37.218 64.4992 35.8086 63.1067 35.8086 61.3884V48.9443C35.8086 47.226 37.218 45.8335 38.9572 45.8335Z" fill="url(#paint2_linear_36_2301)"/>
<path d="M30.7497 57.6971C29.3355 56.2999 29.3355 54.0347 30.7497 52.6375L32.5247 51.1451C33.7547 49.9299 33.7547 47.9606 32.5247 46.7454C31.2947 45.5302 29.3015 45.5302 28.0715 46.7454L26.561 48.4991C25.1468 49.8963 22.8541 49.8963 21.4399 48.4991L19.9294 46.7454C18.6994 45.5302 16.7061 45.5302 15.4762 46.7454C14.2462 47.9606 14.2462 49.9299 15.4762 51.1451L17.2512 52.6375C18.6654 54.0347 18.6654 56.2999 17.2512 57.6971L15.4762 59.1895C14.2462 60.4047 14.2462 62.3741 15.4762 63.5893C16.7061 64.8045 18.6994 64.8045 19.9294 63.5893L21.4399 61.8355C22.8541 60.4383 25.1468 60.4383 26.561 61.8355L28.0715 63.5893C29.3015 64.8045 31.2947 64.8045 32.5247 63.5893C33.7547 62.3741 33.7547 60.4047 32.5247 59.1895L30.7497 57.6971Z" fill="url(#paint3_linear_36_2301)"/>
<path d="M9.04252 43.5C10.999 43.5 12.585 41.933 12.585 40C12.585 38.067 10.999 36.5 9.04252 36.5C7.08604 36.5 5.5 38.067 5.5 40C5.5 41.933 7.08604 43.5 9.04252 43.5Z" fill="url(#paint4_linear_36_2301)"/>
<path d="M9.04215 45.8335C7.30301 45.8335 5.89355 47.226 5.89355 48.9443V61.3884C5.89355 63.1067 7.30301 64.4992 9.04215 64.4992C10.7813 64.4992 12.1907 63.1067 12.1907 61.3884V48.9443C12.1907 47.226 10.7813 45.8335 9.04215 45.8335Z" fill="url(#paint5_linear_36_2301)"/>
</g>
<rect x="47.5" y="49" width="10" height="3" rx="1.5" fill="#333333"/>
<path d="M79.832 58.364C80 58.784 80.084 59.204 80.084 59.54C80.084 60.856 79.076 61.836 77.704 61.836C76.668 61.836 75.884 61.248 75.436 60.1L75.044 59.12H68.436L68.044 60.1C67.596 61.248 66.812 61.836 65.776 61.836C64.404 61.836 63.396 60.856 63.396 59.54C63.396 59.204 63.48 58.784 63.648 58.364L69.444 44.28C69.864 43.244 70.648 42.684 71.74 42.684C72.832 42.684 73.616 43.244 74.036 44.28L79.832 58.364ZM71.74 49.852L69.864 55.256H73.616L71.74 49.852ZM84.3724 61.836C83.0004 61.836 81.9644 60.8 81.9644 59.4V45.456C81.9644 44.056 83.0004 43.02 84.4004 43.02H89.2164C93.4444 43.02 96.3564 45.596 96.3564 49.376C96.3564 53.1 93.3884 55.76 89.2164 55.76H86.7804V59.4C86.7804 60.8 85.7444 61.836 84.3724 61.836ZM86.7804 51.56H89.2444C90.5884 51.56 91.4564 50.692 91.4564 49.376C91.4564 48.088 90.5884 47.22 89.2444 47.22H86.7804V51.56ZM100.513 61.836C99.1128 61.836 98.1048 60.8 98.1048 59.4V45.12C98.1048 43.72 99.1128 42.684 100.513 42.684C101.913 42.684 102.921 43.72 102.921 45.12V59.4C102.921 60.8 101.913 61.836 100.513 61.836ZM110.085 61.836C108.069 61.836 106.249 61.192 104.933 60.072C104.457 59.68 104.205 59.148 104.205 58.56C104.205 57.496 105.073 56.628 106.165 56.628C106.557 56.628 106.949 56.74 107.453 57.104C108.181 57.608 109.161 58.028 110.169 58.028C110.841 58.028 111.401 57.888 111.401 57.412C111.401 57.076 111.121 56.936 110.589 56.712L109.021 56.068C106.473 55.032 104.961 53.884 104.961 51.56C104.961 48.76 107.173 47.136 110.393 47.136C111.933 47.136 113.585 47.556 114.789 48.368C115.377 48.76 115.713 49.376 115.713 50.02C115.713 51.112 114.845 51.98 113.781 51.98C113.389 51.98 112.997 51.812 112.661 51.616C111.933 51.196 111.205 50.944 110.421 50.944C109.805 50.944 109.441 51.084 109.441 51.476C109.441 51.84 109.749 51.98 110.393 52.232L111.793 52.792C114.285 53.8 115.881 54.836 115.881 57.188C115.881 60.128 113.417 61.836 110.085 61.836Z" fill="#333333"/>
<defs>
<linearGradient id="paint0_linear_36_2301" x1="60.4965" y1="104.997" x2="60.4965" y2="0.00262841" gradientUnits="userSpaceOnUse">
<stop stop-color="#FF19F5"/>
<stop offset="0.2" stop-color="#FA1BF5"/>
<stop offset="0.4" stop-color="#EE22F6"/>
<stop offset="0.61" stop-color="#D92DF8"/>
<stop offset="0.82" stop-color="#BC3DFB"/>
<stop offset="1" stop-color="#9E4EFF"/>
</linearGradient>
<linearGradient id="paint1_linear_36_2301" x1="38.9576" y1="64.5093" x2="38.9576" y2="45.81" gradientUnits="userSpaceOnUse">
<stop stop-color="#FF19F5"/>
<stop offset="0.2" stop-color="#FA1BF5"/>
<stop offset="0.4" stop-color="#EE22F6"/>
<stop offset="0.61" stop-color="#D92DF8"/>
<stop offset="0.82" stop-color="#BC3DFB"/>
<stop offset="1" stop-color="#9E4EFF"/>
</linearGradient>
<linearGradient id="paint2_linear_36_2301" x1="38.9572" y1="64.5002" x2="38.9572" y2="45.7999" gradientUnits="userSpaceOnUse">
<stop stop-color="#FF19F5"/>
<stop offset="0.2" stop-color="#FA1BF5"/>
<stop offset="0.4" stop-color="#EE22F6"/>
<stop offset="0.61" stop-color="#D92DF8"/>
<stop offset="0.82" stop-color="#BC3DFB"/>
<stop offset="1" stop-color="#9E4EFF"/>
</linearGradient>
<linearGradient id="paint3_linear_36_2301" x1="24" y1="64.5002" x2="24" y2="45.7999" gradientUnits="userSpaceOnUse">
<stop stop-color="#FF19F5"/>
<stop offset="0.2" stop-color="#FA1BF5"/>
<stop offset="0.4" stop-color="#EE22F6"/>
<stop offset="0.61" stop-color="#D92DF8"/>
<stop offset="0.82" stop-color="#BC3DFB"/>
<stop offset="1" stop-color="#9E4EFF"/>
</linearGradient>
<linearGradient id="paint4_linear_36_2301" x1="9.04252" y1="64.5093" x2="9.04252" y2="45.81" gradientUnits="userSpaceOnUse">
<stop stop-color="#FF19F5"/>
<stop offset="0.2" stop-color="#FA1BF5"/>
<stop offset="0.4" stop-color="#EE22F6"/>
<stop offset="0.61" stop-color="#D92DF8"/>
<stop offset="0.82" stop-color="#BC3DFB"/>
<stop offset="1" stop-color="#9E4EFF"/>
</linearGradient>
<linearGradient id="paint5_linear_36_2301" x1="9.04215" y1="64.5002" x2="9.04215" y2="45.7999" gradientUnits="userSpaceOnUse">
<stop stop-color="#FF19F5"/>
<stop offset="0.2" stop-color="#FA1BF5"/>
<stop offset="0.4" stop-color="#EE22F6"/>
<stop offset="0.61" stop-color="#D92DF8"/>
<stop offset="0.82" stop-color="#BC3DFB"/>
<stop offset="1" stop-color="#9E4EFF"/>
</linearGradient>
<clipPath id="clip0_36_2301">
<rect width="37" height="28" fill="white" transform="translate(5.5 36.5)"/>
</clipPath>
</defs>
</svg>
