<svg width="24" height="24" viewBox="0 0 24 24" fill="none" xmlns="http://www.w3.org/2000/svg">
<path fill-rule="evenodd" clip-rule="evenodd" d="M17.3334 15.6278L17.2874 15.5818C15.3092 13.6036 15.3092 10.3964 17.2874 8.4182L17.3334 8.37223L19.0155 6.94108C19.5193 6.39804 19.5071 5.54913 18.9789 5.02091C18.4507 4.49269 17.6018 4.48049 17.0587 4.9843L15.6276 6.66642L15.5816 6.71238C13.6034 8.69058 10.3962 8.69069 8.41812 6.7123L8.3722 6.66638L6.94108 4.9843C6.39804 4.48049 5.54914 4.49269 5.02091 5.02091C4.49269 5.54914 4.48049 6.39804 4.9843 6.94108L6.66642 8.37223L6.71238 8.4182C8.69062 10.3964 8.69062 13.6036 6.71238 15.5818L6.66642 15.6278L4.9843 17.0589C4.48049 17.602 4.49269 18.4509 5.02091 18.9791C5.54914 19.5073 6.39805 19.5195 6.94109 19.0157L8.37223 17.3336L8.4182 17.2876C10.3964 15.3094 13.6036 15.3093 15.5817 17.2877L15.6276 17.3336L17.0587 19.0157C17.6018 19.5195 18.4507 19.5073 18.9789 18.9791C19.5071 18.4509 19.5193 17.602 19.0155 17.0589L17.3334 15.6278ZM20.1211 15.8787C21.2927 17.0502 21.2927 18.9498 20.1211 20.1213C18.9496 21.2929 17.05 21.2929 15.8785 20.1213L14.4394 18.4299C13.0922 17.0825 10.9078 17.0825 9.56044 18.4299L8.12133 20.1213C6.94977 21.2929 5.05023 21.2929 3.87867 20.1213C2.70711 18.9498 2.70711 17.0502 3.87867 15.8787L5.57014 14.4396C6.91753 13.0922 6.91753 10.9078 5.57014 9.56044L3.87867 8.12133C2.70711 6.94977 2.70711 5.05023 3.87867 3.87867C5.05023 2.70711 6.94977 2.70711 8.12133 3.87867L9.56044 5.57014C10.9077 6.91753 13.092 6.91753 14.4394 5.57014L15.8785 3.87867C17.05 2.70711 18.9496 2.70711 20.1211 3.87867C21.2927 5.05023 21.2927 6.94977 20.1211 8.12133L18.4297 9.56044C17.0823 10.9078 17.0823 13.0922 18.4297 14.4396L20.1211 15.8787Z" fill="#E2D7EF"/>
</svg>
