<svg width="90" height="90" viewBox="0 0 90 90" fill="none" xmlns="http://www.w3.org/2000/svg">
<rect width="90" height="90" rx="30" fill="#FF7999"/>
<path d="M52.1111 40H59.2222C59.6937 40 60.1459 40.1844 60.4793 40.5126C60.8127 40.8408 61 41.2859 61 41.75V61L55.0747 56.1543C54.7549 55.893 54.3524 55.75 53.9369 55.75H39.6667C39.1952 55.75 38.743 55.5656 38.4096 55.2374C38.0762 54.9092 37.8889 54.4641 37.8889 54V48.75M52.1111 40V34.75C52.1111 34.2859 51.9238 33.8408 51.5904 33.5126C51.257 33.1844 50.8048 33 50.3333 33H30.7778C30.3063 33 29.8541 33.1844 29.5207 33.5126C29.1873 33.8408 29 34.2859 29 34.75V54L34.9253 49.1525C35.2453 48.8935 35.6471 48.75 36.0631 48.75H37.8889M52.1111 40V47C52.1111 47.4641 51.9238 47.9092 51.5904 48.2374C51.257 48.5656 50.8048 48.75 50.3333 48.75H37.8889" stroke="white" stroke-width="3.5" stroke-linecap="round" stroke-linejoin="round"/>
</svg>
