<svg width="24" height="24" viewBox="0 0 24 24" fill="none" xmlns="http://www.w3.org/2000/svg">
<path d="M6.72266 21.1152H18.6402" stroke="white" stroke-linecap="round"/>
<path fill-rule="evenodd" clip-rule="evenodd" d="M6.25146 4.11523H18.9892C20.2036 4.11523 21.188 5.09964 21.188 6.31396V14.6543C21.188 15.8686 20.2036 16.853 18.9892 16.853H6.25146C5.03714 16.853 4.05273 15.8686 4.05273 14.6543V6.31396C4.05273 5.09964 5.03714 4.11523 6.25146 4.11523ZM13.1544 8.42814C13.1544 8.13046 12.913 7.88915 12.6154 7.88915C12.3177 7.88915 12.0764 8.13046 12.0764 8.42814V10.4366C12.0764 10.7343 12.3177 10.9756 12.6154 10.9756C12.913 10.9756 13.1544 10.7343 13.1544 10.4366V8.42814ZM7.33532 9.12237C7.58231 8.95622 7.91722 9.02175 8.08338 9.26873L9.25673 11.0129C9.42289 11.2599 9.35736 11.5948 9.11037 11.761C8.86339 11.9271 8.52848 11.8616 8.36232 11.6146L7.18897 9.87042C7.02281 9.62344 7.08834 9.28853 7.33532 9.12237ZM18.052 9.87042C18.2182 9.62344 18.1526 9.28853 17.9057 9.12237C17.6587 8.95622 17.3238 9.02175 17.1576 9.26873L15.9843 11.0129C15.8181 11.2599 15.8836 11.5948 16.1306 11.761C16.3776 11.9271 16.7125 11.8616 16.8787 11.6146L18.052 9.87042Z" fill="white"/>
</svg>
