<svg width="36" height="36" viewBox="0 0 36 36" fill="none" xmlns="http://www.w3.org/2000/svg">
<rect width="36" height="36" rx="18" fill="#9E4EFF"/>
<path d="M21 17.6818C21 17.501 20.9368 17.3276 20.8243 17.1997C20.7117 17.0718 20.5591 17 20.4 17H15.6C15.4409 17 15.2883 17.0718 15.1757 17.1997C15.0632 17.3276 15 17.501 15 17.6818C15 17.8626 15.0632 18.0361 15.1757 18.1639C15.2883 18.2918 15.4409 18.3636 15.6 18.3636H20.4C20.5591 18.3636 20.7117 18.2918 20.8243 18.1639C20.9368 18.0361 21 17.8626 21 17.6818ZM21 21.3182C21 21.1374 20.9368 20.9639 20.8243 20.8361C20.7117 20.7082 20.5591 20.6364 20.4 20.6364H15.6C15.4409 20.6364 15.2883 20.7082 15.1757 20.8361C15.0632 20.9639 15 21.1374 15 21.3182C15 21.499 15.0632 21.6724 15.1757 21.8003C15.2883 21.9282 15.4409 22 15.6 22H20.4C20.5591 22 20.7117 21.9282 20.8243 21.8003C20.9368 21.6724 21 21.499 21 21.3182Z" fill="white" stroke="white" stroke-width="0.3"/>
<path fill-rule="evenodd" clip-rule="evenodd" d="M13.4839 9C12.8251 9 12.1933 9.25259 11.7275 9.70219C11.2617 10.1518 11 10.7616 11 11.3974V23.6026C11 24.2384 11.2617 24.8482 11.7275 25.2978C12.1933 25.7474 12.8251 26 13.4839 26H22.5161C23.1749 26 23.8067 25.7474 24.2725 25.2978C24.7383 24.8482 25 24.2384 25 23.6026V13.9849C25 13.6528 24.888 13.3302 24.6803 13.0652L21.9724 9.6059C21.8251 9.41769 21.6345 9.26503 21.4157 9.15989C21.1969 9.05476 20.9559 9.00003 20.7115 9H13.4839ZM12.3548 11.3974C12.3548 10.7959 12.8606 10.3077 13.4839 10.3077H20.0323V14.141C20.0323 14.5019 20.3357 14.7948 20.7097 14.7948H23.6452V23.6026C23.6452 24.2041 23.1394 24.6923 22.5161 24.6923H13.4839C12.8606 24.6923 12.3548 24.2041 12.3548 23.6026V11.3974Z" fill="white" stroke="white" stroke-width="0.2"/>
</svg>
