<svg width="20" height="20" viewBox="0 0 20 20" fill="none" xmlns="http://www.w3.org/2000/svg">
<path d="M5.00033 4.99935H5.00866M5.00033 14.9993H5.00866M3.33366 1.66602H16.667C17.5875 1.66602 18.3337 2.41221 18.3337 3.33268V6.66602C18.3337 7.58649 17.5875 8.33268 16.667 8.33268H3.33366C2.41318 8.33268 1.66699 7.58649 1.66699 6.66602V3.33268C1.66699 2.41221 2.41318 1.66602 3.33366 1.66602ZM3.33366 11.666H16.667C17.5875 11.666 18.3337 12.4122 18.3337 13.3327V16.666C18.3337 17.5865 17.5875 18.3327 16.667 18.3327H3.33366C2.41318 18.3327 1.66699 17.5865 1.66699 16.666V13.3327C1.66699 12.4122 2.41318 11.666 3.33366 11.666Z" stroke="#333333" stroke-linecap="round" stroke-linejoin="round"/>
</svg>
