<svg width="90" height="90" viewBox="0 0 90 90" fill="none" xmlns="http://www.w3.org/2000/svg">
<rect width="90" height="90" rx="30" fill="#7288FF"/>
<g clip-path="url(#clip0_36_2301)">
<path fill-rule="evenodd" clip-rule="evenodd" d="M58.2321 27.0001C59.2071 27.0001 59.9995 27.7926 59.9995 28.7676V32.0001H63.2321C63.5817 32 63.9235 32.1036 64.2142 32.2978C64.505 32.492 64.7316 32.7681 64.8654 33.0911C64.9992 33.4141 65.0342 33.7696 64.9659 34.1125C64.8977 34.4554 64.7293 34.7704 64.4821 35.0176L60.8321 38.6676C60.2994 39.1998 59.5775 39.4991 58.8246 39.5001H55.1496L46.3246 48.3251C45.9691 48.6563 45.499 48.8366 45.0132 48.828C44.5275 48.8194 44.064 48.6226 43.7205 48.2791C43.377 47.9356 43.1802 47.4721 43.1716 46.9864C43.163 46.5006 43.3434 46.0305 43.6746 45.6751L52.4996 36.8501V33.1751C52.4996 32.4226 52.7996 31.7001 53.3321 31.1651L56.9821 27.5151C57.1462 27.3509 57.3411 27.2208 57.5556 27.132C57.7701 27.0432 57.9999 26.9975 58.2321 26.9976V27.0001ZM31.2496 47.0001C31.2493 44.9614 31.7024 42.9482 32.5759 41.1062C33.4495 39.2642 34.7218 37.6395 36.3006 36.3497C37.8794 35.06 39.7253 34.1374 41.7045 33.6489C43.6838 33.1604 45.7469 33.1181 47.7446 33.5251C48.2294 33.6176 48.7311 33.5152 49.1409 33.2401C49.5507 32.9651 49.8355 32.5395 49.9336 32.0558C50.0317 31.5721 49.935 31.0692 49.6647 30.6563C49.3944 30.2434 48.9721 29.9537 48.4896 29.8501C44.8037 29.1007 40.9745 29.5588 37.5695 31.1564C34.1644 32.7541 31.3647 35.4063 29.5853 38.72C27.8058 42.0337 27.1414 45.8325 27.6904 49.5535C28.2393 53.2744 29.9725 56.7195 32.6331 59.3781C35.2937 62.0367 38.74 63.7674 42.4614 64.3137C46.1827 64.8599 49.9811 64.1927 53.2935 62.4108C56.6058 60.629 59.256 57.8273 60.8512 54.4211C62.4463 51.0149 62.9016 47.1853 62.1496 43.5001C62.0504 43.0127 61.7618 42.5847 61.3471 42.3102C60.9324 42.0357 60.4256 41.9372 59.9383 42.0363C59.451 42.1354 59.023 42.4241 58.7485 42.8388C58.474 43.2535 58.3754 43.7602 58.4746 44.2476C58.8568 46.1301 58.8404 48.0718 58.4263 49.9476C58.0122 51.8234 57.2097 53.5916 56.0705 55.1383C54.9312 56.685 53.4806 57.9758 51.812 58.9275C50.1434 59.8792 48.2938 60.4708 46.3826 60.664C44.4714 60.8572 42.541 60.6478 40.7156 60.0494C38.8903 59.4509 37.2106 58.4765 35.7848 57.1892C34.3591 55.9019 33.2189 54.3301 32.4377 52.5751C31.6566 50.8202 31.2518 48.921 31.2496 47.0001ZM44.6596 40.7601C45.1562 40.7335 45.6219 40.5108 45.9543 40.1409C46.2867 39.771 46.4586 39.2842 46.4321 38.7876C46.4055 38.2909 46.1828 37.8252 45.8129 37.4928C45.443 37.1604 44.9562 36.9885 44.4596 37.0151C42.5394 37.1185 40.6897 37.7735 39.1323 38.9014C37.5748 40.0293 36.3756 41.5823 35.6783 43.3744C34.981 45.1665 34.8152 47.1216 35.2007 49.0056C35.5863 50.8895 36.5069 52.6223 37.8521 53.9964C39.1974 55.3704 40.9103 56.3275 42.7857 56.7528C44.661 57.1782 46.6192 57.0539 48.4257 56.3947C50.2321 55.7355 51.8102 54.5694 52.9708 53.0362C54.1315 51.503 54.8254 49.6676 54.9696 47.7501C55.0063 47.2541 54.8446 46.7638 54.52 46.3871C54.1953 46.0104 53.7343 45.7781 53.2383 45.7413C52.7423 45.7045 52.2521 45.8662 51.8754 46.1909C51.4987 46.5156 51.2663 46.9766 51.2295 47.4726C51.1384 48.6704 50.7039 49.8166 49.9781 50.7739C49.2524 51.7312 48.2661 52.4591 47.1374 52.8704C46.0087 53.2817 44.7854 53.359 43.6139 53.093C42.4424 52.8271 41.3723 52.2291 40.5319 51.3708C39.6914 50.5124 39.1161 49.43 38.8749 48.2532C38.6337 47.0763 38.7367 45.8549 39.1717 44.7351C39.6067 43.6153 40.3552 42.6446 41.3276 41.9391C42.3 41.2337 43.455 40.8235 44.6546 40.7576L44.6596 40.7601Z" fill="white"/>
</g>
<defs>
<clipPath id="clip0_36_2301">
<rect width="40" height="40" fill="white" transform="translate(25 27)"/>
</clipPath>
</defs>
</svg>
