<svg width="64" height="64" viewBox="0 0 64 64" fill="none" xmlns="http://www.w3.org/2000/svg">
<rect width="64" height="64" rx="24" fill="#6FC29F"/>
<path d="M42.4903 35.863C43.5118 35.863 44.3398 35.0449 44.3398 34.0356C44.3398 33.0262 43.5763 32.2743 42.612 32.2124L42.6159 32.1726C42.7328 32.1957 42.8541 32.2081 42.9782 32.2081C43.9872 32.2081 44.8074 31.4101 44.8273 30.418C44.8481 29.3886 43.9823 28.5532 42.9399 28.5532H34.7715C34.4751 28.5532 34.2602 28.2742 34.3393 27.9915C34.6361 26.9323 35.2313 24.6222 35.1998 23.2366C35.1838 22.5426 35.0087 21.8074 34.8069 21.0353C34.5789 20.1631 33.6592 19.9953 33.1339 20.0001C32.6197 20.0049 31.7898 20.466 31.6845 21.2711C31.5594 22.2273 31.5308 23.0847 31.3372 23.8117C30.9128 25.4058 29.4426 29.0655 29.1525 29.7816C29.1195 29.863 29.103 29.9498 29.1035 30.0375L29.1971 42.7324C29.1991 42.9759 29.3994 43.1724 29.6458 43.1724H41.476C42.4956 43.1724 43.3527 42.3735 43.3643 41.3665C43.3745 40.4703 42.7318 39.7207 41.8771 39.553L41.881 39.5132C41.9213 39.5156 41.9615 39.5175 42.0023 39.5175C43.0238 39.5175 43.8518 38.6994 43.8518 37.69C43.8518 36.7622 43.1514 35.9958 42.2443 35.8789L42.2477 35.8467C42.3273 35.8568 42.4078 35.863 42.4898 35.863H42.4903Z" fill="white"/>
<path d="M25.8499 28.2754H21.5983C20.7156 28.2754 20 29.0168 20 29.9315V42.3434C20 43.2581 20.7156 43.9995 21.5983 43.9995H25.8499C26.7327 43.9995 27.4483 43.2581 27.4483 42.3434V29.9315C27.4483 29.0168 26.7327 28.2754 25.8499 28.2754Z" fill="white"/>
</svg>
