<svg width="20" height="20" viewBox="0 0 20 20" fill="none" xmlns="http://www.w3.org/2000/svg">
<circle cx="10" cy="10" r="10" fill="#F0E4FF"/>
<path d="M10.03 12.015C9.61 12.015 9.265 11.7 9.265 11.295V11.115C9.265 10.485 9.535 10.035 10.435 9.21C11.305 8.415 11.5 8.115 11.5 7.59C11.5 6.9 10.975 6.39 10.315 6.39C9.76 6.39 9.295 6.69 9.01 7.275C8.845 7.59 8.62 7.725 8.35 7.725C7.945 7.725 7.63 7.41 7.63 7.02C7.63 6.84 7.675 6.705 7.765 6.54C8.23 5.52 9.175 4.935 10.36 4.935C11.935 4.935 13.135 6 13.135 7.425C13.135 8.22 12.76 8.85 11.815 9.69C11.005 10.41 10.78 10.755 10.765 11.19L10.75 11.34C10.735 11.73 10.42 12.015 10.03 12.015ZM10.135 15.165C9.505 15.165 8.995 14.7 8.995 14.04C8.995 13.38 9.505 12.9 10.135 12.9C10.78 12.9 11.275 13.38 11.275 14.04C11.275 14.7 10.78 15.165 10.135 15.165Z" fill="#9E4EFF"/>
</svg>
