<svg width="24" height="24" viewBox="0 0 24 24" fill="none" xmlns="http://www.w3.org/2000/svg">
<path d="M2.40039 5.51922H4.56039M4.56039 5.51922H21.8404M4.56039 5.51922V20.6392C4.56039 21.2121 4.78796 21.7615 5.19304 22.1666C5.59812 22.5716 6.14752 22.7992 6.72039 22.7992H17.5204C18.0933 22.7992 18.6427 22.5716 19.0477 22.1666C19.4528 21.7615 19.6804 21.2121 19.6804 20.6392V5.51922H4.56039ZM7.80039 5.51922V3.35922C7.80039 2.78635 8.02796 2.23695 8.43304 1.83187C8.83812 1.42679 9.38752 1.19922 9.96039 1.19922H14.2804C14.8533 1.19922 15.4027 1.42679 15.8077 1.83187C16.2128 2.23695 16.4404 2.78635 16.4404 3.35922V5.51922M9.96039 10.9192V17.3992M14.2804 10.9192V17.3992" stroke="#555555" stroke-linecap="round" stroke-linejoin="round"/>
</svg>
