<svg width="90" height="90" viewBox="0 0 90 90" fill="none" xmlns="http://www.w3.org/2000/svg">
<rect width="90" height="90" rx="30" fill="#7D7AF2"/>
<path d="M31.667 38.3332V34.9998C31.667 34.1158 32.0182 33.2679 32.6433 32.6428C33.2684 32.0177 34.1163 31.6665 35.0003 31.6665H38.3337M31.667 51.6665V54.9998C31.667 55.8839 32.0182 56.7317 32.6433 57.3569C33.2684 57.982 34.1163 58.3332 35.0003 58.3332H38.3337M51.667 31.6665H55.0003C55.8844 31.6665 56.7322 32.0177 57.3573 32.6428C57.9825 33.2679 58.3337 34.1158 58.3337 34.9998V38.3332M51.667 58.3332H55.0003C55.8844 58.3332 56.7322 57.982 57.3573 57.3569C57.9825 56.7317 58.3337 55.8839 58.3337 54.9998V51.6665M45.0003 51.6665V39.9998M40.0003 39.9998H50.0003" stroke="white" stroke-width="3.33333" stroke-linecap="round" stroke-linejoin="round"/>
</svg>
