<svg width="24" height="24" viewBox="0 0 24 24" fill="none" xmlns="http://www.w3.org/2000/svg">
<rect x="0.5" y="0.5" width="23" height="23" rx="11.5" fill="white"/>
<rect x="0.5" y="0.5" width="23" height="23" rx="11.5" stroke="#9E4EFF"/>
<path d="M12.8397 6.20037C12.944 6.12573 13.0661 6.07977 13.1938 6.06708C13.3214 6.05438 13.4502 6.0754 13.5672 6.12802C13.6842 6.18065 13.7853 6.26305 13.8605 6.36699C13.9357 6.47094 13.9823 6.59278 13.9957 6.72037L13.9997 6.79637V17.2044C13.9997 17.3327 13.9661 17.4587 13.9022 17.57C13.8383 17.6812 13.7463 17.7737 13.6354 17.8383C13.5246 17.9029 13.3987 17.9372 13.2704 17.9379C13.1421 17.9387 13.0159 17.9057 12.9043 17.8424L12.8403 17.801L8.45301 14.667H6.66634C6.32996 14.6671 6.00596 14.5401 5.75931 14.3114C5.51265 14.0826 5.36157 13.7691 5.33634 13.4337L5.33301 13.3337V10.667C5.3329 10.3307 5.45995 10.0067 5.68867 9.76001C5.9174 9.51335 6.2309 9.36227 6.56634 9.33704L6.66634 9.33371H8.45301L12.8397 6.20037ZM17.111 8.52237C17.6008 8.95968 17.9926 9.49562 18.2606 10.095C18.5287 10.6944 18.667 11.3438 18.6663 12.0004C18.667 12.657 18.5287 13.3063 18.2606 13.9057C17.9926 14.5051 17.6008 15.0411 17.111 15.4784C17.0459 15.5377 16.9698 15.5836 16.8869 15.6133C16.804 15.6431 16.716 15.6561 16.6281 15.6516C16.5401 15.6472 16.4539 15.6254 16.3744 15.5874C16.295 15.5495 16.2238 15.4961 16.165 15.4305C16.1063 15.3649 16.0611 15.2883 16.0322 15.2051C16.0032 15.122 15.991 15.0339 15.9963 14.946C16.0015 14.8581 16.0242 14.7721 16.0628 14.693C16.1015 14.6138 16.1555 14.5432 16.2217 14.485C16.5718 14.1728 16.8518 13.7899 17.0434 13.3617C17.2349 12.9335 17.3336 12.4695 17.333 12.0004C17.333 11.0137 16.905 10.127 16.2217 9.51571C16.1555 9.45757 16.1015 9.38691 16.0628 9.30779C16.0242 9.22868 16.0015 9.14268 15.9963 9.05477C15.991 8.96686 16.0032 8.87878 16.0322 8.79561C16.0611 8.71245 16.1063 8.63584 16.165 8.57023C16.2238 8.50462 16.295 8.45129 16.3744 8.41334C16.4539 8.37538 16.5401 8.35355 16.6281 8.3491C16.716 8.34465 16.804 8.35767 16.8869 8.38741C16.9698 8.41715 17.0459 8.46302 17.111 8.52237ZM15.7777 10.013C16.0574 10.2629 16.2812 10.569 16.4344 10.9114C16.5875 11.2538 16.6666 11.6246 16.6663 11.9997C16.6668 12.375 16.5879 12.7462 16.4347 13.0888C16.2815 13.4314 16.0576 13.7378 15.7777 13.9877C15.6512 14.1 15.4869 14.16 15.3179 14.1557C15.1488 14.1513 14.9878 14.0829 14.8673 13.9643C14.7468 13.8457 14.6759 13.6857 14.6689 13.5168C14.6619 13.3478 14.7194 13.1825 14.8297 13.0544L14.8883 12.9944C15.1617 12.749 15.333 12.395 15.333 12.0004C15.3338 11.659 15.2029 11.3304 14.9677 11.083L14.8883 11.0064C14.8222 10.9482 14.7682 10.8776 14.7295 10.7985C14.6908 10.7193 14.6682 10.6334 14.6629 10.5454C14.6577 10.4575 14.6699 10.3694 14.6988 10.2863C14.7278 10.2031 14.773 10.1265 14.8317 10.0609C14.8905 9.99528 14.9616 9.94196 15.0411 9.904C15.1206 9.86605 15.2068 9.84422 15.2947 9.83977C15.3827 9.83532 15.4706 9.84834 15.5535 9.87808C15.6364 9.90782 15.7126 9.95369 15.7777 10.013Z" fill="#9E4EFF"/>
</svg>
