<svg width="24" height="24" viewBox="0 0 24 24" fill="none" xmlns="http://www.w3.org/2000/svg">
<rect x="0.5" y="0.5" width="23" height="23" rx="11.5" fill="white"/>
<rect x="0.5" y="0.5" width="23" height="23" rx="11.5" stroke="#AAAAAA"/>
<path d="M12.8397 6.1994C12.944 6.12476 13.0661 6.0788 13.1938 6.0661C13.3214 6.0534 13.4502 6.07442 13.5672 6.12705C13.6842 6.17968 13.7853 6.26207 13.8605 6.36602C13.9357 6.46996 13.9823 6.59181 13.9957 6.7194L13.9997 6.7954V17.2034C13.9997 17.3317 13.9661 17.4577 13.9022 17.569C13.8383 17.6802 13.7463 17.7727 13.6354 17.8373C13.5246 17.9019 13.3987 17.9362 13.2704 17.937C13.1421 17.9377 13.0159 17.9047 12.9043 17.8414L12.8403 17.8001L8.45301 14.6661H6.66634C6.32996 14.6662 6.00596 14.5391 5.75931 14.3104C5.51265 14.0817 5.36157 13.7682 5.33634 13.4327L5.33301 13.3327V10.6661C5.3329 10.3297 5.45995 10.0057 5.68867 9.75903C5.9174 9.51238 6.2309 9.36129 6.56634 9.33606L6.66634 9.33273H8.45301L12.8397 6.1994ZM17.111 8.5214C17.6008 8.9587 17.9926 9.49464 18.2606 10.0941C18.5287 10.6935 18.667 11.3428 18.6663 11.9994C18.667 12.656 18.5287 13.3053 18.2606 13.9047C17.9926 14.5041 17.6008 15.0401 17.111 15.4774C17.0459 15.5367 16.9698 15.5826 16.8869 15.6124C16.804 15.6421 16.716 15.6551 16.6281 15.6507C16.5401 15.6462 16.4539 15.6244 16.3744 15.5864C16.295 15.5485 16.2238 15.4952 16.165 15.4295C16.1063 15.3639 16.0611 15.2873 16.0322 15.2042C16.0032 15.121 15.991 15.0329 15.9963 14.945C16.0015 14.8571 16.0242 14.7711 16.0628 14.692C16.1015 14.6129 16.1555 14.5422 16.2217 14.4841C16.5718 14.1718 16.8518 13.789 17.0434 13.3607C17.2349 12.9325 17.3336 12.4685 17.333 11.9994C17.333 11.0127 16.905 10.1261 16.2217 9.51473C16.1555 9.4566 16.1015 9.38593 16.0628 9.30682C16.0242 9.2277 16.0015 9.14171 15.9963 9.0538C15.991 8.96589 16.0032 8.8778 16.0322 8.79464C16.0611 8.71147 16.1063 8.63487 16.165 8.56925C16.2238 8.50364 16.295 8.45032 16.3744 8.41236C16.4539 8.37441 16.5401 8.35257 16.6281 8.34812C16.716 8.34367 16.804 8.3567 16.8869 8.38644C16.9698 8.41618 17.0459 8.46205 17.111 8.5214ZM15.7777 10.0121C16.0574 10.2619 16.2812 10.568 16.4344 10.9104C16.5875 11.2528 16.6666 11.6237 16.6663 11.9987C16.6668 12.374 16.5879 12.7452 16.4347 13.0878C16.2815 13.4304 16.0576 13.7368 15.7777 13.9867C15.6512 14.099 15.4869 14.1591 15.3179 14.1547C15.1488 14.1504 14.9878 14.082 14.8673 13.9633C14.7468 13.8447 14.6759 13.6847 14.6689 13.5158C14.6619 13.3468 14.7194 13.1816 14.8297 13.0534L14.8883 12.9934C15.1617 12.7481 15.333 12.3941 15.333 11.9994C15.3338 11.658 15.2029 11.3294 14.9677 11.0821L14.8883 11.0054C14.8222 10.9473 14.7682 10.8766 14.7295 10.7975C14.6908 10.7184 14.6682 10.6324 14.6629 10.5445C14.6577 10.4566 14.6699 10.3685 14.6988 10.2853C14.7278 10.2021 14.773 10.1255 14.8317 10.0599C14.8905 9.99431 14.9616 9.94098 15.0411 9.90303C15.1206 9.86507 15.2068 9.84324 15.2947 9.83879C15.3827 9.83434 15.4706 9.84736 15.5535 9.8771C15.6364 9.90684 15.7126 9.95271 15.7777 10.0121Z" fill="#AAAAAA"/>
</svg>
