<svg width="65" height="64" viewBox="0 0 65 64" fill="none" xmlns="http://www.w3.org/2000/svg">
<rect x="0.75" width="64" height="64" rx="24" fill="#F09A9A"/>
<path d="M46.0678 40.3226L34.2034 19.908C33.8727 19.3397 33.2967 19 32.6613 19C32.0258 19 31.4498 19.3397 31.1191 19.908L19.2547 40.3226C18.9228 40.8934 18.915 41.5638 19.2328 42.1166C19.5505 42.6694 20.1356 43 20.7969 43H44.5256C45.1869 43 45.772 42.6694 46.0897 42.1166C46.4075 41.5638 46.3997 40.8934 46.0678 40.3226ZM32.6613 39.886C31.9289 39.886 31.3361 39.2932 31.3361 38.5609C31.3361 37.8285 31.9289 37.2357 32.6613 37.2357C33.3936 37.2357 33.9864 37.8285 33.9864 38.5609C33.9864 39.2932 33.3936 39.886 32.6613 39.886ZM34.3597 26.8954C34.3597 26.8954 33.7875 32.4026 33.32 36.205H32.0013C31.535 32.4026 30.9615 26.8954 30.9615 26.8954C30.8259 26.0158 31.442 25.2964 32.3319 25.2964H32.988C33.8779 25.2964 34.494 26.0158 34.3584 26.8954H34.3597Z" fill="white"/>
</svg>
